<svg width="858" height="133" viewBox="0 0 858 133" fill="none" xmlns="http://www.w3.org/2000/svg">
<path d="M17 53C38.78 53 60.56 53 83 53C81.0476 60.1588 79.0562 66.9399 76.4258 73.8242C76.0971 74.6965 75.7684 75.5688 75.4297 76.4675C74.3953 79.2093 73.3541 81.9484 72.3125 84.6875C71.6031 86.5643 70.8941 88.4412 70.1855 90.3184C68.4623 94.8809 66.7329 99.4411 65 104C63.8806 103.053 62.7629 102.104 61.646 101.154C61.0234 100.625 60.4008 100.097 59.7594 99.5524C57.5243 97.5802 55.5749 95.44 53.625 93.1875C50.6394 89.8007 47.5921 86.5429 44.375 83.375C41.6714 80.7087 39.0901 78.0127 36.625 75.125C32.8915 70.7547 28.7822 66.7943 24.6484 62.8086C22 60 22 60 17 53Z" fill="#0B1A39"/>
<path d="M531 45C553 45 553 45 561 49C565.071 53.2476 568.251 57.177 568.438 63.1875C568.303 68.6299 566.304 72.7315 563 77C561.055 78.6946 559.293 79.7735 557 81C557.412 81.3919 557.825 81.7837 558.25 82.1875C563.231 87.3467 566.22 92.9426 569.246 99.3633C570.898 102.864 572.498 106.004 575 109C573.763 109.103 572.525 109.206 571.25 109.312C570.554 109.371 569.858 109.429 569.141 109.488C565.791 108.724 564.88 106.807 563 104C562.004 102.198 561.073 100.375 560.161 98.5298C555.667 89.4166 555.667 89.4166 548 83C544.7 82.67 541.4 82.34 538 82C538 90.58 538 99.16 538 108C535.69 108 533.38 108 531 108C531 87.21 531 66.42 531 45Z" fill="#11203E"/>
<path d="M399 26C401.97 26 404.94 26 408 26C410.473 32.579 412.945 39.1587 415.416 45.7388C416.254 47.9713 417.093 50.2038 417.932 52.436C426.874 76.2193 426.874 76.2193 431 88C430 89 430 89 426.438 89.0625C425.303 89.0419 424.169 89.0213 423 89C422.203 87.148 421.413 85.2933 420.625 83.4375C420.184 82.405 419.743 81.3724 419.289 80.3086C417.98 76.9478 416.991 73.4681 416 70C408.08 70.33 400.16 70.66 392 71C389.022 77.695 389.022 77.695 386.312 84.5C385 88 385 88 384 89C381.667 89.0409 379.333 89.0424 377 89C377.563 83.8574 378.779 79.3797 380.688 74.5625C381.233 73.1472 381.779 71.7318 382.324 70.3164C382.603 69.5998 382.882 68.8833 383.169 68.145C384.475 64.774 385.736 61.3867 387 58C387.496 56.677 387.992 55.3541 388.488 54.0312C388.735 53.3725 388.982 52.7138 389.237 52.0352C392.491 43.3568 395.746 34.6784 399 26Z" fill="#12203E"/>
<path d="M618 26C620.64 26 623.28 26 626 26C630.58 36.6108 634.591 47.4235 638.625 58.25C639.299 60.0548 639.974 61.8595 640.648 63.6641C643.785 72.057 643.785 72.057 645.184 75.8263C645.738 77.3014 646.303 78.7723 646.878 80.2391C649 85.6888 649 85.6888 649 89C646.36 89 643.72 89 641 89C639.994 86.398 638.995 83.7937 638 81.1875C637.714 80.4495 637.428 79.7115 637.133 78.9512C636.862 78.239 636.591 77.5268 636.312 76.793C636.061 76.1384 635.81 75.4838 635.551 74.8093C635 73 635 73 635 70C622.625 70.495 622.625 70.495 610 71C609.402 72.8563 608.804 74.7125 608.187 76.625C606.744 80.9717 605.222 85.0005 603 89C600.69 89 598.38 89 596 89C594.666 84.9967 596.093 82.7401 597.687 79.0625C599.656 74.3551 601.505 69.6767 603.062 64.8125C604.697 59.7462 606.686 54.9042 608.777 50.0117C610.398 46.0192 611.696 41.9463 613.019 37.8477C614.421 33.7767 616.155 29.8868 618 26Z" fill="#11203E"/>
<path d="M664 26C666.64 26 669.28 26 672 26C672.336 26.969 672.672 27.9379 673.019 28.9363C678.925 45.9378 684.864 62.9219 691.25 79.75C691.948 81.594 691.948 81.594 692.659 83.4753C694.235 88.5855 694.235 88.5855 697 93C697.219 92.3916 697.438 91.7831 697.664 91.1562C701.671 80.0794 705.744 69.0349 710.188 58.125C712.182 53.2154 713.912 48.3031 715.355 43.2031C717.086 37.2889 719.534 31.6375 722 26C724.64 26 727.28 26 730 26C728.173 36.0511 724.562 45.7604 720.691 55.1875C717.534 62.9303 714.672 70.7022 712.093 78.6577C710.729 82.8583 709.269 86.9998 707.698 91.1272C706.33 94.7977 705.167 98.5381 703.965 102.266C703.128 104.636 702.185 106.788 701 109C698.36 109 695.72 109 693 109C689.101 99.6527 685.771 90.1001 682.375 80.5625C677.219 66.0922 677.219 66.0922 671.895 51.6836C671.433 50.4563 670.972 49.2291 670.497 47.9646C669.648 45.7196 668.794 43.4767 667.933 41.2366C666 36.1192 664.468 31.4618 664 26Z" fill="#142240"/>
<path d="M280 26C295.51 26 311.02 26 327 26C327 28.97 327 31.94 327 35C326.34 35 325.68 35 325 35C324.79 35.7747 324.58 36.5495 324.363 37.3477C322.492 42.3611 319.859 46.8112 317.188 51.4375C316.01 53.4973 314.833 55.5572 313.656 57.6172C312.749 59.1984 312.749 59.1984 311.824 60.8115C308.923 65.8826 306.057 70.9732 303.188 76.0625C298.487 84.3919 293.745 92.6959 289 101C301.54 101 314.08 101 327 101C327 103.64 327 106.28 327 109C311.49 109 295.98 109 280 109C280 100 280 100 282 96C282.66 96 283.32 96 284 96C284.99 93.03 285.98 90.06 287 87C287.66 87 288.32 87 289 87C289.257 86.1376 289.513 85.2752 289.777 84.3867C291.041 80.8861 292.634 77.9898 294.562 74.8125C297.131 70.5683 297.131 70.5683 299 66C299.66 66 300.32 66 301 66C301.227 65.2163 301.454 64.4325 301.688 63.625C303.407 58.877 305.681 54.479 308 50C308.66 50 309.32 50 310 50C310.66 48.35 311.32 46.7 312 45C313.65 41.37 315.3 37.74 317 34C304.79 34 292.58 34 280 34C280 31.36 280 28.72 280 26Z" fill="#172542"/>
<path d="M217.867 25.8798C219.089 25.8831 219.089 25.8831 220.336 25.8865C221.257 25.8866 222.178 25.8866 223.127 25.8867C224.128 25.8919 225.129 25.897 226.16 25.9024C227.18 25.9038 228.199 25.9052 229.25 25.9066C232.521 25.9123 235.792 25.9248 239.062 25.9375C241.274 25.9425 243.486 25.9471 245.697 25.9512C251.132 25.9622 256.566 25.979 262 26C262.315 34.4492 262.315 34.4492 259.797 38.8555C259.078 40.1434 259.078 40.1434 258.344 41.4573C257.818 42.3583 257.292 43.2592 256.75 44.1875C255.938 45.625 255.938 45.625 255.109 47.0916C253.422 50.0703 251.712 53.0353 250 56C248.983 57.7882 247.967 59.5772 246.953 61.3672C243.436 67.5634 239.88 73.7374 236.323 79.9107C234.651 82.8142 232.981 85.7196 231.312 88.625C230.795 89.5203 230.277 90.4157 229.744 91.3382C229.268 92.1676 228.792 92.997 228.301 93.8516C227.88 94.582 227.459 95.3124 227.025 96.065C225.869 98.1196 225.869 98.1196 225 101C237.21 101 249.42 101 262 101C262 103.64 262 106.28 262 109C246.49 109 230.98 109 215 109C215 100.004 215 100.004 217.082 96.7461C217.52 96.0365 217.957 95.3269 218.408 94.5957C218.872 93.8835 219.335 93.1713 219.812 92.4375C222.994 87.395 225.803 82.5543 228 77C228.66 77 229.32 77 230 77C230.371 76.041 230.371 76.041 230.75 75.0625C232.408 71.0001 234.204 67.0028 236 63C236.66 63 237.32 63 238 63C238.205 62.2317 238.41 61.4635 238.621 60.6719C240.55 55.5349 243.298 50.9779 246.062 46.25C247.158 44.3596 248.253 42.4689 249.348 40.5781C249.832 39.747 250.317 38.9159 250.817 38.0596C251.582 36.7273 252.313 35.3743 253 34C240.46 34 227.92 34 215 34C215 26.0644 215 26.0644 217.867 25.8798Z" fill="#172542"/>
<path d="M580 35C580 37.64 580 40.28 580 43C577.644 42.0881 575.321 41.1569 573.051 40.0469C558.746 33.1642 545.189 34.2642 530.298 38.3814C527.451 39.1477 524.593 39.8608 521.732 40.573C520.657 40.8409 519.582 41.1088 518.474 41.3848C517.658 41.5878 516.841 41.7909 516 42C515.985 43.1264 515.985 43.1264 515.969 44.2754C515.871 51.3668 515.768 58.4581 515.661 65.5494C515.606 69.1947 515.552 72.84 515.503 76.4854C515.455 80.0062 515.402 83.5269 515.347 87.0477C515.317 89.0383 515.291 91.0291 515.266 93.0198C515.246 94.2406 515.226 95.4614 515.205 96.7193C515.19 97.7896 515.174 98.8599 515.158 99.9627C514.998 103.041 514.566 105.973 514 109C511.69 109 509.38 109 507 109C507 86.89 507 64.78 507 42C504.03 41.67 501.06 41.34 498 41C495.188 39.625 495.188 39.625 493 38C492.258 37.4638 491.515 36.9275 490.75 36.375C489 35 489 35 488 34C487.959 31.667 487.958 29.333 488 27C488.57 27.2862 489.14 27.5724 489.727 27.8672C490.477 28.241 491.227 28.6149 492 29C492.688 29.3532 493.377 29.7064 494.086 30.0703C506.204 35.6538 516.562 33.0375 528.813 29.5C547.776 24.0491 562.792 24.3968 580 35Z" fill="#142240"/>
<path d="M767.633 25.9024C768.396 25.9038 769.158 25.9052 769.944 25.9067C772.338 25.9122 774.731 25.9247 777.125 25.9375C778.766 25.9426 780.406 25.9471 782.047 25.9512C786.031 25.9621 790.016 25.9793 794 26C794 28.64 794 31.28 794 34C781.79 34 769.58 34 757 34C757.33 40.6 757.66 47.2 758 54C771.86 54.495 771.86 54.495 786 55C786 57.31 786 59.62 786 62C776.43 62 766.86 62 757 62C757 68.6 757 75.2 757 82C769.21 82 781.42 82 794 82C794 83.98 794 85.96 794 88C793 89 793 89 791.209 89.1203C790.43 89.1181 789.65 89.1158 788.847 89.1136C787.954 89.1134 787.061 89.1133 786.141 89.1132C785.196 89.1081 784.251 89.103 783.277 89.0977C782.413 89.0967 781.549 89.0957 780.659 89.0946C777.419 89.0894 774.178 89.0754 770.938 89.0625C763.698 89.0419 756.459 89.0213 749 89C749 68.54 749 48.08 749 27C755.336 26.3664 761.32 25.8567 767.633 25.9024Z" fill="#12203E"/>
<path d="M88 0C111.265 0.495 111.265 0.495 135 1C135 1.66 135 2.32 135 3C133.602 4.375 133.602 4.375 131.625 6C128.252 8.86045 125.103 11.8487 122 15C119.185 17.8486 116.373 20.6053 113.312 23.1875C108.395 27.3706 103.942 32.0369 99.4543 36.6707C98.8378 37.2988 98.2212 37.927 97.5859 38.5742C97.0399 39.1371 96.4938 39.7001 95.9312 40.28C93.4971 42.4479 90.7121 44.1919 88 46C88 30.82 88 15.64 88 0Z" fill="#0D1B3A"/>
<path d="M83 4C83.33 4 83.66 4 84 4C84 18.85 84 33.7 84 49C69.81 49 55.62 49 41 49C45.0334 44.2944 49.0282 39.8722 53.4375 35.5625C57.6239 31.4281 61.6496 27.245 65.4609 22.7578C67.5993 20.3155 69.9154 18.074 72.2305 15.8008C74.7819 13.2043 77.1489 10.4604 79.5195 7.69922C80.6317 6.42271 81.8028 5.19717 83 4Z" fill="#0B1A39"/>
<path d="M817 26C819.64 26 822.28 26 825 26C825 50.75 825 75.5 825 101C828.63 100.01 832.26 99.02 836 98C848.735 96.5934 848.735 96.5934 853.812 99.9375C856 102 856 102 857 103C857.041 105 857.043 107 857 109C856.113 108.67 855.226 108.34 854.312 108C846.037 105.66 837.088 106.644 828.828 108.562C824.929 109.166 820.945 109 817 109C817 81.61 817 54.22 817 26Z" fill="#0F1D3C"/>
<path d="M84 62C84.33 62 84.66 62 85 62C85 85.43 85 108.86 85 133C81.5997 131.64 78.8676 130.448 75.793 128.617C75.0421 128.172 74.2912 127.728 73.5176 127.27C72.7487 126.809 71.9797 126.349 71.1875 125.875C70.3992 125.407 69.611 124.939 68.7988 124.457C66.864 123.308 64.9311 122.155 63 121C64.0165 115.958 65.1035 111.263 67.25 106.562C69.4695 101.451 71.284 96.2947 73 91C75.0397 84.7278 77.2819 78.6306 79.8984 72.5703C81.3904 69.0891 82.7004 65.5569 84 62Z" fill="#162542"/>
<path d="M14 14C23 14 23 14 26.0391 16.125C26.8924 17.0738 27.7458 18.0225 28.625 19C29.0859 19.4997 29.5468 19.9993 30.0217 20.5142C31.3714 21.9882 32.6865 23.4937 34 25C34.6974 25.7709 35.3948 26.5417 36.1133 27.3359C39.2027 30.7892 42.1471 34.3483 45 38C42.8653 42.6115 40.2903 46.1832 36 49C32.1323 49.8258 28.494 49.6685 24.5625 49.4375C21.0769 49.2931 17.5912 49.1488 14 49C14 37.45 14 25.9 14 14Z" fill="#0B1A39"/>
<path d="M538 51C541.558 50.9072 541.558 50.9072 545.188 50.8125C546.294 50.7716 546.294 50.7716 547.423 50.7298C551.846 50.6742 554.485 51.3248 558 54C561.368 57.8327 561.579 61.7049 561.41 66.625C561 69 561 69 558.938 72C551.931 76.7702 546.775 76 538 76C538 67.75 538 59.5 538 51Z" fill="#FAFAFA"/>
<path d="M349 47C351.31 47 353.62 47 356 47C356.918 54.4727 357.134 61.828 357.098 69.3516C357.096 70.4916 357.095 71.6317 357.094 72.8062C357.088 76.4125 357.075 80.0187 357.063 83.625C357.058 86.0846 357.053 88.5443 357.049 91.0039C357.038 97.0026 357.021 103.001 357 109C354.667 109.042 352.333 109.041 350 109C349 108 349 108 348.88 105.564C348.882 104.483 348.884 103.401 348.887 102.287C348.887 101.066 348.887 99.8445 348.887 98.5863C348.892 97.2437 348.897 95.9012 348.902 94.5586C348.904 93.1924 348.906 91.8262 348.907 90.46C348.911 86.858 348.92 83.256 348.931 79.6541C348.942 75.981 348.946 72.3079 348.951 68.6348C348.962 61.4232 348.979 54.2116 349 47Z" fill="#162442"/>
<path d="M186 47C188.31 47 190.62 47 193 47C193 67.46 193 87.92 193 109C191.02 109 189.04 109 187 109C186 108 186 108 185.88 105.564C185.882 104.483 185.884 103.401 185.887 102.287C185.887 101.066 185.887 99.8445 185.887 98.5863C185.892 97.2437 185.897 95.9012 185.902 94.5586C185.904 93.1924 185.906 91.8262 185.907 90.46C185.911 86.858 185.92 83.256 185.931 79.6541C185.942 75.981 185.946 72.3079 185.951 68.6348C185.962 61.4232 185.979 54.2116 186 47Z" fill="#0B1A39"/>
<path d="M621 39C621.66 39 622.32 39 623 39C624.505 42.7895 626.003 46.582 627.5 50.375C628.144 51.9954 628.144 51.9954 628.801 53.6484C629.41 55.1953 629.41 55.1953 630.031 56.7734C630.408 57.7265 630.785 58.6796 631.174 59.6616C632 62 632 62 632 64C625.4 64 618.8 64 612 64C614.384 55.3905 617.602 47.2465 621 39Z" fill="#EDEEF0"/>
<path d="M403 39C405.674 40.3371 405.84 41.5838 406.945 44.332C407.3 45.2131 407.654 46.0942 408.02 47.002C408.384 47.9294 408.749 48.8569 409.125 49.8125C409.684 51.1863 409.684 51.1863 410.254 52.5879C410.606 53.4728 410.958 54.3578 411.32 55.2695C411.804 56.4854 411.804 56.4854 412.297 57.7258C413 60 413 60 413 64C406.73 64 400.46 64 394 64C394.674 59.9547 395.162 57.1539 396.594 53.5117C396.902 52.7235 397.21 51.9352 397.527 51.123C397.848 50.3193 398.169 49.5156 398.5 48.6875C398.981 47.4529 398.981 47.4529 399.473 46.1934C401.857 40.1432 401.857 40.1432 403 39Z" fill="#EEEFF1"/>
<path d="M135.25 9.31252C135.827 9.53939 136.405 9.76627 137 10C137 10.99 137 11.98 137 13C134.566 14.7413 132.205 16.2578 129.625 17.75C128.926 18.1741 128.228 18.5982 127.508 19.0352C125.712 20.0952 123.859 21.0559 122 22C121.34 21.67 120.68 21.34 120 21C121.413 19.5594 122.831 18.1226 124.25 16.6875C125.039 15.887 125.828 15.0865 126.641 14.2617C132.24 8.89442 132.24 8.89442 135.25 9.31252Z" fill="#1A2845"/>
<path d="M191 26C191 26.66 191 27.32 191 28C191.66 28 192.32 28 193 28C193.688 30.3125 193.688 30.3125 194 33C192.812 34.875 192.812 34.875 191 36C188.026 35.7296 187.146 35.1455 185 33C185.244 30.4744 185.824 29.2147 187.438 27.25C189 26 189 26 191 26Z" fill="#1C2A47"/>
<path d="M10 17C10 20.3 10 23.6 10 27C6.7 27 3.4 27 0 27C1.14377 23.5687 2.28919 22.6215 5 20.3125C5.72188 19.6899 6.44375 19.0673 7.1875 18.4258C9 17 9 17 10 17Z" fill="#22304C"/>
<path d="M354 26C355.688 27.75 355.688 27.75 357 30C356.938 32.125 356.938 32.125 356 34C354.062 35.3125 354.062 35.3125 352 36C351.34 35.67 350.68 35.34 350 35C350 34.34 350 33.68 350 33C349.34 33 348.68 33 348 33C348.628 29.3554 349.853 26 354 26Z" fill="#162442"/>
<path d="M133 9C136 10 136 10 136 10L133 9ZM129 12C129.66 12.33 130.32 12.66 131 13C127.704 17.5514 125.392 20.1056 120 22C120.936 20.8945 121.874 19.7906 122.812 18.6875C123.335 18.0726 123.857 17.4577 124.395 16.8242C125.872 15.1458 127.4 13.5612 129 12Z" fill="#2B3853"/>
</svg>
