<svg width="790" height="133" viewBox="0 0 790 133" fill="none" xmlns="http://www.w3.org/2000/svg">
<path d="M747.855 44.336C755.604 50.3483 760.332 57.2245 762 67C762 70.96 762 74.92 762 79C745.17 79 728.34 79 711 79C713.876 87.6294 714.735 89.9083 721.5 94.8125C728.272 97.1103 736.056 97.3279 742.625 94.25C745.426 92.5952 747.361 90.8687 749 88C752.436 89.5271 755.119 91.5993 758 94C755.509 99.5047 751.783 102.656 746.363 105.273C736.756 108.89 727.003 110.098 717.388 105.895C708.857 101.713 703.386 96.7476 699.562 88.0625C696.91 79.7345 696.253 70.0382 699.141 61.711C700.584 58.9524 702.15 56.5012 704 54C704.468 53.3246 704.936 52.6491 705.418 51.9532C714.649 39.8516 734.874 36.4186 747.855 44.336Z" fill="#283441"/>
<path d="M398.273 43.6133C404.597 48.6923 406.732 54.1907 408 62C408.244 65.506 408.235 68.9907 408.195 72.5039C408.193 73.4678 408.19 74.4317 408.187 75.4248C408.176 78.4708 408.151 81.5165 408.125 84.5625C408.115 86.6412 408.106 88.72 408.098 90.7988C408.076 95.866 408.041 100.933 408 106C404.37 106 400.74 106 397 106C397 103.03 397 100.06 397 97C396.34 97 395.68 97 395 97C394.814 97.5569 394.629 98.1137 394.438 98.6875C391.822 102.895 387.693 105.173 383.313 107.312C375.606 108.912 367.923 109.072 361 105C356.801 102.006 353.074 99.2505 352 94C351.257 87.1912 351.767 81.5602 356 76C364.646 67.215 376.397 66.1498 388.141 65.9453C390.762 65.9386 393.38 65.9544 396 66C395.148 59.2189 395.148 59.2189 391.063 54C385.855 50.5991 381.079 50.1941 375 51C372.26 52.1181 369.778 53.4101 367.227 54.9062C365 56 365 56 361 56C358.25 53.5 358.25 53.5 356 51C357.302 47.093 358.731 46.7629 362.313 44.875C363.278 44.3568 364.244 43.8386 365.238 43.3047C374.128 39.1048 389.655 38.7206 398.273 43.6133Z" fill="#293542"/>
<path d="M605.438 43.6875C611.241 47.5236 614.238 51.242 616 58C616.268 61.6974 616.233 65.3806 616.195 69.086C616.193 70.1429 616.19 71.1998 616.187 72.2888C616.176 75.651 616.151 79.0129 616.125 82.375C616.115 84.6602 616.106 86.9453 616.098 89.2305C616.076 94.8204 616.041 100.41 616 106C612.37 106 608.74 106 605 106C604.505 102.04 604.505 102.04 604 98C603.13 98.8315 603.13 98.8315 602.242 99.6797C601.461 100.404 600.68 101.129 599.875 101.875C599.109 102.594 598.344 103.314 597.555 104.055C591.2 108.894 583.666 108.881 576 108C568.864 105.694 564.397 102.315 560.75 95.75C559.032 89.4493 559.292 83.5913 562.551 77.8516C568.098 70.7649 576.902 67.9842 585.469 66.6016C591.635 65.8796 597.8 65.8939 604 66C603.103 59.8519 602.123 55.9985 597 52C590.038 49.6794 583.486 50.814 577 54C576.093 54.5982 575.185 55.1963 574.25 55.8125C572 57 572 57 569.938 56.4375C567.71 54.785 565.828 53.0886 564 51C564 50.34 564 49.68 564 49C565.977 47.5625 565.977 47.5625 568.625 46C569.913 45.2266 569.913 45.2266 571.227 44.4375C581.17 39.2837 595.367 38.3939 605.438 43.6875Z" fill="#2A3643"/>
<path d="M256 42C272.5 42 289 42 306 42C306 54 306 54 303.91 57.4102C302.501 58.7231 302.501 58.7231 301.062 60.0625C300.043 61.0585 299.026 62.0572 298.012 63.0586C297.502 63.547 296.992 64.0354 296.466 64.5386C294.246 66.7514 292.324 69.1729 290.375 71.625C286.847 76.0095 283.165 80.1974 279.336 84.3203C276.061 88.0774 273.06 92.0658 270 96C282.54 96 295.08 96 308 96C308 99.3 308 102.6 308 106C290.51 106 273.02 106 255 106C255 95 255 95 256.652 92.125C257.406 91.4237 258.161 90.7225 258.938 90C259.766 89.1789 260.595 88.3577 261.449 87.5117C262.291 86.6829 263.133 85.854 264 85C265.441 83.2911 266.858 81.5613 268.25 79.8125C272.525 74.5199 276.972 69.393 281.483 64.302C282.011 63.7009 282.538 63.0998 283.082 62.4805C283.548 61.9535 284.015 61.4265 284.495 60.8835C286.496 58.3794 288.222 55.6668 290 53C278.78 53 267.56 53 256 53C256 49.37 256 45.74 256 42Z" fill="#26323F"/>
<path d="M194 42C210.17 42 226.34 42 243 42C243 54 243 54 241.348 56.9727C240.594 57.6623 239.839 58.352 239.062 59.0625C238.239 59.8682 237.415 60.6738 236.566 61.5039C235.719 62.3276 234.873 63.1513 234 64C232.475 65.8122 230.974 67.646 229.5 69.5C226.555 73.1422 223.533 76.6668 220.375 80.125C213.455 87.5311 213.455 87.5311 208 96C220.21 96 232.42 96 245 96C245 99.3 245 102.6 245 106C227.51 106 210.02 106 192 106C192 95 192 95 193.871 91.9062C194.718 91.1122 195.565 90.3181 196.438 89.5C197.81 88.1407 197.81 88.1407 199.211 86.7539C200.592 85.3907 200.592 85.3907 202 84C203.547 82.1677 205.069 80.3137 206.562 78.4375C210.113 74.0348 213.815 69.8236 217.664 65.6797C220.939 61.9226 223.94 57.9342 227 54C216.11 53.67 205.22 53.34 194 53C194 49.37 194 45.74 194 42Z" fill="#27323F"/>
<path d="M626 42.0001C630.62 42.0001 635.24 42.0001 640 42.0001C644.22 52.0381 648.278 62.1363 652.312 72.2501C652.964 73.8816 653.616 75.5131 654.268 77.1446C655.846 81.096 657.423 85.0479 659 89.0001C661.147 84.7684 662.986 80.5807 664.625 76.1251C665.142 74.7305 665.659 73.336 666.176 71.9415C666.46 71.1708 666.745 70.4001 667.038 69.606C668.952 64.4211 670.881 59.2414 672.812 54.0626C673.21 52.9896 673.607 51.9166 674.016 50.8111C674.388 49.8126 674.761 48.814 675.145 47.7852C675.478 46.8868 675.812 45.9884 676.156 45.0628C677 43.0001 677 43.0001 678 42.0001C680.02 41.9276 682.042 41.9163 684.062 41.9376C685.72 41.9511 685.72 41.9511 687.41 41.9649C688.265 41.9765 689.119 41.9881 690 42.0001C689.093 47.0309 687.95 51.3802 685.75 56.0001C683.509 60.7056 681.7 65.4567 680 70.3751C676.423 80.6966 672.657 90.8586 668.016 100.758C666.912 103.091 666.912 103.091 666 106C661.38 106 656.76 106 652 106C647.087 95.6204 642.711 85.0919 638.438 74.4376C637.463 72.0153 636.487 69.5935 635.511 67.1718C634.882 65.6124 634.255 64.0527 633.628 62.4926C631.427 57.0241 629.159 51.5886 626.832 46.1722C626 44.0001 626 44.0001 626 42.0001Z" fill="#283340"/>
<path d="M467 24C471.29 24 475.58 24 480 24C480 29.94 480 35.88 480 42C485.61 42 491.22 42 497 42C497 45.63 497 49.26 497 53C491.39 53 485.78 53 480 53C480.097 58.1782 480.2 63.3557 480.317 68.5334C480.356 70.2938 480.39 72.0542 480.422 73.8147C480.468 76.3494 480.526 78.8836 480.586 81.418C480.597 82.2015 480.609 82.985 480.621 83.7923C480.739 88.2071 481.312 90.7804 483 95C487.95 95 492.9 95 498 95C498 98.63 498 102.26 498 106C491.623 108.401 485.752 108.705 479 108C475.438 106.25 475.438 106.25 473 104C471.973 103.115 471.973 103.115 470.925 102.212C464.376 94.6882 466.767 78.7759 466.875 69.1875C466.885 67.6087 466.894 66.03 466.902 64.4512C466.924 60.634 466.958 56.817 467 53C462.71 53 458.42 53 454 53C454 49.37 454 45.74 454 42C458.29 42 462.58 42 467 42C467 36.06 467 30.12 467 24Z" fill="#2D3845"/>
<path d="M778 4C781.96 4 785.92 4 790 4C790 37.66 790 71.32 790 106C786.04 106 782.08 106 778 106C778 72.34 778 38.68 778 4Z" fill="#25313E"/>
<path d="M550 41C550 45.29 550 49.58 550 54C547.979 54.1032 545.957 54.2063 543.875 54.3125C537.008 54.8416 537.008 54.8416 531 58C526.159 64.1497 525.841 69.0878 525.684 76.7032C525.663 77.5409 525.642 78.3787 525.621 79.2419C525.555 81.9112 525.496 84.5806 525.438 87.25C525.394 89.0625 525.351 90.875 525.307 92.6875C525.2 97.1249 525.098 101.562 525 106C521.04 106 517.08 106 513 106C513 84.88 513 63.76 513 42C516.96 42 520.92 42 525 42C525.33 44.97 525.66 47.94 526 51C526.681 50.0925 527.361 49.185 528.062 48.25C534.61 40.5753 540.317 40.5648 550 41Z" fill="#26323F"/>
<path d="M323 42C327.29 42 331.58 42 336 42C336 63.12 336 84.24 336 106C331.71 106 327.42 106 323 106C323 84.88 323 63.76 323 42Z" fill="#313C49"/>
<path d="M165 42C168.96 42 172.92 42 177 42C177 63.12 177 84.24 177 106C173.04 106 169.08 106 165 106C165 84.88 165 63.76 165 42Z" fill="#25313E"/>
<path d="M396 75.0001C396.505 81.8443 396.25 87.3725 392 93.0001C387.268 96.766 383.608 98.1466 377.625 98.1876C376.221 98.2088 376.221 98.2088 374.789 98.2305C370.94 97.9125 368.075 96.9636 365.187 94.3751C363.46 90.9198 363.227 87.7292 364 84.0001C368.048 78.3072 373.697 76.6987 380.25 75.3126C385.504 74.8747 390.732 74.9222 396 75.0001Z" fill="#F8F8F9"/>
<path d="M595.438 75.875C596.678 75.8885 596.678 75.8885 597.943 75.9023C599.962 75.9257 601.981 75.9615 604 76C604.623 85.7303 604.623 85.7303 602.313 90.4375C598.335 94.8446 595.129 97.7853 589.039 98.2031C587.349 98.2263 587.349 98.2263 585.625 98.25C584.504 98.2758 583.382 98.3016 582.227 98.3281C578.656 97.965 576.834 97.1663 574 95C571.919 90.7424 571.466 87.5064 573 83C579.388 76.3082 586.552 75.6888 595.438 75.875Z" fill="#FAFBFB"/>
<path d="M742.438 52.75C748.332 57.9257 748.069 60.6244 749 69C736.46 69 723.92 69 711 69C711 62.7079 711.255 61.6325 715 57C722.616 49.3836 732.839 47.8636 742.438 52.75Z" fill="#FAFBFB"/>
<path d="M174 9.99994C176.65 11.8066 178.556 13.1123 180 15.9999C180.04 18.3329 180.043 20.667 180 22.9999C179.34 22.9999 178.68 22.9999 178 22.9999C177.711 23.6393 177.423 24.2787 177.125 24.9374C176 26.9999 176 26.9999 174 27.9999C171.667 28.0402 169.333 28.0431 167 27.9999C167 27.3399 167 26.6799 167 25.9999C166.01 25.6699 165.02 25.3399 164 24.9999C162 22.3998 162 20.8189 162 17.4999C163 13.9999 163 13.9999 165.75 11.5624C170.495 9.28103 170.495 9.28103 174 9.99994Z" fill="#2D3845"/>
<path d="M332 10.0001C334.65 11.8067 336.556 13.1125 338 16.0001C338.438 19.3126 338.438 19.3126 338 23.0001C335.12 26.2235 333.191 27.757 328.938 28.6251C324.914 27.769 323.471 26.2477 321 23.0001C319.79 19.3704 319.667 17.7724 321.188 14.2501C324.23 10.4731 327.164 9.29227 332 10.0001Z" fill="#2C3744"/>
<path d="M45.1509 24.0359C49.5129 24.9342 51.3328 26.4953 54.1509 30.0359C55.4131 33.3117 56.3359 36.6235 57.1509 40.0359C52.4731 38.6994 49.6103 36.1648 47.1509 32.0359C46.2177 29.3614 45.6814 26.833 45.1509 24.0359Z" fill="#F5F9FE"/>
<path fill-rule="evenodd" clip-rule="evenodd" d="M65.7656 1.47445C65.2772 2.40808 63.8425 4.14802 61.8868 6.1782C60.18 7.95035 58.3094 9.98027 57.7303 10.6891C54.38 14.7894 51.7842 20.0069 50.9121 24.3934C50.4059 26.9383 50.5232 26.8847 48.9084 25.3118C45.3258 21.8229 40.4581 19.513 32.8146 17.6749C30.1832 17.0423 27.2414 16.2389 26.2773 15.8899C25.2979 15.5352 24.58 15.3852 24.6506 15.5499C25.8894 18.4446 25.8238 21.4102 24.3955 27.0574C23.1921 31.8155 22.9735 35.7406 23.7164 39.2532L24.1968 41.5249L23.6624 41.3944C18.8823 40.2293 11.2833 40.7464 5.81424 42.609C3.22109 43.4922 0 44.8596 0 45.0774C0 45.1798 0.436198 45.4698 0.969041 45.7221C2.61822 46.5029 4.38575 48.0041 5.33722 49.4324C5.83776 50.1841 6.7422 52.156 7.34688 53.8145C8.66736 57.4369 9.05136 58.2174 10.3972 60.0166L11.4316 61.3996L8.66917 64.1636L5.90701 66.9276L7.21018 67.4679C9.36016 68.359 10.7972 69.5051 14.7294 73.4639C18.8436 77.6059 19.3521 78.0279 22.4386 79.8591L24.547 81.1098L22.9877 82.3574C20.5478 84.3095 19.0193 86.2564 15.6486 91.7051C13.6692 94.905 11.4652 97.6327 9.86251 98.8664C9.14051 99.4221 8.54461 99.9637 8.53867 100.07C8.53247 100.177 8.85186 100.263 9.24853 100.263C10.5419 100.263 12.9495 101.026 16.5205 102.569C18.449 103.401 20.831 104.327 21.814 104.627C23.4526 105.125 28.7469 105.709 30.5927 105.594C31.3189 105.549 31.3551 105.607 31.9303 107.739C32.2556 108.944 32.7019 110.354 32.9223 110.873L33.3226 111.817L35.2023 109.961C37.2871 107.902 39.3066 106.73 42.998 105.438C44.2622 104.996 45.3188 104.665 45.3459 104.704C45.3733 104.743 45.5462 105.641 45.7302 106.701C46.8682 113.255 50.3191 118.057 57.913 123.652C59.8474 125.078 61.8677 126.68 62.4021 127.213C63.7135 128.522 65.3291 131.06 65.5299 132.129C65.6201 132.608 65.77 133 65.8632 133C65.9563 133 66.3992 132.391 66.8478 131.647C68.1631 129.463 69.3182 128.297 72.6765 125.763C77.2039 122.346 78.8427 120.87 80.757 118.483C83.6618 114.862 85.6971 110.172 86.1754 105.999C86.2769 105.113 86.4498 104.388 86.5594 104.388C87.1896 104.388 92.4036 106.107 93.99 106.839C96.1105 107.816 98.3277 109.752 99.4107 111.573L100.12 112.765L100.323 111.219C100.435 110.368 100.845 108.463 101.235 106.985L101.943 104.297L105.173 104.354C109.136 104.424 111.098 103.975 115.658 101.956C119.152 100.408 121.141 99.7497 122.34 99.7443C122.776 99.7425 123.394 99.6711 123.712 99.5861C124.25 99.4422 124.166 99.2963 122.549 97.5621C121.591 96.5341 120.051 94.4506 119.127 92.932C118.204 91.4138 116.808 89.123 116.026 87.8416C114.531 85.3908 111.914 82.3566 110.27 81.1673L109.294 80.4612L110.761 79.624C113.44 78.0947 116.137 75.8583 119.066 72.7367C122.197 69.3989 123.557 68.4969 126.826 67.5909L128.451 67.1403L124.945 64.1012L121.439 61.0619L122.573 59.5903C123.928 57.8315 124.676 56.3981 126.073 52.8824C127.646 48.9246 129.145 47.0566 131.931 45.5821C132.564 45.247 133.044 44.8568 132.997 44.7148C132.841 44.2423 128.258 42.0896 125.678 41.2774C121.781 40.0504 118.949 39.6128 114.993 39.6259C113.074 39.6321 110.943 39.7514 110.256 39.8909C109.055 40.1353 109.013 40.1239 109.146 39.5942C110.037 36.038 109.953 31.675 108.907 27.1863C107.609 21.6164 107.43 20.3441 107.572 17.7203L107.708 15.2137L106.763 15.6177C104.688 16.5057 103.603 16.7972 100.088 17.4112C94.9965 18.3005 92.7586 18.924 90.0102 20.2188C87.0909 21.5943 85.6177 22.5836 83.5313 24.5702C82.2421 25.7977 81.9162 26.0024 81.9162 25.5848C81.9162 24.647 80.695 20.2312 79.8614 18.1544C78.337 14.3572 76.1924 11.2988 71.4705 6.18825C69.8381 4.42177 68.1194 2.30833 67.6509 1.49172C67.1824 0.675111 66.7411 0.00388333 66.67 1.68138e-05C66.5989 -0.0038497 66.1919 0.659644 65.7656 1.47445ZM71.4121 8.23802C78.5228 15.8834 81.1573 22.6181 80.7904 32.2128C80.6136 36.8394 79.5011 42.2657 78.7295 42.2657C78.5481 42.2657 77.8711 42.6 77.2253 43.0086L76.0508 43.7515L75.7392 42.042C75.0774 38.4134 72.291 34.4211 68.7895 32.0839L67.2447 31.0528L67.0899 28.604C67.0049 27.2572 66.8483 22.3854 66.7421 17.7778C66.5059 7.51653 66.2253 9.80448 66.1733 22.4176L66.139 30.795L64.5722 31.8261C61.0687 34.1318 58.0502 38.4402 57.3008 42.2038L56.9796 43.8175L55.6695 42.9369C54.4777 42.1363 54.2849 41.8618 53.5386 39.9056C52.2698 36.5788 51.9088 34.9106 51.7553 31.6635C51.5124 26.5176 52.4186 22.4227 54.8508 17.6811C56.5266 14.4136 58.4218 11.8795 62.0067 8.11223C63.5897 6.44885 65.3015 4.59112 65.8103 3.98356L66.7359 2.87928L68.0561 4.4643C68.7823 5.33607 70.2924 7.03424 71.4121 8.23802ZM31.4313 18.8171C40.5501 20.9916 44.1642 22.7367 48.4172 27.0192L50.1911 28.8056L50.4064 31.8962C50.616 34.9039 51.2847 38.1711 52.1137 40.2378C52.3383 40.7977 52.4714 41.3068 52.4093 41.3687C52.3471 41.4305 51.6059 41.3684 50.7617 41.2305C49.9177 41.0926 47.805 40.9792 46.0666 40.9784L42.906 40.9769L42.7394 41.6388C42.5812 42.2678 42.5344 42.2324 41.8021 40.9299C39.5831 36.9843 37.1212 32.9817 34.8545 29.6351C31.6558 24.9128 30.1175 23.1221 32.6404 27.0574C34.9798 30.7069 38.7216 37.0864 40.6837 40.7704L42.1525 43.5282L41.9044 45.7969C41.7677 47.0445 41.7191 48.6924 41.7961 49.4587L41.9359 50.8517L40.3648 49.5474C36.3667 46.2284 31.8646 43.6721 27.9774 42.5132L25.8499 41.879L25.3933 39.9458C25.0653 38.5572 24.9379 36.9593 24.9408 34.2749C24.9447 30.818 25.0193 30.238 25.9328 26.5517C26.6765 23.5512 26.9311 21.9745 26.9623 20.1732C26.9851 18.8573 27.0194 17.7801 27.0383 17.7793C27.0572 17.7783 29.034 18.2453 31.4313 18.8171ZM106.016 19.7755C106.094 20.8743 106.599 23.6291 107.139 25.8974C108.057 29.7575 108.118 30.2694 108.099 33.8882C108.086 36.2484 107.94 38.2927 107.724 39.1354L107.37 40.516L105.393 41.2341C101.266 42.7341 97.3553 45.2048 93.4142 48.8024L91.2485 50.7798L91.3973 49.0071C91.4927 47.8742 91.3906 46.3052 91.1149 44.6598L90.6834 42.085L91.8384 39.6022C94.1205 34.6982 97.8519 28.5398 101.578 23.5301C102.56 22.2093 103.314 21.1287 103.253 21.1287C103.192 21.1287 102.01 22.5498 100.624 24.2864C97.255 28.5109 93.8895 33.6606 91.787 37.8079L90.0614 41.2119L86.8286 41.0642C85.0505 40.983 82.9737 41.0323 82.2132 41.1741L80.8301 41.4316L81.0007 40.6242C81.7046 37.2887 81.9674 35.1926 82.0997 31.8617L82.2517 28.031L83.1871 26.953C85.211 24.6205 87.5731 22.8707 90.5278 21.5159C93.1328 20.3214 95.3441 19.7182 100.354 18.8364C102.749 18.4147 104.774 18.0041 104.855 17.9239C104.935 17.8435 105.198 17.7778 105.438 17.7778C105.798 17.7778 105.899 18.1273 106.016 19.7755ZM29.9757 23.2883C29.9757 23.3417 30.179 23.5448 30.4279 23.7394C30.8377 24.0598 30.8468 24.0508 30.5256 23.642C30.1878 23.2125 29.9757 23.0762 29.9757 23.2883ZM70.5699 34.7992C73.0569 37.2593 74.6079 40.1677 74.8523 42.83L75.011 44.5542L73.9197 45.7907C73.3194 46.4709 72.4651 47.8051 72.0209 48.756C71.3586 50.1743 71.04 50.5625 70.2451 50.92C69.2792 51.3546 69.2735 51.3536 68.0153 50.5483C67.3215 50.1042 66.6106 49.741 66.4356 49.741C66.2604 49.741 65.5914 50.1018 64.9487 50.5429L63.7805 51.3448L62.7633 50.8873C61.9403 50.5171 61.601 50.1299 60.9865 48.8609C60.5689 47.9982 59.7438 46.6622 59.1531 45.892C58.097 44.515 58.0815 44.4645 58.2127 42.8333C58.4879 39.412 61.6375 34.7755 65.2247 32.5105L66.493 31.7098L67.5499 32.2834C68.1313 32.5989 69.4903 33.731 70.5699 34.7992ZM118.817 41.2434C121.702 41.6043 125.251 42.5526 127.973 43.6901L130.229 44.6328L128.798 45.9373C126.823 47.7376 126.072 48.9171 124.553 52.605C123.052 56.2468 122.286 57.6387 121.007 59.0515L120.103 60.0494L119.163 59.3111C117.5 58.0055 115.172 56.6177 113.218 55.7681L111.314 54.9399L112.94 53.7459C115.167 52.1106 118.747 49.9121 121.841 48.2799C123.262 47.5301 124.315 46.914 124.18 46.9109C123.404 46.8934 115.023 51.3724 110.691 54.1197C110.218 54.4195 109.778 54.4086 107.719 54.0454C103.801 53.3546 102.82 53.2984 100.025 53.6052C97.2043 53.915 93.9977 54.7404 91.433 55.8171C90.574 56.1779 89.8143 56.4164 89.7448 56.3473C89.6756 56.278 90.0079 55.49 90.4836 54.596C91.0544 53.5229 92.2266 52.0892 93.9324 50.3784C100.997 43.2927 109.689 40.1017 118.817 41.2434ZM51.7822 42.4211C55.1929 43.2452 58.4944 45.9054 60.041 49.0759L60.7769 50.5844L59.8542 51.5049L58.9314 52.4254L57.6969 51.9841C57.0181 51.7412 56.2013 51.5433 55.8814 51.5441C55.3826 51.5451 55.2994 51.6827 55.2963 52.512C55.2893 54.4452 55.1356 54.6386 53.6053 54.6386C52.8486 54.6386 52.1514 54.7646 52.0561 54.9185C51.9605 55.0726 52.2305 55.5655 52.6559 56.014C53.3419 56.7378 54.0079 57.7501 54.0079 58.0694C54.0079 58.1321 53.2469 57.9078 52.3166 57.5709C50.7423 57.001 48.8397 56.7528 48.8397 57.1173C48.8397 57.2046 49.2606 57.848 49.7748 58.5471C50.5488 59.5988 51.868 62.7987 51.6222 63.0284C51.4623 63.1784 48.1347 61.0706 47.469 60.3976C46.3129 59.2286 44.4493 56.0841 43.7906 54.1906C42.5874 50.7318 42.3815 47.6982 43.1117 44.199L43.5422 42.1368L45.0927 41.9891C47.159 41.7922 49.9159 41.9703 51.7822 42.4211ZM89.0732 42.1598C89.8427 42.3134 89.8531 42.3381 90.1469 44.724C90.9526 51.2628 89.8854 55.3376 86.4035 59.0196C84.5983 60.9284 81.9935 63.05 81.7514 62.8085C81.6679 62.7253 81.7356 62.0911 81.902 61.3996C82.1891 60.2056 82.4189 59.7571 83.5755 58.1287C83.9936 57.5403 84.014 57.3933 83.7047 57.1982C83.1928 56.875 82.292 56.9087 80.5575 57.3157L79.0696 57.665L80.1053 56.5442C81.6162 54.9092 81.5178 54.5259 79.6371 54.7218L78.1334 54.8788L77.8109 53.6245C77.6336 52.9345 77.3411 52.1689 77.161 51.923C76.8498 51.4987 76.7633 51.4989 75.4689 51.9276L74.1045 52.3797L73.1876 51.4652L72.2708 50.5506L72.6987 49.4371C74.0435 45.9376 78.2752 42.8227 82.7811 42.0157C84.0975 41.7801 87.5677 41.8595 89.0732 42.1598ZM22.4817 42.6647C26.9256 43.3829 31.7285 45.2641 35.7899 47.8768C37.9461 49.2636 41.0323 51.7438 41.9378 52.8172C42.6008 53.6031 43.5862 55.8408 43.3657 56.0604C43.2988 56.1272 42.5184 55.898 41.6313 55.5513C37.8838 54.0864 35.8504 53.7359 31.1385 53.7428C27.4342 53.7482 26.3732 53.8421 24.3692 54.3411L21.9928 54.9327L19.4594 53.1146C17.2688 51.5425 10.2933 47.6765 9.65371 47.6801C9.53174 47.6806 10.7111 48.4083 12.2745 49.2971C15.4866 51.1234 18.5131 53.1332 19.994 54.4241L20.9949 55.2961L18.8139 56.3741C17.6146 56.967 15.731 58.1094 14.6284 58.9126L12.6236 60.3729L11.8833 59.5034C10.792 58.222 9.93254 56.5548 8.76659 53.4585C8.19473 51.9397 7.54301 50.3369 7.31845 49.8967C6.57862 48.4467 5.16072 46.6867 4.11209 45.9178L3.08052 45.1609L4.96433 44.4944C9.52166 42.882 12.4887 42.3304 16.7967 42.2946C18.6095 42.2796 21.1042 42.442 22.4817 42.6647ZM124.812 46.6478C124.599 46.7851 124.541 46.8975 124.683 46.8975C124.825 46.8975 125.116 46.7851 125.329 46.6478C125.542 46.5104 125.601 46.398 125.458 46.398C125.316 46.398 125.026 46.5104 124.812 46.6478ZM8.26915 47.2922C8.62446 47.4948 9.03146 47.6605 9.17359 47.6605C9.31571 47.6605 9.14128 47.4948 8.78597 47.2922C8.43065 47.0896 8.02366 46.9238 7.88153 46.9238C7.73941 46.9238 7.91383 47.0896 8.26915 47.2922ZM68.5125 51.9928C69.0743 52.4991 69.7614 53.2322 70.0397 53.6219L70.5454 54.3303L69.6699 55.6279L68.7944 56.9257L67.8223 54.6133C67.2876 53.3415 66.755 52.2421 66.6387 52.1704C66.5227 52.0988 65.9253 53.0373 65.3115 54.2558L64.1955 56.4715L63.3551 55.4284C62.3796 54.2176 62.4277 54.0318 64.1306 52.4212C66.4181 50.2581 66.5708 50.2431 68.5125 51.9928ZM62.3416 51.6464C62.9163 52.0818 62.9099 52.1831 62.2476 53.0765L61.7015 53.8134L60.8263 53.2982C60.3451 53.0151 59.9513 52.7151 59.9513 52.6321C59.9513 52.5488 60.2041 52.2122 60.5131 51.8841C61.1454 51.2128 61.6775 51.1435 62.3416 51.6464ZM72.5323 51.848C73.315 52.5816 73.2936 52.687 72.2362 53.3095L71.3423 53.8356L70.6581 53.0244L69.974 52.2135L70.5472 51.7505C71.301 51.1417 71.8049 51.1664 72.5323 51.848ZM57.6078 52.9538C58.2913 53.3064 58.3306 53.4126 58.2065 54.5648C58.1334 55.2433 58.0507 55.8274 58.0225 55.8624C57.9944 55.8975 57.4853 55.7235 56.8912 55.4758C55.8943 55.0598 55.8229 54.9659 55.9625 54.2519C56.3292 52.3766 56.3925 52.3269 57.6078 52.9538ZM77.2581 54.8984C77.262 55.1281 76.7896 55.4575 76.102 55.7042C74.9443 56.1194 74.9392 56.1187 74.9392 55.541C74.9392 55.2219 74.8665 54.5989 74.7779 54.1563C74.6316 53.4268 74.6978 53.317 75.4885 52.979L76.3604 52.6061L76.8059 53.558C77.0509 54.0813 77.2543 54.6847 77.2581 54.8984ZM60.8829 54.4452C61.5698 54.9059 62.4721 55.7691 62.8884 56.3633L63.6456 57.4436L62.869 59.7746L62.0928 62.1058L61.3855 60.4458C60.9963 59.5325 60.2821 58.2298 59.7978 57.5506C59.3138 56.8713 58.9177 56.0689 58.9177 55.7671C58.9177 54.8814 59.2244 53.6075 59.4376 53.6075C59.5459 53.6075 60.1963 53.9846 60.8829 54.4452ZM67.9248 56.8296C69.8557 62.0324 70.8046 66.1224 70.8046 69.244C70.8046 70.2516 70.6516 70.5825 69.6678 71.7043C69.0425 72.4173 68.0954 73.7435 67.5631 74.6517L66.5953 76.3024L65.6899 74.9435C65.1922 74.1959 64.2647 72.97 63.6293 72.2186C62.5936 70.9942 62.4607 70.6872 62.3468 69.2543C62.1553 66.8446 62.7148 63.064 63.6892 60.1806C64.7872 56.9314 66.3899 53.4778 66.6638 53.7709C66.7785 53.8936 67.346 55.2701 67.9248 56.8296ZM74.0184 54.279C74.3479 55.5882 73.897 57.1709 72.83 58.4497C72.2279 59.1714 71.6369 60.2669 71.3749 61.1469C71.1322 61.9617 70.8723 62.6288 70.7971 62.6291C70.7219 62.6291 70.3865 61.6553 70.0518 60.4649C69.3722 58.0475 69.4389 57.3178 70.4614 55.9771C71.0291 55.233 73.2187 53.626 73.6838 53.6124C73.7748 53.6098 73.9254 53.9096 74.0184 54.279ZM37.9864 55.7614C40.5648 56.4496 42.7585 57.2845 44.0591 58.0728C44.7154 58.4705 46.2555 60.2682 46.2555 60.6366C46.2555 60.7002 45.2961 60.818 44.1237 60.8982C39.3965 61.2214 35.1041 63.8007 32.3014 68.002L31.9137 68.583L29.4588 67.9337C25.3235 66.84 22.3789 66.4644 17.1843 66.368C12.6117 66.2832 12.4965 66.2917 15.5047 66.4941C20.1891 66.8091 24.7488 67.6107 30.3245 69.0993C31.4039 69.3875 31.4114 69.4362 30.6517 71.1873L30.2379 72.1407L32.1096 73.5394C34.7201 75.4902 36.7011 76.7154 38.6655 77.5946L40.348 78.3478L38.5931 79.8325L36.8383 81.3175L33.4717 81.2987C29.6105 81.2773 27.881 80.9049 24.6782 79.4057C21.8657 78.0893 18.9245 75.8083 15.7646 72.4936C12.7557 69.337 10.9194 67.7301 9.44595 66.964L8.426 66.4338L11.2548 63.6767C16.229 58.8283 20.6711 56.4081 26.7026 55.2608C29.5966 54.7105 34.9353 54.9474 37.9864 55.7614ZM108.791 55.6634C113.307 56.9494 117.48 59.4892 122.893 64.2469L125.28 66.3435L123.459 67.2223C121.916 67.9665 121.021 68.7181 117.605 72.1402C115.21 74.539 112.81 76.6806 111.696 77.4129C109.319 78.976 106.044 80.5063 103.881 81.0647C101.938 81.5663 97.6814 81.6436 96.5283 81.1984C95.7469 80.8966 93.0209 78.7102 93.0364 78.3978C93.0411 78.3024 93.9662 77.7732 95.0918 77.2219C96.6617 76.4532 100.288 74.0005 102.832 71.9874C102.894 71.9381 102.691 71.3754 102.38 70.7369L101.814 69.5762L102.484 69.3221C105.124 68.3209 113.281 66.6652 117.577 66.2585L119.773 66.0507L117.18 66.0154C113.157 65.961 107.456 66.7704 102.977 68.0319L101.168 68.5413L100.78 67.9842C97.5674 63.3676 93.1432 60.825 88.3223 60.825C87.3571 60.825 86.5676 60.7211 86.5676 60.594C86.5676 60.087 88.584 58.644 90.5557 57.7403C93.0956 56.5759 95.482 55.7699 97.8408 55.2799C100.454 54.737 106.251 54.9401 108.791 55.6634ZM57.0618 56.6035C58.7882 57.4426 59.9356 58.9554 60.9475 61.7272C61.663 63.6865 61.6938 63.9412 61.5643 66.8331C61.4896 68.507 61.3498 69.7829 61.254 69.6685C61.1578 69.554 60.9369 68.7062 60.7627 67.7847C60.2852 65.2586 59.1456 63.1717 57.0023 60.8982C55.7157 59.5336 55.048 58.603 54.9157 57.9895C54.8084 57.4933 54.5487 56.7515 54.3384 56.3411L53.9559 55.5949L54.8216 55.7653C55.2979 55.8588 56.3059 56.2362 57.0618 56.6035ZM78.4295 57.058C78.085 57.7369 77.2731 58.7577 76.6255 59.3263C75.0203 60.7358 74.2854 62.0893 73.6505 64.8062C73.3543 66.0724 72.8636 67.5099 72.5597 68.0005L72.0072 68.8921L71.7726 68.274C71.6436 67.934 71.5245 66.7279 71.5077 65.5937C71.4385 60.8974 73.5784 57.5941 77.607 56.179C78.3411 55.921 78.9675 55.7356 78.999 55.7668C79.0303 55.7983 78.7742 56.3793 78.4295 57.058ZM52.5814 58.6484C53.9179 59.2054 56.3956 61.2075 57.4259 62.5629C58.5626 64.0584 59.6601 66.3526 59.8772 67.6868C60.0477 68.7343 59.996 68.7328 58.5146 67.6422C58.0799 67.322 56.7251 66.4714 55.5038 65.752C53.1616 64.3719 52.498 63.5207 52.0649 61.3405C51.9662 60.8443 51.6083 59.8798 51.2692 59.1972L50.6532 57.9563L51.2098 58.1326C51.5158 58.2295 52.1331 58.4615 52.5814 58.6484ZM82.3767 58.1829C81.5594 59.7741 81.0444 61.1392 80.7873 62.3966L80.4728 63.9339L78.3168 65.2266C77.131 65.9378 75.6451 66.8733 75.0149 67.3058C74.3849 67.7383 73.8275 68.0505 73.7763 67.9994C73.6737 67.8974 74.5342 64.6562 75.1063 62.9905C75.772 61.0508 77.7979 59.1577 80.0769 58.3455C81.1053 57.9787 82.5336 57.8779 82.3767 58.1829ZM90.3901 62.0051C93.2899 62.5971 95.4394 63.7293 97.4312 65.7141C99.614 67.8889 101.727 71.0628 101.371 71.6314C100.942 72.3173 97.0891 75.0994 95.2014 76.0864C91.941 77.791 90.2107 78.2166 86.5676 78.2099C83.6171 78.2045 83.131 78.1328 80.9519 77.3827C79.6396 76.9311 77.9153 76.2336 77.1201 75.8322L75.6741 75.103L77.5328 73.7242C78.5551 72.9661 79.9187 71.6384 80.5632 70.7741C81.7346 69.2027 83.6259 65.4754 84.2381 63.5316C84.6588 62.1958 84.7169 62.1435 86.0694 61.8787C87.7667 61.5465 88.208 61.5594 90.3901 62.0051ZM47.7716 62.1927C48.5585 62.4711 48.7089 62.6982 49.3405 64.5626C50.8188 68.9253 52.9375 71.9789 55.7793 73.8423C56.6442 74.4094 57.3197 74.9893 57.2804 75.1311C57.146 75.6152 53.6239 77.2925 51.5775 77.8467C47.5336 78.9422 42.5623 78.4396 38.7244 76.5475C36.3765 75.3897 31.5261 72.1206 31.5261 71.6958C31.5261 70.7882 33.359 68.0175 35.1439 66.227C37.2747 64.0891 39.3474 62.8495 41.768 62.2649C43.6306 61.8153 46.6029 61.7795 47.7716 62.1927ZM54.8219 66.7049C56.0087 67.256 57.6928 68.2461 58.5647 68.9052C60.3723 70.2714 64.243 74.2617 64.9405 75.4773L65.4072 76.2911H64.7877C64.4472 76.2911 63.2719 76.0624 62.176 75.7828C57.3959 74.5633 53.4965 71.4033 51.338 67.0003C50.6808 65.6597 50.0648 64.2146 49.9692 63.7893C49.7999 63.0364 49.833 63.0513 51.2297 64.3595C52.1401 65.2122 53.4525 66.0693 54.8219 66.7049ZM82.6917 64.9488C80.6281 70.1711 77.8892 73.1522 73.445 75.0125C71.7723 75.7129 68.5399 76.4403 67.959 76.247C67.5672 76.1168 69.5172 73.179 71.1413 71.4528C72.6672 69.8306 75.5105 67.8824 78.1693 66.6371C79.1642 66.1714 80.6177 65.3161 81.3994 64.7366C82.1811 64.1574 82.9062 63.6782 83.0106 63.6718C83.1153 63.6656 82.9716 64.2402 82.6917 64.9488ZM59.2577 75.8103C59.5681 75.9714 59.8624 76.1372 59.9115 76.1789C60.0717 76.3148 58.3228 78.7079 57.1197 79.9998C56.4741 80.6927 54.6668 82.2161 53.1034 83.3851C48.643 86.7201 44.8407 90.6998 41.1633 95.8814C39.3495 98.4369 37.6647 101.037 37.8218 101.037C37.882 101.037 38.9019 99.732 40.0881 98.1369C44.6459 92.0087 48.8479 87.6295 53.4869 84.1741C54.835 83.1701 56.1142 82.2174 56.3294 82.0568C56.6739 81.8006 56.7212 82.1282 56.722 84.7634C56.7227 87.662 56.7556 87.8391 57.7114 90.0816C59.1973 93.568 59.2668 93.1692 56.7067 95.8526C53.1822 99.5469 49.8162 101.586 43.6714 103.749C38.988 105.398 37.2001 106.267 35.3793 107.778L33.8474 109.05L33.565 108.33C33.4094 107.934 33.0448 106.508 32.7546 105.161C32.1158 102.196 32.0052 96.2508 32.5344 93.3218C33.4986 87.9857 35.8842 83.8009 39.9103 80.3831C41.4948 79.0381 41.8347 78.8556 42.5086 78.9891C42.935 79.0734 44.563 79.2093 46.1263 79.291C48.4885 79.4142 49.357 79.3469 51.2648 78.893C53.7438 78.3027 56.2584 77.2082 57.4964 76.18C58.3905 75.4376 58.496 75.4154 59.2577 75.8103ZM77.1263 76.8123C81.2601 78.8757 85.5562 79.6405 89.69 79.0489C91.1265 78.8432 91.1394 78.8476 92.7178 80.031C94.4388 81.3214 96.8816 84.1811 98.146 86.3853C100.318 90.1721 101.375 95.9363 100.845 101.103C100.547 104.015 99.6866 107.902 99.2432 108.344C99.0982 108.489 98.5693 108.207 97.8902 107.624C96.3994 106.345 93.2411 104.863 89.927 103.889C85.7942 102.674 83.9076 101.886 81.7188 100.461C79.5179 99.028 76.4204 96.1665 75.0314 94.2822L74.1376 93.0699L75.1676 90.9312C76.3989 88.3752 76.8612 86.087 76.6281 83.7019C76.5348 82.7451 76.5527 81.963 76.6677 81.9643C77.0059 81.9676 82.9011 86.9766 85.1035 89.1318C87.7385 91.71 91.195 95.6922 93.2556 98.5235C94.1585 99.7642 94.9484 100.779 95.0115 100.779C95.1758 100.779 94.9515 100.42 93.0775 97.6858C89.32 92.2028 83.8587 86.3865 78.8231 82.5038C76.7591 80.9126 75.7604 79.9207 74.6128 78.3225C73.7853 77.1701 73.1422 76.2006 73.1838 76.1684C73.375 76.0194 74.3058 75.5327 74.413 75.5255C74.4787 75.5214 75.6997 76.1003 77.1263 76.8123ZM62.7062 76.9355C64.6446 77.4392 68.0391 77.4281 70.3193 76.9107C72.3853 76.4421 72.0602 76.2609 73.8347 78.8687C75.1472 80.7971 75.6966 82.5022 75.7028 84.6685C75.7157 89.0055 73.2876 93.5386 69.1872 96.8331C66.6811 98.8465 66.716 98.8388 65.0965 97.7544C61.2881 95.2038 58.1962 90.5784 57.6812 86.6606C57.4047 84.5574 57.7352 81.9457 58.4843 80.3138C59.1407 78.8834 60.7087 76.5772 61.0369 76.5589C61.1366 76.5535 61.8879 76.7228 62.7062 76.9355ZM108.691 81.7459C111.472 83.8246 113.597 86.4863 116.889 92.0149C118.113 94.0706 119.515 96.2719 120.004 96.9066C120.494 97.5412 120.844 98.1415 120.783 98.2403C120.722 98.339 120.063 98.621 119.318 98.8669C118.574 99.1128 116.74 99.8647 115.243 100.537C110.738 102.563 109.148 102.96 105.518 102.965C103.789 102.968 102.335 102.912 102.288 102.841C102.24 102.77 102.238 100.848 102.283 98.5684L102.365 94.4245L104.609 95.0231C107.389 95.7647 115.362 97.4363 115.968 97.4046C116.213 97.3917 114.495 96.8872 112.15 96.2838C107.474 95.08 102.569 93.6151 102.267 93.3318C102.161 93.2326 101.833 92.2286 101.538 91.1009C100.991 89.0096 99.4096 85.5589 98.3566 84.1576C97.2186 82.6435 97.2116 82.6608 98.8734 82.8479C100.785 83.0634 103.683 82.6546 105.91 81.8558C108.065 81.0827 107.818 81.0925 108.691 81.7459ZM29.7173 82.3734C30.9253 82.5713 32.6985 82.7337 33.658 82.7342C34.6175 82.7347 35.4023 82.801 35.4023 82.8814C35.4023 82.9616 35.1136 83.4049 34.7607 83.8663C33.7632 85.1712 32.3626 88.3984 31.6639 91.0027C31.3145 92.3049 30.9953 93.3983 30.9545 93.4326C30.9134 93.4669 29.8061 93.9157 28.4934 94.4297C25.6046 95.561 20.001 97.2685 17.2115 97.8673C16.0892 98.108 15.2902 98.3449 15.4357 98.3931C15.9478 98.5635 24.4563 96.6034 27.5435 95.6038C29.2614 95.0475 30.715 94.5928 30.7736 94.5931C30.832 94.5934 30.8915 96.7393 30.9052 99.3618L30.9302 104.13L28.8379 104.128C24.8648 104.124 22.0928 103.443 17.3135 101.294C15.8212 100.624 13.9867 99.8748 13.2368 99.6307L11.8737 99.1865L12.6619 98.2428C14.7279 95.769 15.8507 94.2054 17.7813 91.1127C20.4178 86.8897 22.2045 84.726 24.455 83.0312C25.8615 81.9718 26.3623 81.7282 26.8747 81.8542C27.23 81.9416 28.5092 82.1751 29.7173 82.3734ZM61.0553 95.4744C61.5806 96.1013 63.0158 97.3669 64.2446 98.2869L66.479 99.9596L67.8018 99.1502C68.5295 98.705 70.0467 97.4368 71.1731 96.3315C72.2995 95.2264 73.3021 94.4122 73.4014 94.522C73.5006 94.6318 74.2942 95.5561 75.165 96.5764L76.748 98.431L76.7462 100.443C76.7442 102.648 76.0997 105.674 75.0903 108.216C74.0962 110.72 71.2945 115.894 69.1792 119.133C66.9253 122.585 66.862 122.689 67.0217 122.689C67.0897 122.689 67.9083 121.652 68.8409 120.385C74.6794 112.45 77.5375 106.575 77.9548 101.649C78.0434 100.603 78.1605 99.7479 78.2148 99.7479C78.2693 99.7479 78.9158 100.223 79.6518 100.803C80.388 101.383 81.8749 102.302 82.9563 102.845L84.9229 103.831L84.7334 105.599C83.9784 112.649 80.156 118.459 72.6135 124.02C70.979 125.225 68.8634 127.038 67.9119 128.049L66.1824 129.886L65.596 128.93C64.5164 127.169 62.4357 125.216 58.5301 122.299C56.3982 120.706 53.9404 118.658 53.068 117.748C51.1382 115.734 49.142 112.737 48.2507 110.517C47.6523 109.025 46.7724 105.48 46.7724 104.56C46.7724 104.356 47.7337 103.734 48.9482 103.153C50.1449 102.58 51.9894 101.529 53.0468 100.817L54.9699 99.5227L55.1172 101.504C55.3526 104.674 56.1793 107.299 58.2561 111.476C59.9268 114.836 65.8555 124.619 66.0832 124.392C66.1281 124.347 65.2172 122.641 64.059 120.6C59.5994 112.743 57.2514 107.301 56.6044 103.321C56.3064 101.491 56.2778 99.0775 56.5455 98.4042C56.747 97.8979 59.7306 94.3348 59.9531 94.3348C60.034 94.3348 60.5302 94.8478 61.0553 95.4744ZM116.753 97.6041C116.94 97.6786 117.163 97.6693 117.249 97.5837C117.334 97.4981 117.182 97.4373 116.909 97.4484C116.608 97.4608 116.547 97.5219 116.753 97.6041ZM118.045 97.8619C118.232 97.9364 118.455 97.9271 118.541 97.8415C118.626 97.7559 118.474 97.6951 118.202 97.7062C117.9 97.7185 117.839 97.7796 118.045 97.8619ZM119.337 98.1196C119.524 98.1941 119.747 98.1848 119.833 98.0993C119.918 98.0137 119.766 97.9529 119.494 97.9639C119.193 97.9763 119.131 98.0374 119.337 98.1196ZM14.148 98.6297C14.3258 98.7014 14.6165 98.7014 14.794 98.6297C14.9718 98.5583 14.8263 98.4998 14.471 98.4998C14.1157 98.4998 13.9705 98.5583 14.148 98.6297ZM13.1306 98.8929C13.3169 98.9674 13.54 98.9581 13.6257 98.8726C13.7115 98.787 13.5591 98.7262 13.2867 98.7372C12.9857 98.7496 12.9244 98.8107 13.1306 98.8929Z" fill="black"/>
</svg>
