<svg width="515" height="48" viewBox="0 0 515 48" fill="none" xmlns="http://www.w3.org/2000/svg">
<path fill-rule="evenodd" clip-rule="evenodd" d="M0.269005 23.25L0.537003 46.5L10.037 46.431C24.528 46.325 31.024 42.056 31.033 32.632C31.036 29.492 30.33 28.058 27.276 25.003C23.556 21.284 23.534 21.215 25.302 18.847C27.632 15.727 28.471 10.21 27.143 6.75C25.217 1.737 20.765 0.00800162 9.769 0.00400162L0 0L0.269005 23.25ZM276.269 23.25L276.537 46.5L285.037 46.489C295.463 46.475 298.054 45.802 302.409 41.979C308.494 36.635 307.829 27.276 301.07 23.167C298.321 21.494 298.157 21.145 299.576 19.967C303.643 16.592 305.034 10.425 302.684 6.19C300.004 1.36 296.321 0.014 285.769 0.00699997L276 0L276.269 23.25ZM19.402 6.073C22.953 8.865 23.081 14.671 19.662 17.882C17.7 19.726 16.354 20.06 11.912 19.807L6.537 19.5L6.245 11.75L5.953 4H11.36C15.316 4 17.474 4.556 19.402 6.073ZM295.582 6.455C297.13 8.002 298.037 10.052 298.037 12C298.037 17.106 294.255 20 287.582 20H282.037V12V4H287.582C292.137 4 293.567 4.439 295.582 6.455ZM44.037 30.031V47.062L56.287 46.781C68.132 46.509 68.548 46.426 68.857 44.25C69.17 42.044 68.979 42 59.052 42H48.927L49.232 37.25L49.537 32.5L57.028 32C63.05 31.598 64.582 31.166 64.843 29.793C65.122 28.321 64.091 28.046 57.352 27.793L49.537 27.5L49.232 22.75L48.927 18H57.923C67.031 18 68.535 17.461 67.433 14.59C66.925 13.265 64.922 13 55.43 13H44.037V30.031ZM81.037 30.03V47.06L93.787 46.78C106.15 46.508 106.547 46.432 106.857 44.25C107.17 42.044 106.977 42 97.107 42H87.037V27.5V13H84.037H81.037V30.03ZM118.263 29.75L118.537 46.5L131.287 46.78L144.037 47.06V44.53V42H134.037H124.037V27.5V13H121.013H117.989L118.263 29.75ZM155.263 29.75L155.537 46.5H168.037C179.87 46.5 180.537 46.393 180.537 44.5C180.537 42.656 179.775 42.478 170.787 42.214L161.037 41.928V36.964V32H168.537C175.37 32 176.037 31.822 176.037 30C176.037 28.178 175.37 28 168.537 28H161.037V23.039V18.078L169.787 17.789C177.998 17.518 178.557 17.361 178.857 15.25C179.173 13.023 179.052 13 167.082 13H154.989L155.263 29.75ZM218.918 14.007C215.865 15.791 214.782 20.231 216.315 24.681C217.654 28.567 217.607 28.797 214.868 31.864C211.908 35.176 211.186 39.542 213.029 42.986C215.263 47.159 225.346 47.909 230.919 44.316C233.115 42.901 233.613 42.955 237.282 45.017C240.549 46.854 241.418 47.008 242.134 45.877C243.546 43.647 243.22 43.055 239.636 41.346L236.234 39.724L238.132 36.612C240.467 32.783 240.674 28 238.506 28C237.663 28 236.721 28.787 236.412 29.75C234.823 34.695 233.707 37 232.901 37C232.41 37 230.327 35.445 228.272 33.544L224.537 30.089L228.787 25.929C233.396 21.419 234.334 17.44 231.466 14.571C229.71 12.816 221.582 12.45 218.918 14.007ZM319.644 14.582C319.31 15.452 319.037 22.39 319.037 30C319.037 37.61 319.31 44.548 319.644 45.418C320.15 46.738 322.222 47 332.144 47H344.037V44.5C344.037 42.009 344.004 42 334.537 42H325.037V37V32H332.537C339.37 32 340.037 31.822 340.037 30C340.037 28.178 339.37 28 332.537 28H325.037V23V18H334.037C342.97 18 343.037 17.981 343.037 15.5V13H331.644C322.178 13 320.148 13.267 319.644 14.582ZM353.556 15.669C354.518 17.137 357.72 21.747 360.671 25.912C365.895 33.286 366.037 33.666 366.037 40.313C366.037 46.82 366.142 47.124 368.287 46.82C370.34 46.528 370.563 45.89 370.838 39.523C371.003 35.685 371.716 31.86 372.421 31.023C373.127 30.185 376.285 25.787 379.439 21.25L385.175 13L381.856 13.004C378.808 13.008 378.122 13.653 373.455 20.905L368.373 28.802L363.455 20.916C358.903 13.616 358.287 13.029 355.172 13.015L351.807 13L353.556 15.669ZM402.038 14.123C395.978 16.54 391.83 22.91 391.746 29.929C391.518 48.913 418.751 53.408 425.585 35.515C428.551 27.746 424.902 18.062 417.725 14.656C413.887 12.835 405.945 12.565 402.038 14.123ZM440.037 30.07V47.139L442.287 46.82C444.505 46.505 444.532 46.322 444.174 34.129C443.943 26.228 444.17 21.892 444.802 22.129C445.347 22.333 449.895 28.013 454.91 34.75C462.338 44.729 464.492 47 466.532 47H469.037V30V13H466.421H463.805L464.171 24.989C464.372 31.583 464.186 36.992 463.758 37.011C463.329 37.029 458.944 31.634 454.013 25.022C446.721 15.246 444.578 13 442.542 13H440.037V30.07ZM485.037 30.012V47.297L493.711 46.685C503.923 45.964 510.375 42.764 513.285 36.977C515.597 32.381 515.529 25.319 513.136 21.395C509.754 15.849 505.004 13.772 494.435 13.219L485.037 12.727V30.012ZM227.842 19.134C228.062 21.027 227.389 22.365 225.451 23.889C222.194 26.451 220.037 25.271 220.037 20.927C220.037 15.76 227.259 14.101 227.842 19.134ZM414.847 19.026C423.3 24.179 422.498 37.82 413.521 41.571C400.926 46.834 391.47 28.545 402.143 19.564C405.86 16.437 410.293 16.249 414.847 19.026ZM505.54 21.003C514.283 29.216 508.043 41.994 495.287 41.998L491.037 42V29.88V17.76L497.023 18.193C501.564 18.521 503.621 19.2 505.54 21.003ZM21.139 26.282C23.417 27.812 24.645 29.5 24.865 31.403C25.728 38.87 21.953 42 12.087 42H6.037V33.667C6.037 29.083 6.337 25.033 6.704 24.667C7.07 24.3 9.704 24 12.556 24C16.296 24 18.688 24.636 21.139 26.282ZM294.918 25.108C300.944 27.209 302.621 35.352 297.907 39.618C296.484 40.906 293.851 41.558 288.964 41.834L282.037 42.226V33.113V24H286.888C289.556 24 293.169 24.499 294.918 25.108ZM228.608 40.5C228.275 41.968 220.128 42.321 218.463 40.939C216.561 39.36 216.653 35.527 218.642 33.538C220.115 32.065 220.599 32.244 224.541 35.717C226.902 37.798 228.733 39.95 228.608 40.5Z" fill="black"/>
</svg>
