<svg width="154" height="100" viewBox="0 0 154 100" fill="none" xmlns="http://www.w3.org/2000/svg">
<g clip-path="url(#clip0_55_41)">
<path d="M97.9 68.8645C100.433 68.8569 102.967 68.8493 105.577 68.8416C106.378 68.8382 107.178 68.8349 108.003 68.8315C108.979 68.8298 108.979 68.8298 109.436 68.8295C109.755 68.8289 110.075 68.8276 110.394 68.8258C110.878 68.8231 111.361 68.8227 111.845 68.8229C111.988 68.8216 112.131 68.8202 112.278 68.8189C113.258 68.8227 113.258 68.8227 113.667 69.2308C113.667 70.4395 113.667 71.6483 113.667 72.8938C109.916 72.9542 106.165 73.0146 102.3 73.0769C102.3 74.4066 102.3 75.7363 102.3 77.1062C102.931 77.1173 103.562 77.1284 104.212 77.1398C104.821 77.1511 105.43 77.1628 106.04 77.1744C106.464 77.1824 106.888 77.19 107.313 77.1973C107.921 77.2078 108.53 77.2195 109.139 77.2314C109.425 77.236 109.425 77.236 109.717 77.2407C109.893 77.2443 110.069 77.248 110.251 77.2518C110.406 77.2546 110.562 77.2575 110.722 77.2604C111.1 77.2894 111.1 77.2894 111.467 77.4725C111.472 78.0792 111.475 78.6859 111.478 79.2926C111.48 79.4657 111.481 79.6389 111.483 79.8173C111.483 79.982 111.484 80.1467 111.485 80.3163C111.486 80.4689 111.486 80.6214 111.487 80.7785C111.467 81.1355 111.467 81.1355 111.283 81.3187C111.002 81.3411 110.72 81.3512 110.438 81.3563C110.258 81.3599 110.078 81.3636 109.893 81.3673C109.697 81.3704 109.502 81.3735 109.3 81.3766C109.101 81.3804 108.902 81.3842 108.697 81.3882C108.058 81.4002 107.419 81.4109 106.78 81.4217C106.348 81.4296 105.916 81.4376 105.484 81.4457C104.423 81.4655 103.361 81.4836 102.3 81.5018C102.3 82.9524 102.3 84.4029 102.3 85.8974C106.051 85.9579 109.802 86.0183 113.667 86.0806C113.667 87.3498 113.667 88.619 113.667 89.9267C108.464 89.9267 103.261 89.9267 97.9 89.9267C97.9 82.9762 97.9 76.0256 97.9 68.8645Z" fill="#F7F7F7"/>
<path d="M78.1 68.8645C82.1327 68.8588 82.1327 68.8588 86.2469 68.853C87.0971 68.8513 87.9472 68.8497 88.8232 68.848C89.8581 68.8471 89.8581 68.8471 90.3419 68.847C90.6812 68.8467 91.0205 68.8461 91.3599 68.8451C91.8726 68.8438 92.3853 68.8436 92.898 68.8437C93.0502 68.843 93.2024 68.8424 93.3593 68.8417C94.3958 68.8436 94.3958 68.8436 94.6 69.0476C94.6181 69.318 94.624 69.5893 94.6244 69.8603C94.6246 70.0242 94.6248 70.188 94.6251 70.3569C94.6244 70.5292 94.6237 70.7015 94.6229 70.8791C94.6236 71.0515 94.6243 71.2238 94.6251 71.4014C94.6248 71.5652 94.6246 71.7291 94.6244 71.8979C94.6241 72.0492 94.6239 72.2006 94.6237 72.3565C94.6 72.7106 94.6 72.7106 94.4167 72.8938C94.0512 72.9164 93.6849 72.9264 93.3188 72.9314C93.0839 72.935 92.849 72.9387 92.607 72.9424C92.3487 72.9456 92.0904 72.9486 91.8321 72.9517C91.5693 72.9555 91.3065 72.9593 91.0437 72.9633C90.3508 72.9734 89.6579 72.9824 88.965 72.9912C88.2584 73.0004 87.5518 73.0106 86.8452 73.0208C85.4579 73.0405 84.0706 73.059 82.6833 73.0769C82.6228 74.6483 82.5623 76.2198 82.5 77.8388C83.239 77.8367 83.978 77.8346 84.7394 77.8324C85.3271 77.8312 85.9149 77.8302 86.5027 77.8293C87.1239 77.8284 87.7452 77.8271 88.3664 77.825C89.0786 77.8226 89.7908 77.8217 90.5029 77.8209C90.7266 77.82 90.9502 77.819 91.1806 77.8181C91.4889 77.8181 91.4889 77.8181 91.8034 77.818C92.0764 77.8174 92.0764 77.8174 92.3549 77.8168C92.7667 77.8388 92.7667 77.8388 92.95 78.022C92.9681 78.2924 92.974 78.5637 92.9744 78.8347C92.9746 78.9985 92.9748 79.1624 92.9751 79.3312C92.9744 79.5036 92.9737 79.6759 92.9729 79.8535C92.9736 80.0258 92.9743 80.1982 92.9751 80.3757C92.9748 80.5396 92.9746 80.7034 92.9744 80.8722C92.9741 81.0236 92.9739 81.1749 92.9737 81.3308C92.95 81.685 92.95 81.685 92.7667 81.8681C92.446 81.8853 92.1246 81.8896 91.8034 81.8889C91.5979 81.8889 91.3923 81.8889 91.1806 81.8889C90.8451 81.8875 90.8451 81.8875 90.5029 81.886C90.2753 81.8858 90.0477 81.8855 89.8132 81.8852C89.2071 81.8844 88.601 81.8827 87.9948 81.8807C87.3767 81.8788 86.7586 81.878 86.1405 81.8771C84.927 81.8752 83.7135 81.8716 82.5 81.8681C82.5 84.5275 82.5 87.1868 82.5 89.9267C81.048 89.9267 79.596 89.9267 78.1 89.9267C78.1 82.9762 78.1 76.0256 78.1 68.8645Z" fill="#F7F7F7"/>
<path d="M52.0838 68.8401C52.2727 68.8399 52.4615 68.8397 52.656 68.8394C52.9542 68.8405 52.9542 68.8405 53.2583 68.8416C53.4571 68.8409 53.6558 68.8401 53.8606 68.8394C54.0494 68.8397 54.2383 68.8399 54.4328 68.8401C54.6946 68.8404 54.6946 68.8404 54.9617 68.8408C55.3667 68.8645 55.3667 68.8645 55.55 69.0476C55.573 69.5714 55.5841 70.0911 55.5876 70.6152C55.5895 70.7795 55.5913 70.9439 55.5931 71.1133C55.599 71.6593 55.6035 72.2053 55.608 72.7514C55.6118 73.1289 55.6156 73.5064 55.6195 73.8839C55.6297 74.8797 55.6387 75.8754 55.6476 76.8711C55.6584 78.0647 55.6705 79.2583 55.6825 80.4519C55.7004 82.267 55.7167 84.0822 55.7333 85.8974C58.9398 85.9579 62.1463 86.0183 65.45 86.0806C65.45 87.3498 65.45 88.619 65.45 89.9267C63.5887 89.9309 61.7274 89.9342 59.866 89.9362C59.0018 89.9372 58.1376 89.9385 57.2734 89.9405C56.4402 89.9425 55.6069 89.9436 54.7736 89.9441C54.455 89.9444 54.1363 89.9451 53.8177 89.9461C53.373 89.9474 52.9282 89.9476 52.4835 89.9475C52.3504 89.9482 52.2174 89.9488 52.0803 89.9495C51.1709 89.9476 51.1709 89.9476 50.9667 89.7436C50.9487 89.4752 50.9435 89.206 50.9434 88.9371C50.9429 88.763 50.9423 88.5888 50.9418 88.4094C50.9422 88.2169 50.9426 88.0243 50.9429 87.8259C50.9426 87.6243 50.9423 87.4227 50.942 87.215C50.9412 86.5449 50.9417 85.8749 50.9423 85.2049C50.9422 84.7416 50.942 84.2783 50.9418 83.815C50.9415 82.8425 50.9419 81.87 50.9428 80.8975C50.9438 79.7718 50.9434 78.646 50.9424 77.5202C50.9415 76.4392 50.9416 75.3581 50.9421 74.277C50.9423 73.8161 50.9421 73.3551 50.9417 72.8942C50.9412 72.2512 50.9419 71.6083 50.9429 70.9653C50.9426 70.7727 50.9422 70.5802 50.9418 70.3818C50.9423 70.2076 50.9428 70.0335 50.9434 69.8541C50.9434 69.7019 50.9435 69.5497 50.9436 69.3928C50.9914 68.6773 51.4771 68.8409 52.0838 68.8401Z" fill="#F4F5F5"/>
<path d="M70.0219 68.8158C70.2906 68.8151 70.2906 68.8151 70.5647 68.8144C70.7523 68.8158 70.94 68.8172 71.1333 68.8187C71.321 68.8173 71.5086 68.8159 71.7019 68.8144C71.8811 68.8149 72.0602 68.8153 72.2448 68.8158C72.4095 68.8162 72.5742 68.8166 72.7439 68.8171C73.15 68.8645 73.15 68.8645 73.5167 69.2308C73.5618 69.5991 73.5618 69.5991 73.5607 70.0605C73.5613 70.2352 73.5618 70.4098 73.5623 70.5897C73.561 70.7819 73.5596 70.9742 73.5583 71.1722C73.5583 71.3741 73.5584 71.576 73.5584 71.784C73.5582 72.454 73.5553 73.1239 73.5525 73.7938C73.5518 74.2573 73.5513 74.7208 73.5509 75.1842C73.5496 76.2811 73.5467 77.3779 73.5431 78.4748C73.539 79.7234 73.5369 80.972 73.5351 82.2206C73.5313 84.7893 73.5248 87.358 73.5167 89.9267C72.7566 89.932 71.9965 89.9353 71.2364 89.9382C70.9108 89.9405 70.9108 89.9405 70.5787 89.9428C70.3725 89.9434 70.1663 89.944 69.9538 89.9446C69.6672 89.9461 69.6672 89.9461 69.3749 89.9475C68.9333 89.9267 68.9333 89.9267 68.75 89.7436C68.7317 89.478 68.726 89.2115 68.7255 88.9453C68.7247 88.773 68.7239 88.6006 68.7231 88.4231C68.7232 88.2325 68.7233 88.042 68.7234 87.8456C68.7227 87.6461 68.7221 87.4466 68.7215 87.241C68.7197 86.5778 68.7194 85.9146 68.7192 85.2514C68.7186 84.7926 68.718 84.3339 68.7173 83.8751C68.7162 82.912 68.7159 81.949 68.716 80.9859C68.7161 79.8715 68.7142 78.7572 68.7113 77.6429C68.7086 76.5724 68.708 75.5019 68.7081 74.4314C68.7078 73.9752 68.707 73.519 68.7056 73.0628C68.7038 72.426 68.7043 71.7893 68.7055 71.1525C68.7044 70.9623 68.7034 70.7721 68.7023 70.5761C68.7031 70.4032 68.7039 70.2304 68.7047 70.0523C68.7046 69.9016 68.7045 69.7509 68.7044 69.5957C68.8059 68.784 69.3348 68.8175 70.0219 68.8158Z" fill="#F1F3F3"/>
<path d="M65.45 18.6355C66 18.6813 66 18.6813 66.3667 19.0476C66.3667 19.2289 66.3667 19.4103 66.3667 19.5971C66.2457 19.5971 66.1247 19.5971 66 19.5971C65.9776 19.7793 65.9551 19.9616 65.932 20.1494C65.8273 20.8822 65.6405 21.5872 65.4386 22.2985C65.1712 23.2217 65.1712 23.2217 65.0833 24.1758C65.2511 24.1848 65.4189 24.1938 65.5918 24.203C65.9186 24.2235 65.9186 24.2235 66.2521 24.2445C66.5775 24.2636 66.5775 24.2636 66.9095 24.2831C67.4667 24.359 67.4667 24.359 67.8333 24.7253C67.8677 25.2862 67.8677 25.2862 67.8333 25.8242C67.65 26.0073 67.65 26.0073 66.9503 26.0252C66.6603 26.024 66.3703 26.0218 66.0802 26.0188C65.9324 26.0179 65.7846 26.0171 65.6323 26.0163C65.266 26.0141 64.8996 26.0108 64.5333 26.0073C64.5103 26.997 64.4939 27.9865 64.483 28.9764C64.4784 29.3117 64.4722 29.647 64.4642 29.9823C64.3982 32.8133 64.6467 35.3606 66.3667 37.7289C66.7333 38.2784 66.7333 38.2784 66.6646 38.7706C66.6268 38.9104 66.589 39.0501 66.55 39.1941C66.187 39.1941 65.824 39.1941 65.45 39.1941C65.45 39.0733 65.45 38.9524 65.45 38.8278C65.3385 38.8099 65.2269 38.792 65.112 38.7735C64.4993 38.5739 64.342 38.1921 64.0263 37.6538C63.3255 36.1849 62.892 34.5376 62.8253 32.9119C62.8177 32.7331 62.81 32.5543 62.8021 32.37C62.7949 32.1855 62.7876 32.001 62.7802 31.8109C62.7723 31.6228 62.7644 31.4348 62.7562 31.2411C62.7368 30.7786 62.7181 30.316 62.7 29.8535C62.048 30.4667 61.565 31.0662 61.1073 31.8338C60.9148 32.1566 60.7147 32.4754 60.5 32.7839C60.379 32.7839 60.258 32.7839 60.1333 32.7839C60.088 32.8896 60.0426 32.9954 59.9958 33.1044C59.7331 33.5768 59.4396 33.894 59.0333 34.2491C58.9123 34.2491 58.7913 34.2491 58.6667 34.2491C58.5759 34.5211 58.5759 34.5211 58.4833 34.7985C58.1199 34.988 57.7529 35.1708 57.3833 35.348C57.298 35.4434 57.2127 35.5387 57.1248 35.637C56.7367 35.9837 56.5096 35.9601 55.9969 35.9432C55.781 35.939 55.781 35.939 55.5608 35.9346C55.1833 35.8974 55.1833 35.8974 54.8167 35.7143C54.8532 35.2865 54.8532 35.2865 55 34.7985C55.3817 34.5395 55.3817 34.5395 55.8823 34.3178C58.0276 33.2281 59.5355 31.4536 60.8667 29.4872C60.9368 29.3845 61.0069 29.2818 61.0791 29.176C62.0856 27.7229 62.0856 27.7229 62.3333 26.0073C59.0845 25.9217 55.9761 25.9395 52.8 26.7399C52.7093 26.8306 52.7093 26.8306 52.6167 26.9231C52.1878 26.8705 51.7598 26.8096 51.3333 26.7399C51.3333 26.3168 51.3333 25.8938 51.3333 25.4579C53.0672 24.4956 54.6926 24.302 56.6572 24.3232C56.8418 24.3237 57.0264 24.3242 57.2165 24.3248C57.7992 24.3268 58.3819 24.3314 58.9646 24.3361C59.3625 24.3379 59.7605 24.3396 60.1584 24.3411C61.1278 24.3451 62.0973 24.3512 63.0667 24.359C63.1151 24.1631 63.1635 23.9672 63.2134 23.7654C63.2786 23.503 63.3438 23.2406 63.409 22.9782C63.4407 22.8497 63.4724 22.7213 63.5051 22.589C64.469 18.7172 64.469 18.7172 65.45 18.6355Z" fill="#F1F2F2"/>
<path d="M70.95 14.8352C72.0779 14.8173 72.0779 14.8173 72.4167 14.8352C72.4772 14.8956 72.5377 14.956 72.6 15.0183C72.5131 16.4645 72.0728 17.8426 71.6833 19.2308C71.5305 19.7764 71.3776 20.322 71.225 20.8677C71.1862 21.0062 71.1474 21.1447 71.1074 21.2874C70.8206 22.3176 70.5527 23.3513 70.3002 24.3904C70.1561 24.9808 70.002 25.5649 69.8314 26.1483C69.3419 27.8282 69.1624 29.3975 69.1167 31.1355C69.7574 30.6228 70.3085 30.1656 70.7781 29.4872C71.5133 28.4718 72.3998 27.691 73.3505 26.883C73.6734 26.5816 73.9066 26.2874 74.1583 25.9272C74.3096 25.7723 74.4608 25.6174 74.6167 25.4579C75.1007 25.4579 75.5847 25.4579 76.0833 25.4579C76.0833 27.815 76.0833 30.1722 76.0833 32.6007C76.2043 32.6007 76.3253 32.6007 76.45 32.6007C76.4923 32.7091 76.5346 32.8175 76.5782 32.9291C76.8853 33.6725 77.1146 34.182 77.699 34.7527C77.8313 34.8887 77.9636 35.0247 78.1 35.1648C78.0656 35.6799 78.0656 35.6799 77.9167 36.0806C76.6011 36.192 76.6011 36.192 75.9687 35.7257C75.8251 35.5406 75.6814 35.3555 75.5333 35.1648C75.3912 34.9817 75.3912 34.9817 75.2462 34.795C73.8734 32.908 74.0204 30.9927 74.0667 28.7546C73.2135 29.19 72.7138 29.7574 72.1187 30.4831C71.9251 30.7124 71.7313 30.9416 71.5372 31.1706C71.2476 31.5143 70.9583 31.8583 70.6696 32.2029C70.4071 32.5138 70.1406 32.8208 69.8729 33.1273C69.7184 33.3081 69.5638 33.489 69.4046 33.6753C68.9333 34.0659 68.9333 34.0659 68.3246 34.1246C68.1625 34.1052 68.0004 34.0859 67.8333 34.0659C66.9857 32.6104 67.0908 30.9323 67.4359 29.3269C67.6155 28.7033 67.8122 28.0884 68.0167 27.4725C68.0887 27.1986 68.1581 26.924 68.2229 26.6483C68.3833 26.0073 68.3833 26.0073 68.5606 25.4944C68.755 24.8928 68.8865 24.3033 69.0071 23.6829C69.0531 23.4493 69.099 23.2157 69.1464 22.975C69.1938 22.7304 69.2412 22.4859 69.2885 22.2413C69.5946 20.6701 69.911 19.1056 70.2871 17.5494C70.4445 16.8294 70.5211 16.1185 70.5833 15.3846C70.7043 15.3846 70.8253 15.3846 70.95 15.3846C70.95 15.2033 70.95 15.022 70.95 14.8352Z" fill="#F1F2F2"/>
<path d="M80.4719 40.625C81.0333 40.6593 81.0333 40.6593 81.4 41.0256C81.5024 42.2711 81.0404 43.457 80.6318 44.6112C80.3411 45.4423 80.1704 46.1934 80.1167 47.0696C81.4846 47.0918 82.8089 46.9811 84.1675 46.8335C85.2661 46.7203 86.3458 46.6819 87.45 46.7033C87.6563 47.5733 87.6563 47.5733 87.45 47.9853C85.6306 48.6006 83.4844 48.4697 81.5833 48.5348C81.5833 48.6557 81.5833 48.7766 81.5833 48.9011C80.5851 48.9918 80.5851 48.9918 79.5667 49.0842C79.4666 49.7641 79.3722 50.4436 79.2917 51.1261C79.2765 51.2533 79.2614 51.3806 79.2458 51.5117C79.2148 51.7749 79.1842 52.0382 79.1542 52.3015C79.037 53.2764 79.037 53.2764 78.8333 53.4799C78.7793 54.4086 78.7757 55.338 78.7691 56.2682C78.7661 56.5806 78.7612 56.893 78.7541 57.2054C78.7111 59.1177 78.7382 60.7542 79.75 62.4542C79.871 62.5751 79.992 62.696 80.1167 62.8205C80.0479 63.3013 80.0479 63.3013 79.9333 63.7363C79.5323 63.8736 79.5323 63.8736 79.0167 63.9194C78.0164 63.3948 77.5753 62.3704 77.1833 61.3553C76.9401 60.1406 76.9648 58.938 76.9656 57.7038C76.9658 57.4642 76.9659 57.2246 76.9661 56.9778C76.9765 55.3452 77.0914 53.8071 77.3667 52.1978C77.4404 51.6528 77.5068 51.1069 77.5729 50.5609C77.6039 50.3112 77.6349 50.0615 77.666 49.8118C77.6993 49.5423 77.6993 49.5423 77.7333 49.2674C77.5556 49.2712 77.3779 49.275 77.1948 49.2788C76.6333 49.2674 76.6333 49.2674 76.45 49.0842C76.3812 48.4661 76.3812 48.4661 76.45 47.8022C77.0105 47.3222 77.5606 47.1727 78.2833 47.0696C78.2985 46.8581 78.3136 46.6465 78.3292 46.4286C78.4751 45.1121 78.9842 40.7199 80.4719 40.625Z" fill="#EFF1F1"/>
<path d="M101.934 32.9673C102.451 32.8879 102.736 32.9029 103.193 33.1617C103.53 33.7403 103.362 34.1582 103.217 34.7984C103.094 35.2004 102.961 35.5978 102.823 35.9947C102.214 37.7542 101.86 39.5255 101.556 41.358C101.532 41.5008 101.507 41.6435 101.482 41.7906C101.017 44.5817 100.77 47.3557 100.65 50.1832H101.017C101.068 50.0749 101.119 49.9666 101.172 49.855C101.891 48.4797 103.104 47.5305 104.5 46.8863C105.15 46.7418 105.686 46.7204 106.333 46.8863C107.086 47.4306 107.437 48.0573 107.8 48.9009C108.056 50.7849 107.827 52.5892 106.666 54.1363C106.167 54.751 105.64 55.3311 105.05 55.8609H104.684V56.2271C103.061 57.3674 101.443 57.2359 99.5498 57.1431C99.4893 57.4451 99.4285 57.747 99.3662 58.0582C98.8395 58.1726 98.8394 58.1731 98.2666 58.2418C97.8204 57.796 97.8539 57.5566 97.8516 56.9478C97.8535 56.8222 97.8555 56.6964 97.8574 56.567C97.8592 56.3707 97.8595 56.3706 97.8613 56.1705C97.8848 54.7941 98.0319 53.4361 98.209 52.0718C98.2418 51.8095 98.2748 51.5471 98.3076 51.2847C98.5848 49.1105 98.9506 46.9555 99.3389 44.7984C99.5283 43.7384 99.6836 42.6762 99.8252 41.6089C100.016 40.2007 100.27 38.811 100.559 37.4195C100.596 37.2401 100.633 37.0604 100.671 36.8755C101.302 33.9142 101.302 33.9142 101.934 32.9673ZM105.417 48.7183C104.033 48.404 104.032 48.4038 101.934 51.1148C100.992 52.4857 100.043 53.9617 100.283 55.6773C100.44 55.6795 100.593 55.682 100.745 55.6841C101.05 55.6867 101.05 55.6865 101.349 55.689C102.7 55.7035 103.272 55.3752 104.25 54.4732C105.386 53.3106 106.041 52.3099 106.081 50.6529C106.061 49.8304 106.013 49.3122 105.417 48.7183Z" fill="#F2F3F3"/>
<path d="M112.636 37.3972C114.728 31.5294 114.729 31.5292 117.15 31.8679C117.622 32.2658 117.973 32.5971 118.25 33.1501C118.371 34.9409 118.155 36.6318 117.792 38.3816C117.768 38.4995 117.744 38.6176 117.72 38.739C117.27 40.9426 116.581 42.9962 115.684 45.0554C115.594 45.2716 115.505 45.488 115.413 45.7107C115.098 46.4184 114.744 47.0927 114.365 47.7683C114.294 47.897 114.223 48.0254 114.149 48.158C113.714 48.9251 113.247 49.5659 112.646 50.2175C111.915 51.0848 111.867 51.7681 111.945 52.8806C111.981 53.1771 111.98 53.1776 112.017 53.4802C112.033 53.6552 112.049 53.8302 112.065 54.0105C112.21 55.1531 112.536 56.2189 112.91 57.3035C112.955 57.434 113 57.5645 113.046 57.699C113.612 59.2626 114.631 60.8547 116.096 61.699C116.345 61.8009 116.345 61.8011 116.6 61.905C116.781 62.0259 116.963 62.1467 117.15 62.2712C117.185 62.7518 117.185 62.7523 117.15 63.1873C115.709 63.1812 114.75 62.8658 113.667 61.905C110.762 58.9075 110.139 54.9572 110.126 50.95C110.125 50.8117 110.125 50.6734 110.125 50.531C110.124 47.9779 110.387 45.5417 110.917 43.0408C110.964 42.8104 110.964 42.8099 111.012 42.575C111.294 41.2036 111.613 39.8681 112.177 38.5808C112.343 38.1884 112.493 37.7984 112.636 37.3972ZM116.233 33.8826C115.812 34.4217 115.513 34.9517 115.236 35.5769C115.086 35.9514 114.928 36.3052 114.738 36.6619C114.154 37.7486 113.786 38.8277 113.466 40.0183C113.41 40.2361 113.354 40.4475 113.3 40.6589C112.668 43.0018 112.166 45.3762 112.017 47.8025H112.384C112.556 47.4411 112.556 47.441 112.76 47.1443C113.189 46.4962 113.551 45.8585 113.839 45.1355C114.043 44.5969 114.249 44.06 114.468 43.5271C115.153 41.8616 115.756 40.1763 116.301 38.4597C116.34 38.3358 116.379 38.2157 116.417 38.0955C116.697 37.2537 116.824 36.5373 116.815 35.6589C116.812 35.5262 116.81 35.3972 116.807 35.2683C116.801 34.8065 116.793 34.3443 116.783 33.8826H116.233Z" fill="#F2F4F4"/>
<path d="M86.7228 49.5267C87.9968 48.0344 89.7102 46.2905 91.8498 46.7035C92.5045 47.07 93.1586 47.486 93.5002 48.1683C93.5757 49.4274 93.536 50.6575 93.3166 51.8997C93.1546 52.838 93.0922 53.7441 93.0871 54.6937C93.0854 54.8194 93.0839 54.9451 93.0822 55.0746C93.0862 55.7437 93.1185 56.0211 93.5002 56.5931C94.2083 56.957 94.9149 57.0506 95.7003 57.1429C95.7233 57.5778 95.7233 57.5782 95.7003 58.0589C95.3338 58.4251 95.3333 58.4245 94.7765 58.4603C94.5596 58.456 94.3418 58.452 94.1183 58.4476C93.9006 58.4443 93.6825 58.4412 93.4582 58.4378C93.2906 58.4336 93.123 58.4295 92.9503 58.4251V58.0589C92.8396 58.0394 92.7285 58.0195 92.6144 57.9994C92.064 57.828 91.8085 57.4838 91.4904 57.0179C91.1199 56.191 91.1325 55.2902 91.1164 54.3958C90.5108 54.963 89.9984 55.5593 89.4894 56.2152C88.8689 57.0006 88.2478 57.6361 87.4503 58.2415H87.0832V58.6078C86.5079 58.8951 86.0681 58.8558 85.4337 58.7914C84.9067 58.3449 84.9063 58.3447 84.5168 57.8753C84.4563 57.8149 84.3954 57.7549 84.3332 57.6927C84.0761 54.6038 84.7815 51.9956 86.7228 49.5267ZM91.6671 48.9007C90.4856 48.7873 89.5956 48.682 88.8058 49.6527C88.7189 49.7707 88.6343 49.8858 88.55 50.0003C86.691 52.1914 85.889 54.2612 85.9836 57.1429C86.482 57.0787 86.815 57.0312 87.2062 56.7054C87.3009 56.5896 87.3926 56.477 87.4845 56.3646C87.5965 56.2279 87.7049 56.0949 87.8136 55.9622C87.9393 55.8032 88.0618 55.6489 88.1837 55.4945C89.729 53.6027 91.6671 51.4537 91.6671 48.9007Z" fill="#F2F3F4"/>
<path d="M116.454 49.8666C117.35 48.2405 118.972 46.5284 121 47.0698C121.55 47.5162 121.55 47.5165 121.917 47.9858C122.007 48.0763 122.008 48.076 122.1 48.1684C122.323 50.16 121.401 51.3898 120.267 52.9301C120.154 53.0962 120.04 53.2629 119.923 53.434C119.33 54.0613 118.614 54.491 117.883 54.9448C118.189 55.7869 118.19 55.7875 118.8 56.4106C120.903 57.1655 123.79 57.117 125.85 56.2768C127.785 55.3119 129.11 54.159 130.35 52.3813C130.441 52.1093 130.441 52.109 130.534 51.8315H131.267V51.0991H131.633C131.457 52.822 131.457 52.8224 131.267 53.6625H130.9C130.881 53.8363 130.862 54.0109 130.842 54.1899C130.716 54.7618 130.716 54.7621 130.167 55.1284C130.106 55.3095 130.045 55.4905 129.983 55.6772C129.657 55.9311 129.657 55.9321 129.261 56.1703C129.131 56.2503 129.001 56.3302 128.867 56.4125C128.517 56.5935 128.517 56.5932 128.15 56.5932V56.9594C127.847 57.0198 127.545 57.0807 127.233 57.143V57.5092C126.351 58.0158 125.659 58.1408 124.667 58.2416C124.606 58.3021 124.545 58.363 124.483 58.4252C124.103 58.4413 123.722 58.4445 123.342 58.4428C123.111 58.4422 122.88 58.4415 122.642 58.4409C122.396 58.4393 122.15 58.4375 121.905 58.436C121.658 58.4351 121.412 58.4348 121.166 58.434C120.56 58.4319 119.955 58.429 119.35 58.4252V58.059C119.225 58.0439 119.101 58.0287 118.972 58.0131C117.522 57.6431 116.641 56.7599 115.841 55.5434C115.139 53.6992 115.716 51.5927 116.454 49.8666ZM120.633 48.7182C119.687 48.6303 119.288 48.78 118.617 49.4506C117.664 50.6547 117.236 51.9577 117.333 53.4799C117.796 53.4799 117.796 53.4796 118.8 52.5639V52.1977H119.167C119.919 51.0707 120.545 50.0918 120.633 48.7182Z" fill="#EDF0F0"/>
<path d="M81.1838 25.6883C82.563 24.2611 84.0938 23.0851 86.1662 23.4431C86.7391 23.8094 86.7395 23.8097 87.0832 24.3592C87.3524 25.7527 86.6924 26.8448 85.9836 28.0222C84.9382 29.4489 83.4703 30.6065 81.7668 31.1355H81.217C81.1593 32.096 81.2464 32.6994 81.7668 33.5164C82.0054 33.7071 82.2487 33.8929 82.5002 34.0662V34.4324C83.417 34.6153 84.2962 34.6494 85.2268 34.6502C85.3669 34.6524 85.5073 34.6537 85.6516 34.656C86.6194 34.6585 87.4365 34.5189 88.3664 34.2488C88.5248 34.2032 88.6838 34.1581 88.8469 34.1111C90.1386 33.6489 91.5835 32.7674 92.217 31.5017C92.5193 31.5621 92.8215 31.6231 93.133 31.6853C93.2303 32.2039 93.2672 32.467 93.133 32.9666C92.084 34.2854 90.2967 35.4734 88.6076 35.6912C88.4073 35.6987 88.2066 35.7068 88.0002 35.7146V36.0808C85.6263 36.3806 83.0788 36.6549 81.007 35.2547C80.0821 34.5135 79.3005 33.6343 79.1565 32.4197C78.9945 29.7538 79.4091 27.7689 81.1838 25.6883ZM85.2502 25.2752C84.6038 25.2752 84.1689 25.2986 83.6526 25.7049C82.6386 26.7487 81.4763 27.7733 81.3996 29.3045C82.0869 29.3045 82.0875 29.3041 83.1555 28.5672C84.2563 27.6711 85.0995 26.7127 85.2502 25.2752Z" fill="#F0F1F1"/>
<path d="M125.4 64.652C125.648 64.931 125.648 64.931 125.881 65.2702C125.959 65.3811 126.037 65.4921 126.118 65.6064C126.552 66.3212 126.568 66.9477 126.5 67.7656C126.149 68.7262 125.601 69.3397 124.667 69.7802C123.807 69.9298 123.196 69.8679 122.409 69.4826C121.763 68.9121 121.268 68.4271 121.113 67.5502C121.063 66.555 121.265 65.9832 121.917 65.2015C122.041 65.0372 122.041 65.0372 122.169 64.8695C123.016 64.2507 124.451 64.3359 125.4 64.652ZM121.756 65.8883C121.446 66.5091 121.431 67.0951 121.55 67.7656C121.919 68.4528 122.183 68.7979 122.833 69.2308C123.523 69.353 124.162 69.3632 124.85 69.2308C125.448 68.7886 125.804 68.2402 126.133 67.5824C126.201 66.9925 126.256 66.5159 125.954 65.9849C125.315 65.1876 124.863 64.8774 123.865 64.7665C122.929 64.8632 122.43 65.2602 121.756 65.8883Z" fill="#C9D2D3"/>
<path d="M102.663 81.2967C102.822 81.2971 102.981 81.2975 103.145 81.2979C103.325 81.2979 103.505 81.2979 103.69 81.2979C103.886 81.2989 104.082 81.2998 104.283 81.3008C104.482 81.3011 104.681 81.3013 104.886 81.3016C105.525 81.3026 106.164 81.3049 106.803 81.3072C107.235 81.3082 107.667 81.309 108.099 81.3097C109.16 81.3118 110.222 81.3148 111.283 81.3187C111.283 81.3791 111.283 81.4396 111.283 81.5018C108.5 81.5623 105.717 81.6227 102.85 81.685C102.718 82.3437 102.651 82.7447 102.678 83.3791C102.691 84.2572 102.524 85.0519 102.3 85.8974C102.24 85.8974 102.179 85.8974 102.117 85.8974C102.111 85.1687 102.108 84.4399 102.105 83.7111C102.104 83.503 102.102 83.2949 102.101 83.0804C102.1 82.8827 102.099 82.685 102.099 82.4813C102.098 82.2981 102.097 82.1149 102.096 81.9261C102.122 81.3943 102.132 81.3289 102.663 81.2967Z" fill="#375057"/>
<path d="M125.4 65.2015C125.894 65.3825 126.098 65.5055 126.363 65.9684C126.605 66.8762 126.629 67.6122 126.191 68.4524C125.754 69.0649 125.548 69.3338 124.85 69.5971C124.297 69.638 123.754 69.6296 123.2 69.5971C123.2 69.5366 123.2 69.4762 123.2 69.4139C123.308 69.4002 123.417 69.3865 123.529 69.3724C124.322 69.2406 124.873 69.1345 125.4 68.4982C125.936 67.6943 126.017 67.2765 125.95 66.3004C125.693 65.8819 125.693 65.8819 125.4 65.5678C125.4 65.4469 125.4 65.326 125.4 65.2015Z" fill="#CED6D6"/>
<path d="M122.833 65.7509C123.438 65.7509 124.043 65.7509 124.667 65.7509C124.3 66.1172 124.3 66.1172 123.819 66.1401C123.675 66.1326 123.531 66.125 123.383 66.1172C123.383 66.4194 123.383 66.7216 123.383 67.033C123.625 67.0934 123.867 67.1538 124.117 67.2161C123.935 67.337 123.754 67.4579 123.567 67.5824C123.433 68.0518 123.433 68.0518 123.383 68.4982C123.202 68.4982 123.02 68.4982 122.833 68.4982C122.833 67.5916 122.833 66.685 122.833 65.7509Z" fill="#EDF0F0"/>
<path d="M55.7333 86.0806C58.8793 86.0806 62.0253 86.0806 65.2667 86.0806C65.2667 86.141 65.2667 86.2014 65.2667 86.2637C65.1025 86.2665 65.1025 86.2665 64.9351 86.2694C63.799 86.2892 62.663 86.3102 61.527 86.3319C61.1027 86.3399 60.6784 86.3475 60.2541 86.3548C59.6452 86.3654 59.0363 86.377 58.4275 86.3889C58.1416 86.3935 58.1416 86.3935 57.8499 86.3982C57.6738 86.4018 57.4976 86.4055 57.3161 86.4093C57.0828 86.4135 57.0828 86.4135 56.8448 86.4179C56.4551 86.4238 56.4551 86.4238 56.1 86.63C55.979 86.5696 55.858 86.5091 55.7333 86.4469C55.7333 86.326 55.7333 86.2051 55.7333 86.0806Z" fill="#E1E5E6"/>
<path d="M42.1667 51.282C42.3396 51.9077 42.3648 52.4636 42.35 53.1135C42.229 53.1135 42.108 53.1135 41.9833 53.1135C41.9833 53.2344 41.9833 53.3553 41.9833 53.4798C42.1043 53.4798 42.2253 53.4798 42.35 53.4798C42.2388 54.5349 41.8446 55.4432 41.4333 56.4102C41.3728 56.4102 41.3123 56.4102 41.25 56.4102C41.2757 56.0477 41.3027 55.6852 41.3302 55.3228C41.3451 55.1209 41.36 54.9191 41.3753 54.7111C41.4333 54.2124 41.4333 54.2124 41.6167 54.0293C41.7197 53.568 41.8146 53.1083 41.9031 52.6442C41.9285 52.514 41.9539 52.3838 41.9801 52.2497C42.0429 51.9272 42.1049 51.6047 42.1667 51.282Z" fill="#415357"/>
<path d="M74.6167 25.4579C74.7377 25.4579 74.8587 25.4579 74.9833 25.4579C74.7229 26.0489 74.4072 26.4468 73.9521 26.9031C73.8226 27.0329 73.6931 27.1628 73.5596 27.2965C73.4244 27.4302 73.2893 27.5638 73.15 27.7015C73.0148 27.8379 72.8796 27.9744 72.7403 28.115C72.6108 28.2439 72.4813 28.3728 72.3479 28.5056C72.2293 28.6237 72.1106 28.7418 71.9884 28.8635C71.6833 29.1209 71.6833 29.1209 71.3167 29.1209C71.3167 28.7546 71.3167 28.7546 71.6833 28.3539C72.0967 27.955 72.5301 27.5826 72.9667 27.2093C73.4334 26.808 73.8432 26.4082 74.2271 25.9272C74.3556 25.7723 74.4842 25.6175 74.6167 25.4579Z" fill="#D3D6D5"/>
<path d="M71.1333 31.5018C71.2543 31.6227 71.3753 31.7436 71.5 31.8681C71.2768 32.137 71.0509 32.4037 70.824 32.6694C70.6985 32.8182 70.573 32.9669 70.4437 33.1201C70.0153 33.5339 69.6795 33.7036 69.1167 33.8828C69.7378 33.0235 70.36 32.2289 71.1333 31.5018Z" fill="#3C4D50"/>
<path d="M125.4 65.2015C125.894 65.3825 126.098 65.5055 126.362 65.9684C126.527 66.5829 126.525 67.1324 126.5 67.7656C126.318 67.8562 126.318 67.8562 126.133 67.9487C126.126 67.8382 126.12 67.7277 126.113 67.6139C126.043 66.7679 125.995 66.2144 125.4 65.5678C125.4 65.4469 125.4 65.326 125.4 65.2015Z" fill="#D5DBDC"/>
<path d="M70.2167 50.5494C70.3377 50.6099 70.4587 50.6703 70.5833 50.7326C70.5228 50.8535 70.4623 50.9743 70.4 51.0989C70.279 51.0989 70.158 51.0989 70.0333 51.0989C69.9842 51.2084 69.935 51.318 69.8844 51.4308C69.6694 51.8264 69.4478 52.0802 69.1167 52.3809C68.9352 52.3205 68.7537 52.2601 68.5667 52.1978C69.1112 51.6538 69.6557 51.1099 70.2167 50.5494Z" fill="#435A5E"/>
<path d="M70.95 14.8352C71.434 14.8352 71.918 14.8352 72.4166 14.8352C72.4166 14.8956 72.4166 14.9561 72.4166 15.0183C72.0536 15.0183 71.6906 15.0183 71.3166 15.0183C71.2977 15.1279 71.2788 15.2374 71.2594 15.3503C71.117 15.8027 70.937 15.9931 70.5833 16.3004C70.5833 15.9982 70.5833 15.696 70.5833 15.3846C70.7043 15.3846 70.8253 15.3846 70.95 15.3846C70.95 15.2033 70.95 15.022 70.95 14.8352Z" fill="#B9BAB9"/>
<path d="M103.217 47.619C103.338 47.6795 103.459 47.7399 103.583 47.8022C103.348 48.0475 103.111 48.2914 102.873 48.5348C102.741 48.6708 102.609 48.8068 102.473 48.9469C102.117 49.2674 102.117 49.2674 101.75 49.2674C102.04 48.4846 102.576 48.1199 103.217 47.619Z" fill="#C6CECF"/>
<path d="M44.3667 43.2234C44.2078 43.2858 44.2078 43.2858 44.0458 43.3494C43.3503 43.7547 42.9732 44.3958 42.5333 45.0549C42.6431 43.8928 42.6431 43.8928 42.9344 43.418C43.4145 43.1369 43.822 43.1872 44.3667 43.2234Z" fill="#C8CFD0"/>
<path d="M46.3833 57.326C46.5043 57.3865 46.6253 57.4469 46.75 57.5092C46.1682 58.1568 45.8026 58.5322 44.9167 58.6081C45.3575 57.9475 45.6402 57.9021 46.3833 57.6923C46.3833 57.5714 46.3833 57.4506 46.3833 57.326Z" fill="#475D61"/>
<path d="M118.433 47.619C118.554 47.6795 118.675 47.7399 118.8 47.8022C118.595 48.017 118.388 48.2304 118.181 48.4432C118.066 48.5622 117.952 48.6812 117.833 48.8038C117.517 49.0843 117.517 49.0843 117.15 49.0843C117.423 48.3892 117.839 48.0567 118.433 47.619Z" fill="#CFD8D8"/>
<path d="M115.5 32.2344C115.621 32.2344 115.742 32.2344 115.867 32.2344C115.576 33.0173 115.041 33.3819 114.4 33.8828C114.68 33.2532 115.042 32.7492 115.5 32.2344Z" fill="#D3D9D9"/>
<path d="M62.3333 29.8535C62.4543 29.8535 62.5753 29.8535 62.7 29.8535C62.7 30.0952 62.7 30.337 62.7 30.5861C62.337 30.7674 61.974 30.9487 61.6 31.1355C61.7969 30.6016 61.926 30.2604 62.3333 29.8535Z" fill="#435052"/>
<path d="M43.8164 43.2002C44.3661 43.2231 44.3667 43.2234 44.5498 43.4062C44.6881 44.5041 44.2484 45.3899 43.8398 46.3828C43.3793 47.5062 42.9986 48.5731 42.7969 49.7734C42.7139 50.1957 42.5895 50.5807 42.4414 50.9844C42.1388 51.8364 42.0075 52.696 41.8789 53.5889C41.8002 54.0294 41.7995 54.0298 41.6162 54.2129C41.5736 54.5208 41.5411 54.8301 41.5137 55.1396C41.4906 55.392 41.4903 55.3921 41.4668 55.6494C41.4557 55.7795 41.445 55.9099 41.4336 56.0439C41.5105 55.8078 41.5104 55.8074 41.5889 55.5664C42.6282 52.505 44.115 49.9459 46.75 47.9854C47.4027 47.7245 48.0728 47.741 48.7666 47.8018C49.3879 48.193 49.6327 48.3842 49.8662 49.084C50.0033 50.8141 49.7552 52.307 48.9502 53.8457C49.2634 53.6475 49.5766 53.4494 49.8896 53.251C50.064 53.1405 50.2383 53.0298 50.418 52.916C51.4697 52.2412 52.4799 51.532 53.4756 50.7783C57.3728 47.8441 57.3734 47.8442 58.4834 47.9854C59.074 48.2982 59.6259 48.6488 60.1338 49.084V49.4502C60.2908 49.4016 60.4477 49.3528 60.6094 49.3027C61.0423 49.1691 61.4757 49.0369 61.9092 48.9053C62.332 48.7748 62.7524 48.6356 63.1699 48.4893C64.2468 48.2546 65.3865 48.0904 66.4268 48.5332C66.8181 48.8145 67.0445 49.0307 67.2832 49.4502C67.383 50.0763 67.3614 50.6547 67.2832 51.2822H67.6504C67.6991 51.1741 67.7477 51.0655 67.7979 50.9541C68.6169 49.4409 70.3557 48.3378 71.8662 47.6191C71.9872 47.4983 72.1087 47.3775 72.2334 47.2529C73.2195 46.7302 74.0517 46.5788 75.167 46.7031C75.3503 46.8862 75.3504 46.8866 75.3848 47.333C75.3504 47.8022 75.35 47.8027 74.9834 48.1689C74.6846 48.28 74.3821 48.3813 74.0781 48.4775C71.7366 49.3121 69.1328 51.112 68.0303 53.4131C67.933 53.6272 67.9323 53.6272 67.833 53.8457C67.7435 54.0151 67.6538 54.1848 67.5615 54.3594C66.9687 55.4853 66.5138 56.6044 66.1396 57.8203C66 58.2417 65.9997 58.2417 65.8164 58.4248C65.5112 58.4322 65.2056 58.4326 64.9004 58.4248C64.3346 57.2944 64.8604 55.8161 65.1289 54.6641C65.3695 53.5596 65.4727 52.515 65.4619 51.3848C65.4603 51.1585 65.4578 50.9323 65.4561 50.6992C65.4539 50.5291 65.4524 50.3588 65.4502 50.1836C64.6182 49.768 63.8099 49.9423 62.9561 50.1982C61.8275 50.5117 61.8267 50.5114 60.8662 51.0986C60.83 51.4685 60.7967 51.8388 60.7637 52.209C60.423 54.6956 59.1301 56.9331 57.1885 58.5166C56.549 58.8428 56.2561 58.935 55.5498 58.791C54.7377 58.2692 54.1374 57.6493 53.7168 56.7764C53.6567 56.1779 53.6566 56.1777 53.6709 55.5293C53.6756 55.3048 53.6807 55.0799 53.6855 54.8486C53.7208 54.1376 53.7879 53.4497 53.9004 52.7471H54.2666C54.2062 52.5659 54.1453 52.3849 54.083 52.1982C53.9191 52.3155 53.7548 52.4329 53.5859 52.5537C51.7321 53.879 49.8749 55.1931 47.9717 56.4473C47.6662 56.6531 47.3659 56.8675 47.0752 57.0938C46.7502 57.3255 46.75 57.3262 46.3838 57.3262V57.6924C46.0151 57.962 46.0145 57.962 45.5244 58.2529C45.365 58.3494 45.2053 58.4465 45.041 58.5459C44.5598 58.7866 44.167 58.9139 43.6338 58.9746C43.4505 58.7915 43.4503 58.7911 43.3809 58.3711C43.4503 57.8755 43.4497 57.875 43.8457 57.4766C44.0212 57.3475 44.1971 57.2189 44.3779 57.0859C46.441 55.4767 47.7633 53.5433 48.2168 50.916C48.24 50.4833 48.2349 50.0676 48.2168 49.6338C46.9988 49.8025 46.2715 50.5454 45.5264 51.4863C44.4744 53.0114 43.7393 54.6855 43.083 56.4102C42.9862 56.6506 42.9864 56.6512 42.8877 56.8965C42.474 57.9596 42.2246 58.9746 42.0732 60.1055C41.983 60.6226 41.9829 60.6226 41.8076 61.126C41.6095 61.7426 41.4977 62.3308 41.3994 62.9707C41.3811 63.0893 41.3627 63.2079 41.3438 63.3301C41.2844 63.7171 41.2272 64.1049 41.1699 64.4922C41.1401 64.6922 41.1398 64.6924 41.1094 64.8965C40.5529 68.6376 40.0784 72.3708 40.0684 76.1592C40.0653 76.3451 40.0617 76.5311 40.0586 76.7227C40.0583 76.8857 40.058 77.0488 40.0576 77.2168C39.9359 77.8013 39.696 78.0224 39.2334 78.3887C38.6175 78.4784 38.2794 78.4728 37.7383 78.1592C37.4003 77.8389 37.3996 77.8387 37.3076 77.4658C37.308 77.3219 37.3082 77.1776 37.3086 77.0293C37.3081 76.8633 37.3082 76.6974 37.3076 76.5264C37.3117 76.3439 37.3151 76.1607 37.3193 75.9727C37.3218 75.7799 37.3247 75.5872 37.3271 75.3887C37.4376 70.3036 38.016 64.9676 39.1035 60C39.2675 59.1663 39.3746 58.3285 39.4854 57.4863C39.734 55.6174 40.1525 53.8064 40.625 51.9824C40.7139 51.6463 40.7137 51.6458 40.7002 51.2822H40.333V51.6484C40.2024 51.7192 40.072 51.7904 39.9375 51.8633C39.7619 51.9587 39.5862 52.0541 39.4053 52.1523C39.2198 52.2529 39.0339 52.3534 38.8428 52.457C38.4468 52.6755 38.0605 52.9012 37.6748 53.1367C33.1869 55.5384 27.3047 55.2623 22.5498 53.8457C22.037 53.6288 21.5696 53.3861 21.083 53.1133C21.1435 52.6299 21.2043 52.1465 21.2666 51.6484C22.7398 51.5013 23.9493 52.0339 25.2998 52.5645V52.9307C25.4624 52.9193 25.6254 52.9082 25.793 52.8965C26.4596 52.8925 27.0403 53.0363 27.6836 53.2051C30.6649 53.9206 33.7928 53.4695 36.4834 52.0146C36.6342 51.9221 36.7851 51.8297 36.9404 51.7344C37.4001 51.4654 37.4001 51.4651 37.8584 51.292C38.3996 51.0639 38.7815 50.7635 39.2334 50.3896C39.4603 50.2034 39.46 50.2027 39.6914 50.0127C39.9183 49.825 39.9189 49.8253 40.1504 49.6338C40.3126 49.5095 40.4745 49.3849 40.6416 49.2568C41.7778 48.3055 41.98 46.8161 42.2617 45.4355C42.7246 43.2462 42.7246 43.2456 43.8164 43.2002ZM56.2832 51.4648C56.1542 51.7093 56.0343 51.9587 55.917 52.209C55.2834 53.7824 55.3119 55.5659 55.917 57.1426H56.6504C57.9468 55.6229 58.7241 53.8057 58.8496 51.8311C58.0168 51.9235 58.0166 51.924 57.2002 52.0146V51.6484C56.8885 51.5862 56.5857 51.5253 56.2832 51.4648ZM57.5664 49.8164V50.3662H58.667V50C58.3233 49.8054 58.3229 49.8054 57.9336 49.6338C57.8089 49.6961 57.6874 49.756 57.5664 49.8164Z" fill="#F1F3F3"/>
<path d="M73.5167 28.7546C73.5772 28.8755 73.6377 28.9963 73.7 29.1209C73.4037 29.4947 73.0976 29.8609 72.7833 30.2198C72.6623 30.2198 72.5413 30.2198 72.4167 30.2198C72.6811 29.6033 73.0276 29.2105 73.5167 28.7546Z" fill="#374649"/>
<path d="M42.1667 51.282C42.3573 51.9011 42.3647 52.4685 42.35 53.1135C42.229 53.1135 42.108 53.1135 41.9833 53.1135C41.9228 53.2344 41.8623 53.3553 41.8 53.4798C41.826 53.2165 41.8529 52.9532 41.8802 52.69C41.8951 52.5434 41.91 52.3968 41.9253 52.2457C41.9833 51.8315 41.9833 51.8315 42.1667 51.282Z" fill="#4A5D61"/>
</g>
<defs>
<clipPath id="clip0_55_41">
<rect width="154" height="100" fill="white"/>
</clipPath>
</defs>
</svg>
