<svg width="986" height="888" viewBox="0 0 986 888" fill="none" xmlns="http://www.w3.org/2000/svg">
<path d="M646 152C645.312 157.138 643.631 158.728 639.75 161.93C635.023 165.488 630.121 168.787 625.227 172.109C603.264 187.059 578.835 204.324 568.816 229.973C568 232 568 232 566.531 234.75C564.812 238.399 563.822 242.025 562.938 245.938C562.777 246.596 562.617 247.254 562.451 247.932C560.764 255.2 559.922 262.604 559 270C559.963 269.99 560.926 269.979 561.918 269.968C565.517 269.932 569.116 269.909 572.715 269.89C574.267 269.88 575.82 269.867 577.373 269.849C579.614 269.825 581.856 269.813 584.098 269.805C584.783 269.794 585.469 269.784 586.176 269.773C593.137 269.772 598.605 271.044 603.812 275.75C604.561 276.405 605.31 277.06 606.082 277.734C619.29 293.336 613.188 333.434 613.185 352.927C613.185 356.237 613.192 359.547 613.206 362.857C613.279 380.788 613.093 398.663 612.102 416.57C612.062 417.306 612.022 418.042 611.981 418.8C611.458 428.24 610.542 437.575 609.188 446.938C608.909 448.875 608.909 448.875 608.624 450.852C608.466 451.935 608.308 453.017 608.145 454.133C606.146 468.417 605.053 482.825 603.751 497.185C601.966 516.834 601.966 516.834 600.977 525.668C600.836 526.933 600.695 528.198 600.549 529.501C600 533 600 533 599.013 536.39C597.826 540.619 597.298 544.734 596.816 549.09C596.715 549.952 596.614 550.814 596.51 551.703C596.189 554.447 595.875 557.192 595.562 559.938C593.249 580.269 593.249 580.269 591.465 589.273C590.006 596.672 589.055 604.053 588.235 611.543C587.831 615.229 587.408 618.913 586.984 622.598C586.902 623.32 586.819 624.042 586.734 624.786C585.682 633.884 584.374 642.945 583 652C582.34 652 581.68 652 581 652C580.951 653.091 580.902 654.181 580.852 655.305C580.323 666.264 579.425 677.12 578 688C577.838 689.392 577.838 689.392 577.672 690.812C576.689 696.964 573.591 701.817 569 706C562.07 710.323 556.212 710.649 548.152 710.738C546.211 710.781 546.211 710.781 544.23 710.824C539.82 710.915 535.41 710.959 531 711C529.378 711.017 527.757 711.034 526.135 711.051C515.465 711.156 504.795 711.186 494.124 711.185C490.418 711.185 486.712 711.192 483.007 711.206C398.268 711.512 398.268 711.512 387 704C385.615 703.68 384.216 703.414 382.812 703.188C374.19 701.357 367.938 696.206 363 689C361.364 685.749 360.142 682.451 359 679C358.768 678.376 358.536 677.751 358.297 677.108C356.022 670.781 354.934 664.447 353.938 657.812C353.618 655.714 353.294 653.616 352.965 651.52C352.827 650.603 352.689 649.686 352.547 648.741C352.046 645.928 352.046 645.928 351.002 643.021C350.012 640.036 349.456 637.249 349 634.141C348.836 633.033 348.672 631.925 348.503 630.784C348.337 629.618 348.171 628.452 348 627.25C347.825 626.05 347.65 624.85 347.469 623.614C346.371 615.975 345.383 608.332 344.684 600.646C344.387 597.585 343.938 594.789 343.066 591.836C341.515 586.257 340.831 580.608 340.062 574.875C339.889 573.609 339.716 572.343 339.537 571.039C338.159 560.74 337.047 550.423 336.127 540.072C335.595 534.42 334.835 528.999 333.543 523.469C331.628 514.966 330.879 506.398 330.12 497.726C329.877 494.965 329.621 492.206 329.363 489.447C327.536 469.533 326.798 449.681 326.812 429.688C326.812 428.676 326.811 427.664 326.81 426.622C326.812 408.374 327.402 390.175 328.288 371.95C328.38 370.059 328.471 368.168 328.562 366.277C328.606 365.386 328.649 364.495 328.693 363.577C329.038 356.046 329.106 348.538 329 341C328.479 341.654 327.958 342.308 327.421 342.982C316.349 356.867 304.99 370.466 293.062 383.625C292.228 384.545 291.394 385.466 290.535 386.414C283.229 393.866 283.229 393.866 279.125 394.312C278.073 394.158 278.073 394.158 277 394C276.494 389.954 277.011 387.602 279.191 384.266C279.647 383.564 280.102 382.863 280.572 382.141C281.043 381.434 281.514 380.728 282 380C282.428 379.355 282.856 378.711 283.298 378.047C284.602 376.105 285.922 374.176 287.25 372.25C287.965 371.211 287.965 371.211 288.695 370.152C292.306 364.936 296.049 359.844 299.887 354.793C301.96 352.053 303.986 349.284 306 346.5C317.833 330.167 317.833 330.167 320 328C319.412 327.971 318.824 327.942 318.219 327.912C304.28 327.142 290.278 326.215 279 317C279.33 315.35 279.66 313.7 280 312C288.488 310.771 296.906 309.855 305.48 309.543C306.276 309.512 307.072 309.481 307.891 309.449C311.158 309.325 314.425 309.207 317.694 309.122C320.124 309.055 322.551 308.957 324.98 308.855C325.714 308.844 326.447 308.832 327.203 308.82C331.093 308.633 332.871 308.104 335.939 305.634C338.149 303.114 338.149 303.114 339 300C337.35 299.67 335.7 299.34 334 299C334 298.34 334 297.68 334 297C333.34 296.794 332.68 296.588 332 296.375C327.868 294.481 324.548 291.815 321 289C320.448 288.573 319.897 288.147 319.328 287.707C315.708 284.824 312.909 281.581 310 278C309.223 277.227 308.445 276.453 307.645 275.656C305.034 273.034 302.625 270.337 300.25 267.5C299.471 266.582 298.693 265.664 297.891 264.719C296.003 262.005 295.353 260.249 295 257C301.299 256.465 305.369 258.175 310.938 261C311.717 261.382 312.496 261.763 313.299 262.156C315.205 263.092 317.104 264.044 319 265C319 265.66 319 266.32 319 267C319.722 267.268 320.444 267.536 321.188 267.812C323.998 268.999 326.484 270.275 329 272C329 272.66 329 273.32 329 274C329.579 274.271 330.158 274.541 330.754 274.82C333.009 276.005 334.916 277.33 336.938 278.875C337.63 279.404 338.322 279.932 339.035 280.477C345.451 285.451 345.451 285.451 348 288C348.66 287.34 349.32 286.68 350 286C349.729 284.056 349.729 284.056 349 282C346.942 274.601 346.729 267.594 346.812 259.938C346.813 258.239 346.813 258.239 346.814 256.506C346.859 247.951 347.043 240.442 350.562 232.5C351.018 231.458 351.473 230.417 351.941 229.344C352.465 228.184 352.465 228.184 353 227C354.902 227.281 354.902 227.281 357 228C358.202 230.692 359.126 233.205 360 236C360.374 237.008 360.374 237.008 360.755 238.037C362.879 243.856 363.695 249.407 364.188 255.562C364.269 256.476 364.351 257.389 364.436 258.33C364.633 260.553 364.821 262.776 365 265C365.606 264.212 366.212 263.425 366.836 262.613C373.724 253.659 380.612 244.704 387.5 235.75C388.12 234.944 388.12 234.944 388.752 234.122C389.579 233.048 390.405 231.973 391.232 230.899C393.42 228.057 395.603 225.212 397.781 222.363C398.236 221.769 398.691 221.175 399.16 220.562C400.034 219.421 400.906 218.28 401.777 217.137C403.436 214.973 405.069 212.931 407 211C406.928 207.094 406.737 204.808 404.062 201.875C388.662 192.446 374.213 188.636 356.282 188.684C353.835 188.687 351.39 188.664 348.943 188.639C337.168 188.592 325.964 189.631 314.953 194.211C313 195 313 195 310.672 195.727C284.567 204.09 263.57 224.977 250.68 248.645C248.169 253.66 245.989 258.757 244 264C243.76 264.595 243.52 265.19 243.272 265.802C241.265 270.888 239.96 275.96 238.875 281.312C238.703 282.152 238.531 282.992 238.355 283.857C237.151 289.902 236.209 295.83 236 302C235.948 303.149 235.897 304.297 235.844 305.48C235.438 322.331 237.916 338.474 244.24 354.119C244.971 355.929 245.666 357.753 246.359 359.578C248.374 364.728 249.984 368.155 254 372C254.89 373.31 255.744 374.645 256.562 376C259.629 380.741 263.265 384.749 267.129 388.838C269.6 391.452 271.916 394.066 274 397C265.553 395.254 259.536 388.815 253.625 382.938C253.018 382.336 252.411 381.734 251.786 381.115C244 373.204 244 373.204 244 369C243.34 369 242.68 369 242 369C240.554 366.359 239.118 363.712 237.688 361.062C237.283 360.327 236.879 359.592 236.463 358.834C233.701 353.692 231.691 348.58 230 343C229.608 341.804 229.216 340.607 228.813 339.375C227.952 335.801 227.851 332.662 228 329C227.34 329 226.68 329 226 329C221.43 309.659 223.04 287.133 228 268C228.66 268 229.32 268 230 268C230.083 266.886 230.165 265.773 230.25 264.625C230.941 259.325 232.832 254.857 235 250C235.267 249.379 235.534 248.758 235.809 248.119C242.278 233.13 250.654 220.766 262 209C262.483 208.497 262.966 207.993 263.463 207.475C265.029 205.849 266.606 204.235 268.188 202.625C268.675 202.125 269.162 201.624 269.664 201.109C272.863 197.903 276.175 195.409 280 193C280.906 192.389 281.812 191.778 282.746 191.148C287.762 187.843 292.083 185.183 298 184C298 183.34 298 182.68 298 182C330.485 168.893 367.725 164.995 400.812 178.75C403.226 179.8 405.614 180.887 408 182C408 182.66 408 183.32 408 184C408.99 184.278 408.99 184.278 410 184.562C415.23 187.068 419.843 190.733 422.5 195.938C422.665 196.618 422.83 197.299 423 198C423.66 198 424.32 198 425 198C427.421 202.842 426.736 209.583 425.199 214.629C422.48 220.451 418.6 225.21 414.457 230.082C411.871 233.153 409.427 236.304 407 239.5C403.134 244.57 399.146 249.523 395.094 254.445C393.145 256.823 391.216 259.212 389.312 261.625C388.814 262.257 388.315 262.888 387.801 263.539C385.07 267.271 382.544 271.139 380 275C384.542 274.861 389.083 274.712 393.625 274.562C395.553 274.504 395.553 274.504 397.52 274.443C398.763 274.401 400.007 274.36 401.289 274.316C402.431 274.28 403.572 274.243 404.749 274.205C407.938 274.063 407.938 274.063 410.804 273.513C415.142 272.816 419.454 272.65 423.84 272.469C425.282 272.406 425.282 272.406 426.753 272.343C436.956 271.925 447.162 271.727 457.372 271.554C472.232 271.302 487.086 271.023 501.938 270.438C515.293 269.914 528.636 269.895 542 270C542.147 268.364 542.147 268.364 542.297 266.695C544.521 243.534 549.618 221.228 565 203C565.791 202.022 565.791 202.022 566.598 201.023C568.335 198.948 570.148 196.974 572 195C572.428 194.534 572.857 194.067 573.298 193.587C581.4 184.83 590.171 177.846 600.104 171.26C601.702 170.198 603.283 169.108 604.859 168.012C616.592 160.087 631.603 151.504 646 152Z" fill="#98C353"/>
<path d="M646 152C645.312 157.138 643.631 158.728 639.75 161.93C635.023 165.488 630.121 168.787 625.227 172.109C603.264 187.059 578.835 204.324 568.816 229.973C568 232 568 232 566.531 234.75C564.812 238.399 563.822 242.025 562.938 245.938C562.777 246.596 562.617 247.254 562.451 247.932C560.764 255.2 559.922 262.604 559 270C559.963 269.99 560.926 269.979 561.918 269.968C565.517 269.932 569.116 269.909 572.715 269.89C574.267 269.88 575.82 269.867 577.373 269.849C579.614 269.825 581.856 269.813 584.098 269.805C584.783 269.794 585.469 269.784 586.176 269.773C593.137 269.772 598.605 271.044 603.812 275.75C604.561 276.405 605.31 277.06 606.082 277.734C619.29 293.336 613.188 333.434 613.185 352.927C613.185 356.237 613.192 359.547 613.206 362.857C613.279 380.788 613.093 398.663 612.102 416.57C612.062 417.306 612.022 418.042 611.981 418.8C611.458 428.24 610.542 437.575 609.188 446.938C608.909 448.875 608.909 448.875 608.624 450.852C608.466 451.935 608.308 453.017 608.145 454.133C606.146 468.417 605.053 482.825 603.751 497.185C601.966 516.834 601.966 516.834 600.977 525.668C600.836 526.933 600.695 528.198 600.549 529.501C600 533 600 533 599.013 536.39C597.826 540.619 597.298 544.734 596.816 549.09C596.715 549.952 596.614 550.814 596.51 551.703C596.189 554.447 595.875 557.192 595.562 559.938C593.249 580.269 593.249 580.269 591.465 589.273C590.006 596.672 589.055 604.053 588.235 611.543C587.831 615.229 587.408 618.913 586.984 622.598C586.902 623.32 586.819 624.042 586.734 624.786C585.682 633.884 584.374 642.945 583 652C582.34 652 581.68 652 581 652C580.951 653.091 580.902 654.181 580.852 655.305C580.323 666.264 579.425 677.12 578 688C577.838 689.392 577.838 689.392 577.672 690.812C576.689 696.964 573.591 701.817 569 706C562.07 710.323 556.212 710.649 548.152 710.738C546.211 710.781 546.211 710.781 544.23 710.824C539.82 710.915 535.41 710.959 531 711C529.378 711.017 527.757 711.034 526.135 711.051C515.465 711.156 504.795 711.186 494.124 711.185C490.418 711.185 486.712 711.192 483.007 711.206C398.268 711.512 398.268 711.512 387 704C385.615 703.68 384.216 703.414 382.812 703.188C374.19 701.357 367.938 696.206 363 689C361.364 685.749 360.142 682.451 359 679C358.768 678.376 358.536 677.751 358.297 677.108C356.022 670.781 354.934 664.447 353.938 657.812C353.618 655.714 353.294 653.616 352.965 651.52C352.827 650.603 352.689 649.686 352.547 648.741C352.046 645.928 352.046 645.928 351.002 643.021C350.012 640.036 349.456 637.249 349 634.141C348.836 633.033 348.672 631.925 348.503 630.784C348.337 629.618 348.171 628.452 348 627.25C347.825 626.05 347.65 624.85 347.469 623.614C346.371 615.975 345.383 608.332 344.684 600.646C344.387 597.585 343.938 594.789 343.066 591.836C341.515 586.257 340.831 580.608 340.062 574.875C339.889 573.609 339.716 572.343 339.537 571.039C338.159 560.74 337.047 550.423 336.127 540.072C335.595 534.42 334.835 528.999 333.543 523.469C331.628 514.966 330.879 506.398 330.12 497.726C329.877 494.965 329.621 492.206 329.363 489.447C327.536 469.533 326.798 449.681 326.812 429.688C326.812 428.676 326.811 427.664 326.81 426.622C326.812 408.374 327.402 390.175 328.288 371.95C328.38 370.059 328.471 368.168 328.562 366.277C328.606 365.386 328.649 364.495 328.693 363.577C329.038 356.046 329.106 348.538 329 341C328.479 341.654 327.958 342.308 327.421 342.982C316.349 356.867 304.99 370.466 293.062 383.625C292.228 384.545 291.394 385.466 290.535 386.414C283.229 393.866 283.229 393.866 279.125 394.312C278.073 394.158 278.073 394.158 277 394C276.494 389.954 277.011 387.602 279.191 384.266C279.647 383.564 280.102 382.863 280.572 382.141C281.043 381.434 281.514 380.728 282 380C282.428 379.355 282.856 378.711 283.298 378.047C284.602 376.105 285.922 374.176 287.25 372.25C287.965 371.211 287.965 371.211 288.695 370.152C292.306 364.936 296.049 359.844 299.887 354.793C301.96 352.053 303.986 349.284 306 346.5C317.833 330.167 317.833 330.167 320 328C319.412 327.971 318.824 327.942 318.219 327.912C304.28 327.142 290.278 326.215 279 317C279.33 315.35 279.66 313.7 280 312C288.488 310.771 296.906 309.855 305.48 309.543C306.276 309.512 307.072 309.481 307.891 309.449C311.158 309.325 314.425 309.207 317.694 309.122C320.124 309.055 322.551 308.957 324.98 308.855C325.714 308.844 326.447 308.832 327.203 308.82C331.093 308.633 332.871 308.104 335.939 305.634C338.149 303.114 338.149 303.114 339 300C337.35 299.67 335.7 299.34 334 299C334 298.34 334 297.68 334 297C333.34 296.794 332.68 296.588 332 296.375C327.868 294.481 324.548 291.815 321 289C320.448 288.573 319.897 288.147 319.328 287.707C315.708 284.824 312.909 281.581 310 278C309.223 277.227 308.445 276.453 307.645 275.656C305.034 273.034 302.625 270.337 300.25 267.5C299.471 266.582 298.693 265.664 297.891 264.719C296.003 262.005 295.353 260.249 295 257C301.299 256.465 305.369 258.175 310.938 261C311.717 261.382 312.496 261.763 313.299 262.156C315.205 263.092 317.104 264.044 319 265C319 265.66 319 266.32 319 267C319.722 267.268 320.444 267.536 321.188 267.812C323.998 268.999 326.484 270.275 329 272C329 272.66 329 273.32 329 274C329.579 274.271 330.158 274.541 330.754 274.82C333.009 276.005 334.916 277.33 336.938 278.875C337.63 279.404 338.322 279.932 339.035 280.477C345.451 285.451 345.451 285.451 348 288C348.66 287.34 349.32 286.68 350 286C349.729 284.056 349.729 284.056 349 282C346.942 274.601 346.729 267.594 346.812 259.938C346.813 258.239 346.813 258.239 346.814 256.506C346.859 247.951 347.043 240.442 350.562 232.5C351.018 231.458 351.473 230.417 351.941 229.344C352.465 228.184 352.465 228.184 353 227C354.902 227.281 354.902 227.281 357 228C358.202 230.692 359.126 233.205 360 236C360.374 237.008 360.374 237.008 360.755 238.037C362.879 243.856 363.695 249.407 364.188 255.562C364.269 256.476 364.351 257.389 364.436 258.33C364.633 260.553 364.821 262.776 365 265C365.606 264.212 366.212 263.425 366.836 262.613C373.724 253.659 380.612 244.704 387.5 235.75C388.12 234.944 388.12 234.944 388.752 234.122C389.579 233.048 390.405 231.973 391.232 230.899C393.42 228.057 395.603 225.212 397.781 222.363C398.236 221.769 398.691 221.175 399.16 220.562C400.034 219.421 400.906 218.28 401.777 217.137C403.436 214.973 405.069 212.931 407 211C406.928 207.094 406.737 204.808 404.062 201.875C388.662 192.446 374.213 188.636 356.282 188.684C353.835 188.687 351.39 188.664 348.943 188.639C337.168 188.592 325.964 189.631 314.953 194.211C313 195 313 195 310.672 195.727C284.567 204.09 263.57 224.977 250.68 248.645C248.169 253.66 245.989 258.757 244 264C243.76 264.595 243.52 265.19 243.272 265.802C241.265 270.888 239.96 275.96 238.875 281.312C238.703 282.152 238.531 282.992 238.355 283.857C237.151 289.902 236.209 295.83 236 302C235.948 303.149 235.897 304.297 235.844 305.48C235.438 322.331 237.916 338.474 244.24 354.119C244.971 355.929 245.666 357.753 246.359 359.578C248.374 364.728 249.984 368.155 254 372C254.89 373.31 255.744 374.645 256.562 376C259.629 380.741 263.265 384.749 267.129 388.838C269.6 391.452 271.916 394.066 274 397C265.553 395.254 259.536 388.815 253.625 382.938C253.018 382.336 252.411 381.734 251.786 381.115C244 373.204 244 373.204 244 369C243.34 369 242.68 369 242 369C240.554 366.359 239.118 363.712 237.688 361.062C237.283 360.327 236.879 359.592 236.463 358.834C233.701 353.692 231.691 348.58 230 343C229.608 341.804 229.216 340.607 228.813 339.375C227.952 335.801 227.851 332.662 228 329C227.34 329 226.68 329 226 329C221.43 309.659 223.04 287.133 228 268C228.66 268 229.32 268 230 268C230.083 266.886 230.165 265.773 230.25 264.625C230.941 259.325 232.832 254.857 235 250C235.267 249.379 235.534 248.758 235.809 248.119C242.278 233.13 250.654 220.766 262 209C262.483 208.497 262.966 207.993 263.463 207.475C265.029 205.849 266.606 204.235 268.188 202.625C268.675 202.125 269.162 201.624 269.664 201.109C272.863 197.903 276.175 195.409 280 193C280.906 192.389 281.812 191.778 282.746 191.148C287.762 187.843 292.083 185.183 298 184C298 183.34 298 182.68 298 182C330.485 168.893 367.725 164.995 400.812 178.75C403.226 179.8 405.614 180.887 408 182C408 182.66 408 183.32 408 184C408.99 184.278 408.99 184.278 410 184.562C415.23 187.068 419.843 190.733 422.5 195.938C422.665 196.618 422.83 197.299 423 198C423.66 198 424.32 198 425 198C427.421 202.842 426.736 209.583 425.199 214.629C422.48 220.451 418.6 225.21 414.457 230.082C411.871 233.153 409.427 236.304 407 239.5C403.134 244.57 399.146 249.523 395.094 254.445C393.145 256.823 391.216 259.212 389.312 261.625C388.814 262.257 388.315 262.888 387.801 263.539C385.07 267.271 382.544 271.139 380 275C384.542 274.861 389.083 274.712 393.625 274.562C395.553 274.504 395.553 274.504 397.52 274.443C398.763 274.401 400.007 274.36 401.289 274.316C402.431 274.28 403.572 274.243 404.749 274.205C407.938 274.063 407.938 274.063 410.804 273.513C415.142 272.816 419.454 272.65 423.84 272.469C425.282 272.406 425.282 272.406 426.753 272.343C436.956 271.925 447.162 271.727 457.372 271.554C472.232 271.302 487.086 271.023 501.938 270.438C515.293 269.914 528.636 269.895 542 270C542.147 268.364 542.147 268.364 542.297 266.695C544.521 243.534 549.618 221.228 565 203C565.791 202.022 565.791 202.022 566.598 201.023C568.335 198.948 570.148 196.974 572 195C572.428 194.534 572.857 194.067 573.298 193.587C581.4 184.83 590.171 177.846 600.104 171.26C601.702 170.198 603.283 169.108 604.859 168.012C616.592 160.087 631.603 151.504 646 152ZM336 372C335.953 381.869 335.918 391.737 335.896 401.606C335.886 406.191 335.872 410.776 335.849 415.362C335.75 435.662 335.747 455.794 338 476C338.085 476.791 338.17 477.582 338.258 478.397C338.774 483.128 339.369 487.845 340 492.562C340.165 493.861 340.33 495.16 340.5 496.498C341.228 502.056 342.019 507.451 343.5 512.856C344.731 518.134 345.279 523.57 346 528.938C346.33 531.385 346.663 533.831 347 536.277C347.144 537.352 347.289 538.427 347.438 539.535C347.867 542.179 348.375 544.73 348.975 547.335C350.033 551.982 350.75 556.637 351.402 561.355C351.656 563.131 351.909 564.906 352.162 566.682C352.55 569.428 352.936 572.174 353.32 574.921C354.658 584.445 356.096 593.849 358.217 603.236C360.193 612.731 361.524 622.364 363.023 631.945C363.471 634.797 363.925 637.649 364.379 640.5C364.512 641.366 364.646 642.231 364.783 643.123C365.5 647.608 366.502 651.698 368 656C368.308 657.675 368.572 659.358 368.789 661.047C370.602 674.73 370.602 674.73 377.707 686.293C399.125 702.238 443.031 696.35 468.832 696.258C471.218 696.25 473.604 696.245 475.99 696.241C496.439 696.198 516.876 695.987 537.312 695.25C538.317 695.219 539.321 695.189 540.355 695.157C543.13 695.069 545.902 694.953 548.676 694.828C549.872 694.793 549.872 694.793 551.092 694.758C554.345 694.581 556.649 694.218 559.434 692.484C561.65 688.969 561.98 685.469 562.379 681.422C562.526 680.156 562.526 680.156 562.677 678.864C562.988 676.161 563.277 673.456 563.562 670.75C563.951 667.223 564.35 663.697 564.754 660.172C564.852 659.302 564.951 658.433 565.052 657.537C565.674 652.22 566.485 646.984 567.527 641.734C569.118 633.69 570.098 625.643 571 617.5C571.976 608.685 573.133 600.019 574.854 591.311C576.586 582.298 577.524 573.176 578.562 564.062C578.772 562.256 578.983 560.449 579.193 558.643C579.997 551.741 580.798 544.839 581.562 537.933C581.651 537.141 581.74 536.349 581.832 535.534C582 534.043 582.165 532.552 582.325 531.06C582.887 526.113 582.887 526.113 584 525C584.412 521.909 584.766 518.828 585.086 515.727C585.188 514.774 585.291 513.822 585.396 512.841C585.835 508.763 586.264 504.684 586.692 500.604C587.747 490.616 588.823 480.674 590.527 470.773C592.429 459.487 593.163 448.107 593.935 436.697C594.185 433.032 594.454 429.37 594.725 425.707C595.88 409.451 596.232 393.294 596 377C591.52 377.639 587.041 378.287 582.562 378.938C581.283 379.12 580.004 379.302 578.686 379.49C576.863 379.756 576.863 379.756 575.004 380.027C573.878 380.19 572.752 380.352 571.592 380.519C569.079 380.732 569.079 380.732 568 382C566.253 382.217 564.498 382.372 562.742 382.5C561.089 382.624 561.089 382.624 559.402 382.75C558.238 382.833 557.074 382.915 555.875 383C554.765 383.083 553.655 383.165 552.512 383.25C550.266 383.415 548.02 383.577 545.773 383.733C543.399 383.901 541.025 384.076 538.652 384.262C528.794 384.996 518.998 385.163 509.117 385.168C507.411 385.171 505.705 385.175 503.999 385.178C500.431 385.184 496.862 385.186 493.294 385.185C489.721 385.185 486.147 385.192 482.574 385.206C463.528 385.278 444.531 385.116 425.508 384.113C424.736 384.074 423.965 384.035 423.17 383.995C415.721 383.609 408.439 383.112 401.14 381.466C397.789 380.736 394.446 380.399 391.035 380.035C389.569 379.875 388.103 379.715 386.637 379.554C385.889 379.474 385.141 379.394 384.37 379.311C373.787 378.171 363.204 377.029 352.688 375.375C351.608 375.209 351.608 375.209 350.506 375.039C346.508 374.381 342.831 373.294 339 372C338.01 372 337.02 372 336 372Z" fill="#262724"/>
<path d="M350.903 187.684C353.363 187.687 355.822 187.664 358.281 187.639C374.994 187.571 391.771 191.018 405 202C407.069 204.218 407.916 205.484 408.406 208.492C407.886 211.704 406.775 212.824 404.5 215.125C401.544 218.272 398.874 221.416 396.375 224.938C392.161 230.855 387.702 236.566 383.224 242.286C379.045 247.632 374.962 253.034 370.965 258.52C368.821 261.226 366.482 263.604 364 266C363.966 265.448 363.931 264.895 363.896 264.326C363.248 254.636 362.491 245.133 359.625 235.812C359.33 234.817 359.33 234.817 359.029 233.801C358.064 230.906 357.426 229.281 354.836 227.574C354.23 227.385 353.624 227.195 353 227C352.897 227.866 352.794 228.733 352.688 229.625C352 233 352 233 350.5 235.875C346.991 243.186 347.817 251.995 347.812 259.938C347.8 261.066 347.788 262.195 347.775 263.357C347.764 269.865 348.256 275.73 350 282C350.336 283.333 350.67 284.666 351 286C349.02 287.485 349.02 287.485 347 289C346.67 288.01 346.34 287.02 346 286C344.691 285.287 343.353 284.625 342 284C340.845 283.077 339.72 282.117 338.625 281.125C335.585 278.444 332.387 276.232 329 274C328.526 273.505 328.051 273.01 327.562 272.5C325.054 270.092 322.043 268.665 319 267C319 266.34 319 265.68 319 265C318.237 264.773 317.474 264.546 316.688 264.312C313.51 263.181 310.602 261.886 307.562 260.438C303.264 258.441 299.715 257.314 295 257C298.49 264.998 303.622 270.622 309.75 276.75C312 279 312 279 313.809 281.355C319.237 287.907 326.447 293.14 334 297C334 297.66 334 298.32 334 299C335.65 299.33 337.3 299.66 339 300C338.522 304.306 336.268 306.331 333 309C330.147 309.553 327.839 309.81 324.98 309.855C324.204 309.888 323.428 309.921 322.628 309.954C320.148 310.054 317.669 310.122 315.188 310.188C311.951 310.296 308.716 310.417 305.48 310.543C304.296 310.586 304.296 310.586 303.087 310.63C295.326 310.95 287.682 311.888 280 313C280.343 315.462 280.343 315.462 281 318C283.047 319.37 283.047 319.37 285.625 320.125C288.566 321.147 291.297 322.148 294.09 323.543C299.133 325.737 304.514 325.821 309.938 326.188C311.536 326.31 311.536 326.31 313.166 326.436C315.777 326.635 318.388 326.822 321 327C314.913 336.299 314.913 336.299 311.375 340.5C306.567 346.404 302.258 352.637 297.898 358.875C295.525 362.268 293.092 365.611 290.625 368.938C287.584 373.085 284.887 377.351 282.324 381.809C281 384 281 384 279.375 386.082C277.554 388.623 277.348 390.934 277 394C277.99 394.33 278.98 394.66 280 395C279.361 395.124 278.721 395.248 278.062 395.375C277.382 395.581 276.701 395.787 276 396C275.67 396.66 275.34 397.32 275 398C273.68 397.67 272.36 397.34 271 397C271.66 396.67 272.32 396.34 273 396C271.948 395 271.948 395 270.875 393.98C256.145 379.758 256.145 379.758 252.973 371.242C252.652 370.502 252.331 369.762 252 369C251.01 368.67 250.02 368.34 249 368C247.973 366.086 247.973 366.086 247.062 363.59C246.556 362.228 246.556 362.228 246.039 360.838C245.525 359.402 245.525 359.402 245 357.938C244.486 356.542 244.486 356.542 243.961 355.119C243.281 353.273 242.608 351.425 241.943 349.574C241.367 348.001 240.771 346.435 240.141 344.883C238.033 339.675 237.062 334.558 236.312 329C236.186 328.083 236.059 327.166 235.929 326.221C233.796 309.695 235.073 293.817 238.875 277.625C239.132 276.476 239.388 275.328 239.652 274.145C239.909 273.037 240.165 271.93 240.43 270.789C240.659 269.796 240.888 268.803 241.125 267.78C242.05 264.842 243.345 262.585 245 260C245.617 258.492 246.2 256.971 246.75 255.438C251.007 244.609 257.459 235.765 265 227C265.919 225.877 266.836 224.752 267.75 223.625C279.676 209.712 296.455 198.561 314.176 193.766C316.609 193.106 318.857 192.324 321.188 191.375C330.894 187.703 340.664 187.657 350.903 187.684Z" fill="#F4E94D"/>
<path d="M373.154 285.883C374.11 285.887 375.065 285.891 376.05 285.895C377.137 285.897 378.224 285.899 379.344 285.901C380.543 285.908 381.742 285.916 382.978 285.924C384.856 285.93 384.856 285.93 386.773 285.936C390.161 285.949 393.549 285.967 396.937 285.987C398.951 286 400.964 286.011 402.977 286.021C412.021 286.07 421.065 286.134 430.109 286.202C433.958 286.231 437.807 286.258 441.656 286.286C448.894 286.338 456.132 286.392 463.37 286.445C471.632 286.507 479.893 286.567 488.155 286.627C505.103 286.75 522.052 286.874 539 287C539.039 291.813 539.054 296.575 538.589 301.37C538.498 302.323 538.408 303.275 538.315 304.257C538.165 305.762 538.165 305.762 538.012 307.297C537.856 308.901 537.856 308.901 537.697 310.538C537.476 312.797 537.253 315.056 537.029 317.315C536.693 320.698 536.366 324.081 536.041 327.465C534.715 341.038 533.039 354.516 531 368C514.138 368.942 497.32 369.163 480.434 369.168C479.084 369.169 477.735 369.171 476.386 369.173C469.299 369.182 462.212 369.186 455.125 369.185C449.374 369.185 443.624 369.192 437.874 369.206C403.871 369.287 369.958 368.983 336 367C335.959 365.871 335.918 364.743 335.876 363.58C335.849 362.854 335.823 362.128 335.795 361.379C335.738 359.793 335.681 358.206 335.625 356.62C335.51 353.358 335.39 350.099 335.221 346.84C334.701 336.741 335.357 329.875 342.167 322.06C343.428 320.692 344.714 319.345 346 318C347.186 316.515 348.357 315.018 349.5 313.5C350.047 312.799 350.593 312.098 351.156 311.375C353.447 308.424 355.724 305.462 358 302.5C370.669 286.018 370.669 286.018 373.154 285.883Z" fill="#F5F5F5"/>
<path d="M336 372C343.875 372.875 343.875 372.875 345 374C347.272 374.409 349.555 374.759 351.84 375.086C352.899 375.238 352.899 375.238 353.979 375.394C356.298 375.725 358.617 376.05 360.938 376.375C362.115 376.542 362.115 376.542 363.317 376.713C374.947 378.362 386.585 379.85 398.265 381.099C399.25 381.206 400.235 381.312 401.25 381.422C402.101 381.51 402.952 381.599 403.828 381.69C406 382 406 382 409 383C414.366 383.509 419.755 383.758 425.137 384.047C425.953 384.091 426.769 384.136 427.61 384.181C445.62 385.139 463.608 385.309 481.64 385.261C485.963 385.249 490.286 385.256 494.609 385.268C533.274 386.953 533.274 386.953 570.852 381.039C575.591 379.475 580.436 379 585.375 378.375C586.397 378.241 587.419 378.107 588.473 377.969C590.981 377.641 593.49 377.318 596 377C596.145 381.437 596.234 385.874 596.312 390.312C596.354 391.575 596.396 392.838 596.439 394.139C596.456 395.347 596.472 396.556 596.488 397.801C596.514 398.916 596.541 400.032 596.568 401.181C596 404 596 404 593.642 405.845C588.02 408.302 582.219 408.193 576.188 408.188C575.321 408.187 574.455 408.187 573.563 408.187C566.614 408.129 559.734 407.661 552.812 407.062C462.207 397.956 462.207 397.956 380 427C379.092 427.598 378.185 428.196 377.25 428.812C363.972 441.722 361.212 465.158 360.82 482.707C360.59 499.689 361.205 516.137 364.766 532.762C364.939 533.576 365.112 534.389 365.29 535.228C367.342 544.759 369.664 554.223 372 563.688C372.43 565.441 372.86 567.194 373.289 568.947C374.52 573.966 375.758 578.984 377 584C377.191 584.773 377.382 585.546 377.579 586.343C378.119 588.524 378.661 590.706 379.203 592.887C379.662 594.733 379.662 594.733 380.13 596.616C380.949 599.803 381.844 602.962 382.75 606.125C385.788 619.828 386.024 633.806 379.117 646.223C376.621 649.498 374.365 651.618 371 654C369.68 654 368.36 654 367 654C364.149 640 361.859 625.955 359.839 611.815C358.962 605.758 358.011 599.781 356.539 593.832C354.302 584.573 353.213 575.116 351.938 565.688C351.553 562.861 351.167 560.035 350.776 557.209C350.534 555.465 350.297 553.721 350.064 551.977C349.542 548.197 348.929 544.516 347.975 540.82C347.083 537.324 346.477 533.947 346 530.375C345.835 529.174 345.67 527.972 345.5 526.734C345 523 345 523 344.5 519.266C344.335 518.064 344.17 516.863 344 515.625C343.856 514.545 343.711 513.465 343.562 512.352C343.143 509.85 342.641 507.508 342.002 505.064C341 501.182 340.434 497.33 339.965 493.344C339.881 492.638 339.798 491.933 339.712 491.206C339.537 489.721 339.365 488.235 339.195 486.749C338.941 484.532 338.677 482.317 338.412 480.102C338.242 478.641 338.072 477.18 337.902 475.719C337.753 474.429 337.603 473.139 337.449 471.811C336.129 458.585 335.86 445.434 335.902 432.156C335.904 430.408 335.906 428.66 335.907 426.911C335.91 422.367 335.92 417.824 335.931 413.28C335.942 408.62 335.946 403.961 335.951 399.301C335.962 390.201 335.979 381.1 336 372Z" fill="#ACD564"/>
<path d="M592 453C592.137 458.702 591.66 463.919 590.664 469.523C588.768 480.841 587.574 492.216 586.375 503.625C585.95 507.659 585.52 511.693 585.086 515.727C584.944 517.106 584.944 517.106 584.799 518.513C584.113 524.887 584.113 524.887 583 526C582.742 527.414 582.542 528.839 582.367 530.266C582.254 531.175 582.14 532.084 582.023 533.021C581.903 534.016 581.784 535.01 581.66 536.035C581.533 537.061 581.406 538.087 581.275 539.144C580.867 542.45 580.465 545.756 580.062 549.062C579.795 551.235 579.528 553.408 579.26 555.58C578.317 563.235 577.375 570.891 576.451 578.548C575.23 588.591 573.733 598.578 572.177 608.573C570.898 616.806 569.723 625.037 568.72 633.309C567.998 639.195 567.055 645.03 566.062 650.875C564.926 657.652 563.917 664.409 563.215 671.246C563.093 672.428 562.971 673.609 562.845 674.827C562.619 677.107 562.409 679.39 562.215 681.673C562.113 682.705 562.011 683.737 561.906 684.801C561.827 685.71 561.748 686.619 561.666 687.556C560.767 690.855 559.809 692.031 557 694C554.114 694.497 551.578 694.744 548.676 694.828C547.814 694.867 546.953 694.906 546.065 694.946C543.148 695.069 540.231 695.161 537.312 695.25C536.298 695.287 535.284 695.323 534.239 695.361C513.813 696.098 493.375 696.208 472.937 696.245C470.516 696.25 468.094 696.258 465.673 696.266C461.795 696.278 457.917 696.278 454.038 696.269C452.609 696.267 451.179 696.268 449.749 696.272C439.672 696.299 429.951 695.448 420 694C420 693.67 420 693.34 420 693C420.696 692.92 421.391 692.839 422.108 692.756C425.281 692.386 428.453 692.005 431.625 691.625C432.719 691.499 433.814 691.372 434.941 691.242C440.199 690.605 445.032 689.923 450 688C451.58 687.571 453.163 687.154 454.75 686.75C489.722 677.217 529.759 660.59 548.914 627.809C567.074 595.171 572.948 558.548 573.842 521.547C573.972 519.451 574.214 517.362 574.486 515.279C575.069 510.785 575.266 506.311 575.43 501.785C575.503 500.029 575.578 498.273 575.652 496.518C575.766 493.788 575.875 491.059 575.974 488.329C576.072 485.668 576.187 483.008 576.305 480.348C576.33 479.544 576.355 478.741 576.381 477.913C576.705 471.055 577.875 464.585 582.312 459.188C589.914 453 589.914 453 592 453Z" fill="#8CB24D"/>
<path d="M558 286C562.645 285.951 567.289 285.914 571.934 285.89C573.514 285.88 575.095 285.866 576.675 285.849C578.946 285.825 581.217 285.814 583.488 285.805C584.195 285.794 584.901 285.784 585.629 285.773C589.322 285.773 590.839 285.893 594 288C594.508 290.141 594.508 290.141 594.695 292.82C594.771 293.818 594.846 294.815 594.924 295.843C594.991 296.926 595.057 298.009 595.125 299.125C595.203 300.249 595.281 301.372 595.361 302.53C595.594 306.019 595.801 309.509 596 313C596.059 314.016 596.119 315.033 596.18 316.08C597.092 332.383 597.118 348.675 597 365C580.664 365.611 564.351 366.185 548 366C547.903 359.875 548.213 354.008 549 347.938C549.095 347.167 549.191 346.397 549.289 345.604C549.521 343.735 549.76 341.867 550 340C550.66 340 551.32 340 552 340C552.037 338.942 552.075 337.883 552.113 336.793C552.533 326.608 553.384 316.508 554.5 306.375C554.631 305.171 554.761 303.968 554.896 302.727C555.023 301.608 555.15 300.489 555.281 299.336C555.395 298.331 555.509 297.326 555.627 296.291C556 294 556 294 557 293C557.368 290.672 557.702 288.338 558 286Z" fill="#F1F1F1"/>
<path d="M276 215C276.66 215 277.32 215 278 215C276.523 218.452 274.562 220.65 271.875 223.25C271.151 223.956 270.426 224.663 269.68 225.391C269.125 225.922 268.571 226.453 268 227C267.34 226.67 266.68 226.34 266 226C268.778 222.398 271.741 219.171 275 216C275.33 215.67 275.66 215.34 276 215Z" fill="#CEC643"/>
<path d="M329 340C329.33 340 329.66 340 330 340C330 345.28 330 350.56 330 356C329.67 356 329.34 356 329 356C328.67 352.37 328.34 348.74 328 345C326.02 345.99 326.02 345.99 324 347C327.875 341.125 327.875 341.125 329 340Z" fill="#B5B5B5"/>
<path d="M267 390C269.31 391.98 271.62 393.96 274 396C273.01 396.33 272.02 396.66 271 397C267.812 395.062 267.812 395.062 265 393C265.66 392.67 266.32 392.34 267 392C267 391.34 267 390.68 267 390Z" fill="#625F2C"/>
</svg>
