<svg width="71" height="66" viewBox="0 0 71 66" fill="none" xmlns="http://www.w3.org/2000/svg">
<path d="M31.757 1.13869C32.9831 2.20367 33.6942 3.00639 33.9662 4.63325C33.972 5.72384 33.972 5.72384 33.7858 7.52149C33.6732 7.25556 33.5605 6.98963 33.4445 6.71565C32.4479 4.91466 31.1897 3.00175 29.3169 2.06657C27.8482 1.81857 27.8482 1.81857 26.3376 2.06657C25.2553 3.18233 24.8645 3.97916 24.8188 5.54175C24.9457 7.0028 25.1802 8.23701 25.9341 9.50509C27.2972 10.2562 28.2841 10.188 29.8134 10.001C30.8911 9.28694 30.8911 9.28694 31.7996 8.51329C32.2912 8.51329 32.7828 8.51329 33.2893 8.51329C33.1225 10.068 32.7795 10.5094 31.6134 11.6127C30.31 12.4805 30.31 12.4805 28.8203 12.4805C28.8203 15.9171 28.8203 19.3537 28.8203 22.8944C29.7728 22.4853 30.7252 22.0762 31.7065 21.6547C34.5927 20.4149 34.5927 20.4149 36.2686 20.4149C36.2686 20.0876 36.2686 19.7603 36.2686 19.4231C36.5466 19.3232 36.8246 19.2232 37.111 19.1202C38.3723 18.6654 39.6325 18.2074 40.8927 17.7495C41.3302 17.5922 41.7677 17.4349 42.2185 17.2729C42.6393 17.1195 43.0602 16.9661 43.4938 16.808C43.8813 16.6678 44.2687 16.5276 44.6679 16.3831C45.8229 15.9406 45.8229 15.9406 47.1927 14.96C48.4807 14.8457 48.4807 14.8457 49.9238 14.867C50.4 14.8702 50.8762 14.8734 51.3669 14.8767C52.6548 14.96 52.6548 14.96 54.1445 15.4559C54.1445 15.7832 54.1445 16.1105 54.1445 16.4477C54.4174 16.531 54.6903 16.6143 54.9715 16.7001C57.7505 17.5819 60.314 18.6636 62.8962 20.012C63.2495 20.1849 63.6028 20.3578 63.9669 20.536C66.6916 21.9539 69.0972 23.5838 70.5307 26.3657C70.9771 28.8405 70.9049 31.2716 70.81 33.7733C70.7952 34.4923 70.7816 35.2112 70.7691 35.9303C70.2405 60.9734 70.2405 60.9734 68.4514 64.8291C67.099 65.9003 66.279 65.7244 64.572 65.542C63.1528 64.9399 61.8554 64.1684 60.5376 63.3724C59.8433 62.9653 59.1489 62.5585 58.4544 62.152C58.1509 61.9702 57.8474 61.7885 57.5347 61.6012C56.5877 61.0561 55.6229 60.5662 54.641 60.0871C54.641 59.7598 54.641 59.4325 54.641 59.0953C54.2826 58.9623 53.9241 58.8293 53.5548 58.6923C52.1583 58.1035 52.1582 58.1035 50.9789 57.2666C48.1845 55.8712 44.6964 57.4984 41.8548 58.3824C37.9537 59.5912 37.9537 59.5912 36.2686 59.5912C36.2686 59.9185 36.2686 60.2457 36.2686 60.583C35.8186 60.7089 35.3686 60.8348 34.905 60.9646C29.1528 62.4755 29.1528 62.4755 23.6376 64.6432C21.5904 65.2914 19.5152 65.4074 17.3996 65.0461C16.5416 64.5879 15.6848 64.1256 14.8543 63.6194C13.2835 62.6793 11.6268 61.912 9.98239 61.1099C1.81128 57.0564 1.81128 57.0564 0.516873 54.1362C0.326537 52.5092 0.36665 50.9019 0.408253 49.2663C0.414514 48.788 0.420774 48.3097 0.427225 47.8169C0.449379 46.2865 0.482546 44.7566 0.516873 43.2264C0.534723 42.2322 0.552184 41.238 0.569244 40.2437C0.623254 37.2911 0.693202 34.339 0.765149 31.3868C0.789188 30.3614 0.813111 29.336 0.836917 28.3106C0.894427 25.844 0.953474 23.3774 1.01343 20.9108C1.17729 20.9108 1.34115 20.9108 1.50998 20.9108C2.24418 25.9013 2.57651 30.7651 2.46041 35.8111C2.44515 36.5813 2.44515 36.5812 2.42959 37.3669C2.38472 39.4906 2.33489 41.6135 2.25796 43.7364C2.20393 45.3099 2.17503 46.8824 2.15006 48.4566C2.12644 48.9339 2.10283 49.4112 2.07849 49.903C2.04753 52.4678 2.04753 52.4678 3.34456 54.5892C5.45671 56.2104 7.73866 57.2969 10.1996 58.2894C10.5133 58.4179 10.8269 58.5464 11.1501 58.6788C11.907 58.988 12.6668 59.2904 13.4272 59.5912C13.4272 59.9185 13.4272 60.2457 13.4272 60.583C15.0658 61.0739 16.7045 61.5648 18.3927 62.0707C18.3849 61.5202 18.3849 61.5202 18.377 60.9585C18.2435 49.8904 18.7081 38.8994 19.3858 27.8535C18.9396 27.7932 18.4933 27.733 18.0335 27.6709C16.5386 27.383 15.5341 27.0261 14.2089 26.3115C13.6151 25.9951 13.6151 25.9951 13.0092 25.6723C12.4019 25.3405 12.4019 25.3405 11.7824 25.002C11.3833 24.7885 10.9842 24.575 10.573 24.355C9.77108 23.9246 8.97118 23.4904 8.17342 23.0523C7.35807 22.6086 6.53679 22.1756 5.71054 21.7525C5.31073 21.5438 4.91091 21.3351 4.49899 21.12C4.13914 20.9364 3.77929 20.7528 3.40854 20.5636C2.34702 19.8079 1.99399 19.1288 1.50998 17.9354C2.65701 18.2627 3.80405 18.59 4.98584 18.9272C4.98584 19.2545 4.98584 19.5818 4.98584 19.919C5.59008 20.1031 6.19432 20.2872 6.81687 20.4769C9.43278 21.3409 11.8827 22.4976 14.3641 23.6867C16.5875 24.6869 18.6314 25.516 21.0927 25.4979C21.6141 25.5018 21.6141 25.5018 22.146 25.5057C23.7732 25.3289 25.2723 24.8597 26.8341 24.3821C26.8372 22.3565 26.8077 20.3326 26.772 18.3073C26.7733 17.7327 26.7746 17.158 26.7759 16.5659C26.7393 14.9847 26.6753 13.5304 26.3376 11.9846C24.9732 10.6157 24.9732 10.6157 23.3583 10.001C22.1799 8.54963 21.8886 7.67864 21.6514 5.81683C21.9119 3.69824 22.4663 2.68629 23.8548 1.07477C26.2003 -0.464533 29.3696 -0.267523 31.757 1.13869Z" fill="#D6DA4F"/>
<path d="M50.172 17.4395C54.4394 17.8932 54.4394 17.8932 56.0783 18.7296C56.3963 18.8893 56.7144 19.0489 57.0421 19.2134C57.528 19.4707 57.528 19.4707 58.0238 19.7331C58.3657 19.9097 58.7075 20.0863 59.0598 20.2682C67.4937 24.6885 67.4937 24.6885 68.5445 27.3576C68.7709 29.6013 68.7104 31.8603 68.6996 34.1142C68.6995 34.62 68.6995 34.62 68.6994 35.136C68.6837 44.799 67.8476 54.4299 67.0548 64.0543C66.2355 64.0543 65.4162 64.0543 64.572 64.0543C64.572 63.727 64.572 63.3997 64.572 63.0625C64.172 63.0292 63.7719 62.996 63.3598 62.9617C61.0295 62.4406 59.2132 61.3916 57.1548 60.211C56.7711 59.9975 56.3873 59.784 55.992 59.564C53.6068 58.219 51.3803 56.7557 49.1789 55.128C49.2499 54.7336 49.3209 54.3392 49.394 53.9328C50.466 46.9391 50.2865 39.9122 50.2402 32.8559C50.2299 31.1136 50.2255 29.3712 50.2205 27.6288C50.21 24.2323 50.1931 20.8359 50.172 17.4395Z" fill="#D7DB50"/>
<path d="M31.757 1.13869C32.9831 2.20367 33.6942 3.00639 33.9662 4.63325C33.972 5.72384 33.972 5.72384 33.7858 7.52149C33.6732 7.25556 33.5605 6.98963 33.4445 6.71565C32.4479 4.91466 31.1897 3.00175 29.3169 2.06657C27.8482 1.81857 27.8482 1.81857 26.3376 2.06657C25.2553 3.18233 24.8645 3.97916 24.8188 5.54175C24.9457 7.0028 25.1802 8.23701 25.9341 9.50509C27.2972 10.2562 28.2841 10.188 29.8134 10.001C30.8911 9.28694 30.8911 9.28694 31.7996 8.51329C32.2912 8.51329 32.7828 8.51329 33.2893 8.51329C33.1225 10.068 32.7795 10.5094 31.6134 11.6127C30.31 12.4805 30.31 12.4805 28.8203 12.4805C28.8203 15.9171 28.8203 19.3537 28.8203 22.8944C29.7728 22.4853 30.7252 22.0762 31.7065 21.6547C34.5927 20.4149 34.5927 20.4149 36.2686 20.4149C36.2686 20.0876 36.2686 19.7603 36.2686 19.4231C36.5466 19.3232 36.8246 19.2232 37.111 19.1202C38.3723 18.6654 39.6325 18.2074 40.8927 17.7495C41.3302 17.5922 41.7677 17.4349 42.2185 17.2729C42.6393 17.1195 43.0602 16.9661 43.4938 16.808C43.8813 16.6678 44.2687 16.5276 44.6679 16.3831C45.8229 15.9406 45.8229 15.9406 47.1927 14.96C48.4807 14.8457 48.4807 14.8457 49.9238 14.867C50.4 14.8702 50.8762 14.8734 51.3669 14.8767C52.6548 14.96 52.6548 14.96 54.1445 15.4559C54.1445 15.7832 54.1445 16.1105 54.1445 16.4477C54.4174 16.531 54.6903 16.6143 54.9715 16.7001C57.7505 17.5819 60.314 18.6636 62.8962 20.012C63.2495 20.1849 63.6028 20.3578 63.9669 20.536C66.6916 21.9539 69.0972 23.5838 70.5307 26.3657C70.9771 28.8405 70.9049 31.2716 70.81 33.7733C70.7952 34.4923 70.7816 35.2112 70.7691 35.9303C70.2405 60.9734 70.2405 60.9734 68.4514 64.8291C67.099 65.9003 66.279 65.7244 64.572 65.542C63.1528 64.9399 61.8554 64.1684 60.5376 63.3724C59.8433 62.9653 59.1489 62.5585 58.4544 62.152C58.1509 61.9702 57.8474 61.7885 57.5347 61.6012C56.5877 61.0561 55.6229 60.5662 54.641 60.0871C54.641 59.7598 54.641 59.4325 54.641 59.0953C54.2826 58.9623 53.9241 58.8293 53.5548 58.6923C52.1583 58.1035 52.1582 58.1035 50.9789 57.2666C48.1845 55.8712 44.6964 57.4984 41.8548 58.3824C37.9537 59.5912 37.9537 59.5912 36.2686 59.5912C36.2686 59.9185 36.2686 60.2457 36.2686 60.583C35.8186 60.7089 35.3686 60.8348 34.905 60.9646C29.1528 62.4755 29.1528 62.4755 23.6376 64.6432C21.5904 65.2914 19.5152 65.4074 17.3996 65.0461C16.5416 64.5879 15.6848 64.1256 14.8543 63.6194C13.2835 62.6793 11.6268 61.912 9.98239 61.1099C1.81128 57.0564 1.81128 57.0564 0.516873 54.1362C0.326537 52.5092 0.36665 50.9019 0.408253 49.2663C0.414514 48.788 0.420774 48.3097 0.427225 47.8169C0.449379 46.2865 0.482546 44.7566 0.516873 43.2264C0.534723 42.2322 0.552184 41.238 0.569244 40.2437C0.623254 37.2911 0.693202 34.339 0.765149 31.3868C0.789188 30.3614 0.813111 29.336 0.836917 28.3106C0.894427 25.844 0.953474 23.3774 1.01343 20.9108C1.17729 20.9108 1.34115 20.9108 1.50998 20.9108C2.24418 25.9013 2.57651 30.7651 2.46041 35.8111C2.44515 36.5813 2.44515 36.5812 2.42959 37.3669C2.38472 39.4906 2.33489 41.6135 2.25796 43.7364C2.20393 45.3099 2.17503 46.8824 2.15006 48.4566C2.12644 48.9339 2.10283 49.4112 2.07849 49.903C2.04753 52.4678 2.04753 52.4678 3.34456 54.5892C5.45671 56.2104 7.73866 57.2969 10.1996 58.2894C10.5133 58.4179 10.8269 58.5464 11.1501 58.6788C11.907 58.988 12.6668 59.2904 13.4272 59.5912C13.4272 59.9185 13.4272 60.2457 13.4272 60.583C15.0658 61.0739 16.7045 61.5648 18.3927 62.0707C18.3849 61.5202 18.3849 61.5202 18.377 60.9585C18.2435 49.8904 18.7081 38.8994 19.3858 27.8535C18.9396 27.7932 18.4933 27.733 18.0335 27.6709C16.5386 27.383 15.5341 27.0261 14.2089 26.3115C13.6151 25.9951 13.6151 25.9951 13.0092 25.6723C12.4019 25.3405 12.4019 25.3405 11.7824 25.002C11.3833 24.7885 10.9842 24.575 10.573 24.355C9.77108 23.9246 8.97118 23.4904 8.17342 23.0523C7.35807 22.6086 6.53679 22.1756 5.71054 21.7525C5.31073 21.5438 4.91091 21.3351 4.49899 21.12C4.13914 20.9364 3.77929 20.7528 3.40854 20.5636C2.34702 19.8079 1.99399 19.1288 1.50998 17.9354C2.65701 18.2627 3.80405 18.59 4.98584 18.9272C4.98584 19.2545 4.98584 19.5818 4.98584 19.919C5.59008 20.1031 6.19432 20.2872 6.81687 20.4769C9.43278 21.3409 11.8827 22.4976 14.3641 23.6867C16.5875 24.6869 18.6314 25.516 21.0927 25.4979C21.6141 25.5018 21.6141 25.5018 22.146 25.5057C23.7732 25.3289 25.2723 24.8597 26.8341 24.3821C26.8372 22.3565 26.8077 20.3326 26.772 18.3073C26.7733 17.7327 26.7746 17.158 26.7759 16.5659C26.7393 14.9847 26.6753 13.5304 26.3376 11.9846C24.9732 10.6157 24.9732 10.6157 23.3583 10.001C22.1799 8.54963 21.8886 7.67864 21.6514 5.81683C21.9119 3.69824 22.4663 2.68629 23.8548 1.07477C26.2003 -0.464533 29.3696 -0.267523 31.757 1.13869ZM45.5169 17.9974C42.6676 19.2537 39.7845 20.3446 36.8488 21.3789C34.9656 21.9463 34.9656 21.9463 33.7858 23.3903C32.7772 23.7952 32.7772 23.7952 31.5514 24.1652C30.0551 24.5436 30.0551 24.5436 28.8203 25.3739C28.7768 26.4018 28.7672 27.431 28.7718 28.4598C28.7742 29.3971 28.7742 29.3971 28.7767 30.3533C28.7808 31.0181 28.785 31.6828 28.7893 32.3476C28.7918 33.0143 28.794 33.6809 28.7961 34.3476C28.8019 35.9848 28.8101 37.622 28.8203 39.2592C29.148 39.2592 29.4758 39.2592 29.8134 39.2592C29.8441 39.6479 29.8749 40.0365 29.9065 40.437C30.0397 40.8665 30.1728 41.2961 30.31 41.7387C31.5371 42.3116 31.5371 42.3116 32.7927 42.7305C32.9566 43.2214 33.1205 43.7124 33.2893 44.2182C31.9784 44.0546 30.6675 43.8909 29.3169 43.7223C29.2324 44.0029 29.1479 44.2836 29.0608 44.5727C28.9405 44.9364 28.8202 45.3002 28.6962 45.6749C28.581 46.0374 28.4658 46.3998 28.347 46.7733C27.8272 47.6895 27.8272 47.6895 26.7798 48.0634C26.47 48.1037 26.1602 48.1439 25.841 48.1854C25.9658 47.7731 26.0906 47.3608 26.2192 46.936C26.3709 46.3971 26.5226 45.8582 26.6789 45.303C26.8345 44.7679 26.99 44.2329 27.1503 43.6816C27.4916 42.2475 27.4916 42.2475 26.6886 41.299C25.871 40.6566 25.871 40.6566 24.8479 40.7469C24.8479 40.4196 24.8479 40.0923 24.8479 39.7551C25.6672 39.7551 26.4865 39.7551 27.3307 39.7551C27.402 35.4323 27.1914 31.1694 26.8341 26.8617C24.6061 27.1234 22.9922 27.5038 20.8755 28.3494C20.7116 39.641 20.5478 50.9327 20.3789 62.5666C22.6638 62.2406 24.6227 61.9141 26.8031 61.2958C27.2787 61.1622 27.7542 61.0286 28.2442 60.891C28.5982 60.7893 28.9522 60.6877 29.3169 60.583C29.3169 60.2557 29.3169 59.9284 29.3169 59.5912C29.7777 59.54 30.2386 59.4889 30.7134 59.4362C33.2868 59.0766 35.7622 58.3233 38.2548 57.6076C38.2548 57.2803 38.2548 56.953 38.2548 56.6157C38.7976 56.5646 39.3404 56.5135 39.8996 56.4608C41.6884 56.243 43.3689 55.8395 45.1037 55.3547C45.8326 55.1522 45.8326 55.1522 46.5763 54.9456C46.9436 54.8422 47.3109 54.7387 47.6893 54.6321C47.7142 53.9858 47.739 53.3395 47.7647 52.6736C47.86 50.2159 47.9591 47.7583 48.059 45.3007C48.1014 44.2482 48.1428 43.1957 48.1832 42.1432C48.4692 34.7112 48.9593 27.3223 49.6755 19.919C49.8394 19.919 50.0032 19.919 50.172 19.919C50.1975 23.6581 50.2147 27.3971 50.2266 31.1361C50.2316 32.4048 50.2383 33.6735 50.247 34.9421C50.3369 48.4581 50.3369 48.4581 49.1789 55.128C56.4064 60.5013 56.4064 60.5013 64.572 63.0625C64.572 63.3898 64.572 63.7171 64.572 64.0543C65.3914 64.0543 66.2107 64.0543 67.0548 64.0543C67.875 54.0964 68.6914 44.1418 68.7307 34.1452C68.7407 33.1638 68.7407 33.1638 68.751 32.1626C68.7481 31.5607 68.7453 30.9589 68.7423 30.3388C68.7398 29.5599 68.7398 29.5599 68.7372 28.7652C68.5136 27.1322 68.0209 26.2038 67.0548 24.878C65.8472 23.9581 65.8472 23.9581 64.4169 23.2044C63.8901 22.9122 63.3633 22.6201 62.8205 22.3191C54.5482 17.3177 54.5482 17.3177 45.5169 17.9974Z" fill="#393A2D"/>
<path d="M0.516873 17.9354C0.844598 17.9354 1.17232 17.9354 1.50998 17.9354C1.8569 18.2985 2.20383 18.6616 2.56127 19.0357C4.15109 20.685 5.9987 21.6203 8.02722 22.6465C8.39951 22.8389 8.7718 23.0313 9.15537 23.2296C14.1572 25.8029 14.1572 25.8029 19.3858 27.8535C19.4946 34.9576 19.1662 42.0489 18.8893 49.1462C18.8413 50.4024 18.7935 51.6587 18.7458 52.9149C18.6296 55.9669 18.5118 59.0188 18.3927 62.0707C16.5477 61.7905 15.0537 61.5201 13.4272 60.583C13.4272 60.2557 13.4272 59.9284 13.4272 59.5912C13.0899 59.5432 12.7526 59.4953 12.405 59.4459C10.6193 59.0172 9.06625 58.2753 7.43756 57.4526C6.98198 57.2325 6.98198 57.2325 6.5172 57.008C4.67436 56.0868 3.20962 55.3172 2.00653 53.6403C1.73163 51.9088 1.78802 50.1978 1.83002 48.4489C1.83401 47.9374 1.838 47.426 1.8421 46.8991C1.8565 45.2614 1.88438 43.6242 1.91343 41.9867C1.93467 40.3633 1.95304 38.7401 1.96879 37.1167C1.97939 36.1076 1.9935 35.0985 2.01184 34.0896C2.0589 30.6617 1.84889 27.297 1.50998 23.8862C1.49754 24.4176 1.48509 24.9489 1.47227 25.4963C1.01321 44.9394 1.01321 44.9394 0.516873 53.6403C0.353011 53.6403 0.189149 53.6403 0.0203216 53.6403C-0.080749 41.7327 0.212518 29.8382 0.516873 17.9354Z" fill="#D7DD4F"/>
<path d="M31.757 1.13869C32.9831 2.20367 33.6942 3.00639 33.9662 4.63325C33.972 5.72384 33.972 5.72384 33.7858 7.52149C33.6732 7.25556 33.5605 6.98963 33.4445 6.71565C32.4479 4.91466 31.1897 3.00175 29.3169 2.06657C27.8482 1.81857 27.8482 1.81857 26.3376 2.06657C25.2553 3.18233 24.8645 3.97916 24.8188 5.54175C24.9457 7.0028 25.1802 8.23701 25.9341 9.50509C27.2972 10.2562 28.2841 10.188 29.8134 10.001C30.8911 9.28694 30.8911 9.28694 31.7996 8.51329C32.2912 8.51329 32.7828 8.51329 33.2893 8.51329C33.1225 10.068 32.7795 10.5094 31.6134 11.6127C30.31 12.4805 30.31 12.4805 28.8203 12.4805C28.8203 15.9171 28.8203 19.3537 28.8203 22.8944C29.7728 22.4853 30.7252 22.0762 31.7065 21.6547C34.5927 20.4149 34.5927 20.4149 36.2686 20.4149C36.2686 20.0876 36.2686 19.7603 36.2686 19.4231C36.5466 19.3232 36.8246 19.2232 37.111 19.1202C38.3723 18.6654 39.6325 18.2074 40.8927 17.7495C41.3302 17.5922 41.7677 17.4349 42.2185 17.2729C42.6393 17.1195 43.0602 16.9661 43.4938 16.808C43.8813 16.6678 44.2687 16.5276 44.6679 16.3831C45.8229 15.9406 45.8229 15.9406 47.1927 14.96C48.4807 14.8457 48.4807 14.8457 49.9238 14.867C50.4 14.8702 50.8762 14.8734 51.3669 14.8767C52.6548 14.96 52.6548 14.96 54.1445 15.4559C54.1445 15.7832 54.1445 16.1105 54.1445 16.4477C54.4174 16.531 54.6903 16.6143 54.9715 16.7001C57.7505 17.5819 60.314 18.6636 62.8962 20.012C63.2495 20.1849 63.6028 20.3578 63.9669 20.536C66.6918 21.954 69.1261 23.5643 70.5307 26.3657C70.9729 29.0145 70.9075 31.5994 70.81 34.2692C70.795 35.0135 70.781 35.7579 70.768 36.5023C70.6699 41.073 70.3608 45.5679 69.6777 50.0891C69.3153 52.8609 69.1422 55.6607 68.9346 58.4477C68.898 58.8896 68.8614 59.3315 68.8238 59.7868C68.7937 60.1798 68.7636 60.5728 68.7326 60.9778C68.5297 62.1565 68.1367 63.0169 67.5514 64.0543C67.4588 51.6275 67.4588 51.6275 67.7996 47.3796C68.082 43.5947 68.12 39.8115 68.1359 36.0178C68.1393 35.2901 68.1444 34.5623 68.1512 33.8346C68.1601 32.8042 68.1622 31.7741 68.1624 30.7436C68.1644 30.1397 68.1664 29.5358 68.1685 28.9135C68.0526 27.4182 67.8852 26.6043 67.0548 25.3739C62.1163 21.8239 54.0679 16.7807 47.858 17.6681C46.2913 18.0286 44.9332 18.6365 43.488 19.3301C41.9529 20.0471 40.392 20.6675 38.8134 21.2828C38.2719 21.495 37.7304 21.7072 37.1725 21.9259C35.772 22.3985 35.772 22.3985 34.2824 22.3985C34.1185 22.8895 33.9547 23.3804 33.7858 23.8862C32.3111 24.3772 30.8363 24.8681 29.3169 25.3739C29.153 29.9561 28.9891 34.5382 28.8203 39.2592C29.3119 39.0955 29.8035 38.9319 30.31 38.7633C30.31 39.7452 30.31 40.7271 30.31 41.7387C31.1293 41.9023 31.9486 42.066 32.7927 42.2346C32.9566 42.8892 33.1205 43.5438 33.2893 44.2182C30.4341 44.2802 30.4341 44.2802 29.3169 43.7223C28.8253 45.1951 28.3337 46.668 27.8272 48.1854C27.1718 48.1854 26.5163 48.1854 25.841 48.1854C26.3376 43.9348 26.3376 43.9348 26.8341 42.2346C26.5064 42.0096 26.1787 41.7846 25.841 41.5527C25.5133 41.2868 25.1856 41.0209 24.8479 40.7469C24.8479 40.4196 24.8479 40.0923 24.8479 39.7551C25.6672 39.7551 26.4865 39.7551 27.3307 39.7551C27.2769 39.2315 27.2769 39.2316 27.222 38.6974C26.8498 34.7427 26.7812 30.8321 26.8341 26.8617C26.4328 26.9786 26.4328 26.9786 26.0233 27.098C18.8559 28.6808 12.7299 25.6848 6.59963 22.3675C6.01329 22.0527 6.01329 22.0527 5.41511 21.7314C5.0507 21.5265 4.68629 21.3215 4.31084 21.1104C3.82333 20.838 3.82333 20.838 3.32598 20.5601C2.34696 19.7974 1.98385 19.0688 1.50998 17.9354C2.65701 18.2627 3.80405 18.59 4.98584 18.9272C4.98584 19.2545 4.98584 19.5818 4.98584 19.919C5.59008 20.1031 6.19432 20.2872 6.81687 20.4769C9.43278 21.3409 11.8827 22.4976 14.3641 23.6867C16.5875 24.6869 18.6314 25.516 21.0927 25.4979C21.6141 25.5018 21.6141 25.5018 22.146 25.5057C23.7732 25.3289 25.2723 24.8597 26.8341 24.3821C26.8372 22.3565 26.8077 20.3326 26.772 18.3073C26.7733 17.7327 26.7746 17.158 26.7759 16.5659C26.7393 14.9847 26.6753 13.5304 26.3376 11.9846C24.9732 10.6157 24.9732 10.6157 23.3583 10.001C22.1799 8.54963 21.8886 7.67864 21.6514 5.81683C21.9119 3.69824 22.4663 2.68629 23.8548 1.07477C26.2003 -0.464533 29.3696 -0.267523 31.757 1.13869Z" fill="#34342E"/>
<path d="M0.516873 17.9354C0.844598 17.9354 1.17232 17.9354 1.50998 17.9354C1.8569 18.2985 2.20383 18.6616 2.56127 19.0357C4.15109 20.685 5.9987 21.6203 8.02722 22.6465C8.39951 22.8389 8.7718 23.0313 9.15537 23.2296C14.1572 25.8029 14.1572 25.8029 19.3858 27.8535C19.3858 29.4899 19.3858 31.1264 19.3858 32.8125C16.0341 32.4405 16.0341 32.4405 14.9169 31.3248C14.4355 31.1304 13.9542 30.9361 13.4583 30.7359C10.2284 29.4185 7.37969 27.2984 4.48929 25.3739C4.49189 25.9105 4.49449 26.447 4.49717 26.9998C4.50633 29.0396 4.51192 31.0795 4.51656 33.1194C4.51902 33.993 4.52238 34.8667 4.52675 35.7403C4.55667 41.8904 4.38089 47.9981 3.99274 54.1362C3.82887 54.1362 3.66501 54.1362 3.49618 54.1362C2.97962 49.4202 2.85558 44.7052 2.76287 39.9661C2.65283 34.5601 2.17797 29.2517 1.50998 23.8862C1.49754 24.4176 1.48509 24.9489 1.47227 25.4963C1.01321 44.9394 1.01321 44.9394 0.516873 53.6403C0.353011 53.6403 0.189149 53.6403 0.0203216 53.6403C-0.080749 41.7327 0.212518 29.8382 0.516873 17.9354Z" fill="#EAEB70"/>
<path d="M49.6755 17.9354C50.6103 19.522 50.7939 20.691 50.7971 22.522C50.8002 23.0423 50.8034 23.5626 50.8066 24.0987C50.8046 24.6602 50.8026 25.2216 50.8005 25.8001C50.8014 26.3839 50.8024 26.9676 50.8034 27.5691C50.804 28.808 50.8022 30.0469 50.7981 31.2858C50.7928 33.1566 50.798 35.0271 50.8044 36.8978C50.8074 43.047 50.7153 49.0556 49.6755 55.128C56.7461 59.9994 56.7461 59.9994 64.572 63.0625C64.572 63.3898 64.572 63.7171 64.572 64.0543C65.3914 64.0543 66.2107 64.0543 67.0548 64.0543C67.0548 62.0905 67.0548 60.1267 67.0548 58.1035C67.2187 58.1035 67.3825 58.1035 67.5514 58.1035C67.7971 60.0672 67.7971 60.0672 68.0479 62.0707C68.0754 61.7532 68.1029 61.4357 68.1312 61.1085C68.2572 59.6625 68.3853 58.2166 68.5134 56.7707C68.5566 56.2711 68.5998 55.7716 68.6443 55.2569C68.7092 54.5305 68.7092 54.5305 68.7753 53.7895C68.8143 53.3454 68.8533 52.9013 68.8935 52.4438C69.04 51.1693 69.2675 49.935 69.5376 48.6813C69.7014 48.6813 69.8653 48.6813 70.0341 48.6813C69.9641 50.3241 69.8908 51.9667 69.8169 53.6093C69.7973 54.0686 69.7778 54.5279 69.7577 55.0012C69.4024 62.7794 69.4024 62.7795 68.4514 64.8291C67.099 65.9003 66.279 65.7244 64.572 65.542C63.1528 64.9399 61.8554 64.1684 60.5376 63.3724C59.8433 62.9653 59.1489 62.5585 58.4544 62.152C58.1509 61.9702 57.8474 61.7885 57.5347 61.6012C56.5877 61.0561 55.6229 60.5662 54.641 60.0871C54.641 59.7598 54.641 59.4325 54.641 59.0953C54.1033 58.8958 54.1033 58.8958 53.5548 58.6923C52.1583 58.1035 52.1582 58.1035 50.9789 57.2666C48.293 55.9254 45.0069 57.3729 42.2272 58.1035C42.2272 57.7762 42.2272 57.4489 42.2272 57.1116C40.9163 57.1116 39.6054 57.1116 38.2548 57.1116C40.0832 56.0292 42.0277 55.6954 44.0893 55.314C44.4356 55.2475 44.7819 55.181 45.1386 55.1125C45.9884 54.9498 46.8388 54.7906 47.6893 54.6321C47.6835 54.1131 47.6778 53.594 47.6718 53.0592C47.4699 26.0305 47.4699 26.0305 49.6755 17.9354Z" fill="#727263"/>
<path d="M48.6824 17.9354C48.6824 19.081 48.6824 20.2265 48.6824 21.4067C46.8011 22.319 44.9178 23.227 43.0341 24.1342C42.4977 24.3944 41.9613 24.6545 41.4087 24.9226C40.8966 25.1687 40.3845 25.4148 39.857 25.6684C39.3837 25.8969 38.9104 26.1254 38.4228 26.3609C37.2617 26.8616 37.2617 26.8617 36.2686 26.8617C36.2686 27.1889 36.2686 27.5162 36.2686 27.8535C35.2036 28.3505 34.138 28.8462 33.072 29.3412C32.4787 29.6173 31.8853 29.8935 31.274 30.178C29.8134 30.8289 29.8134 30.8289 29.3169 30.8289C29.3169 28.8651 29.3169 26.9013 29.3169 24.878C30.4076 24.5405 30.4076 24.5405 31.5203 24.1962C32.7365 23.8402 32.7365 23.8402 33.7858 23.3903C33.9497 23.063 34.1136 22.7357 34.2824 22.3985C35.5709 21.8634 36.8478 21.3746 38.1617 20.9108C40.237 20.1665 42.2446 19.4281 44.2134 18.4313C45.7443 18.1193 47.1194 17.9354 48.6824 17.9354Z" fill="#F0F065"/>
<path d="M31.757 1.13869C32.9831 2.20367 33.6942 3.00639 33.9662 4.63325C33.972 5.72384 33.972 5.72384 33.7858 7.52149C33.6732 7.25556 33.5605 6.98963 33.4445 6.71565C32.4479 4.91466 31.1897 3.00175 29.3169 2.06657C27.8482 1.81857 27.8482 1.81857 26.3376 2.06657C25.2553 3.18233 24.8645 3.97916 24.8188 5.54175C24.9457 7.0028 25.1802 8.23701 25.9341 9.50509C27.2972 10.2562 28.2841 10.188 29.8134 10.001C30.8911 9.28694 30.8911 9.28694 31.7996 8.51329C32.2912 8.51329 32.7828 8.51329 33.2893 8.51329C33.1225 10.068 32.7795 10.5094 31.6134 11.6127C30.31 12.4805 30.31 12.4805 28.8203 12.4805C28.8203 15.9171 28.8203 19.3537 28.8203 22.8944C28.6565 22.8944 28.4926 22.8944 28.3238 22.8944C28.1599 19.7851 27.996 16.6758 27.8272 13.4723C27.6634 17.0726 27.4995 20.6728 27.3307 24.3821C27.1668 24.3821 27.0029 24.3821 26.8341 24.3821C26.8347 24.017 26.8352 23.6518 26.8358 23.2756C26.8298 21.619 26.8012 19.9636 26.772 18.3073C26.7733 17.7327 26.7746 17.158 26.7759 16.5659C26.7393 14.9847 26.6753 13.5304 26.3376 11.9846C24.9732 10.6157 24.9732 10.6157 23.3583 10.001C22.1799 8.54963 21.8886 7.67864 21.6514 5.81683C21.9119 3.69824 22.4663 2.68629 23.8548 1.07477C26.2003 -0.464533 29.3696 -0.267523 31.757 1.13869Z" fill="#3D3D3D"/>
<path d="M27.641 1.35371C30.0057 1.65985 31.2569 2.77013 32.7927 4.54608C33.5446 6.11039 33.87 6.98926 33.5996 8.69925C33.446 9.09815 33.446 9.09815 33.2893 9.5051C33.2893 9.1778 33.2893 8.8505 33.2893 8.51329C32.7772 8.84059 32.2651 9.16788 31.7376 9.5051C30.0253 10.4724 28.826 10.8506 26.8341 10.4969C25.5723 9.67948 25.0054 9.02944 24.5647 7.58541C24.2399 5.76005 24.2323 4.80004 25.0341 3.08937C26.2163 1.59085 26.2163 1.59085 27.641 1.35371Z" fill="#DBDCDD"/>
<path d="M49.6755 17.9354C50.616 19.5289 50.7939 20.7061 50.7971 22.5456C50.8002 23.0707 50.8034 23.5958 50.8066 24.1368C50.8046 24.703 50.8026 25.2691 50.8005 25.8524C50.8014 26.4397 50.8024 27.027 50.8034 27.6321C50.8041 28.8772 50.8022 30.1224 50.7981 31.3675C50.7928 33.2546 50.798 35.1415 50.8044 37.0286C50.8037 38.2416 50.8024 39.4545 50.8005 40.6675C50.8025 41.2246 50.8045 41.7817 50.8066 42.3557C50.7848 46.1155 50.6957 50.0002 49.6755 53.6403C48.9381 54.1313 48.9381 54.1313 48.1858 54.6321C48.0919 48.112 48.3429 41.6034 48.5829 35.0885C48.6519 33.2009 48.7172 31.3132 48.7823 29.4254C48.8257 28.2228 48.8693 27.0202 48.9132 25.8175C48.9324 25.2545 48.9515 24.6915 48.9713 24.1114C48.9911 23.5895 49.011 23.0676 49.0314 22.5299C49.0479 22.0722 49.0645 21.6145 49.0815 21.143C49.1712 20.0169 49.363 19.0185 49.6755 17.9354Z" fill="#232320"/>
<path d="M28.3238 25.3739C28.4876 25.3739 28.6515 25.3739 28.8203 25.3739C28.8203 29.9561 28.8203 34.5382 28.8203 39.2592C29.3119 39.0955 29.8035 38.9319 30.31 38.7633C30.31 39.7452 30.31 40.7271 30.31 41.7387C31.1293 41.9023 31.9486 42.066 32.7927 42.2346C32.9566 42.8892 33.1205 43.5438 33.2893 44.2182C30.4341 44.2802 30.4341 44.2802 29.3169 43.7223C28.5795 45.9316 28.5795 45.9315 27.8272 48.1854C27.1718 48.1854 26.5163 48.1854 25.841 48.1854C26.3376 43.9348 26.3376 43.9348 26.8341 42.2346C26.5064 42.0096 26.1787 41.7846 25.841 41.5527C25.5133 41.2868 25.1856 41.0209 24.8479 40.7469C24.8479 40.4196 24.8479 40.0923 24.8479 39.7551C25.6672 39.7551 26.4865 39.7551 27.3307 39.7551C27.2769 39.2315 27.2769 39.2316 27.222 38.6974C26.8498 34.7427 26.7812 30.8321 26.8341 26.8617C26.5064 26.698 26.1787 26.5344 25.841 26.3658C26.3326 26.3658 26.8242 26.3658 27.3307 26.3658C27.4945 28.4932 27.6584 30.6206 27.8272 32.8125C27.9911 30.3578 28.1549 27.903 28.3238 25.3739Z" fill="#444528"/>
<path d="M15.91 26.3657C19.5969 26.8567 19.5969 26.8567 23.3583 27.3576C23.0305 27.6848 22.7028 28.0121 22.3651 28.3494C21.8736 28.3494 21.382 28.3494 20.8755 28.3494C20.8755 38.6592 20.8755 48.9689 20.8755 59.5912C20.7116 59.5912 20.5478 59.5912 20.3789 59.5912C20.2151 53.3726 20.0512 47.1539 19.8824 40.7469C19.5547 41.4015 19.2269 42.0561 18.8893 42.7305C18.8255 37.74 18.9901 32.8287 19.3858 27.8535C18.9045 27.7921 18.4231 27.7307 17.9272 27.6675C17.4254 27.5652 16.9236 27.4629 16.4065 27.3576C16.2427 27.0303 16.0788 26.703 15.91 26.3657Z" fill="#707136"/>
<path d="M26.8341 26.8617C26.8341 28.6618 26.8341 30.4619 26.8341 32.3166C25.403 32.793 24.5011 32.8649 23.0169 32.8435C22.3102 32.8332 21.6036 32.823 20.8755 32.8125C20.8755 31.3396 20.8755 29.8668 20.8755 28.3494C24.5996 26.8617 24.5996 26.8617 26.8341 26.8617Z" fill="#F1F165"/>
<path d="M44.2134 17.4395C42.9845 18.1759 42.9845 18.1759 41.7307 18.9272C41.8945 19.2545 42.0584 19.5818 42.2272 19.919C41.1836 20.3353 40.1385 20.7479 39.0927 21.1588C38.5109 21.3889 37.9291 21.619 37.3296 21.8561C35.772 22.3985 35.772 22.3985 34.2824 22.3985C34.1185 22.8895 33.9547 23.3804 33.7858 23.8862C32.7598 24.2485 32.7598 24.2485 31.5203 24.4751C31.11 24.5538 30.6997 24.6324 30.277 24.7134C29.9602 24.7677 29.6433 24.8221 29.3169 24.878C29.4807 24.3871 29.6446 23.8962 29.8134 23.3903C29.4857 23.2267 29.158 23.063 28.8203 22.8944C29.781 22.4779 30.7434 22.0654 31.7065 21.6547C32.2423 21.4246 32.778 21.1944 33.33 20.9573C34.7789 20.4149 34.7789 20.4149 36.2686 20.4149C36.2686 20.0876 36.2686 19.7603 36.2686 19.4231C37.405 18.9949 38.5429 18.5722 39.6824 18.1524C40.0056 18.03 40.3289 17.9075 40.6619 17.7814C43.1078 16.8874 43.1078 16.8874 44.2134 17.4395Z" fill="#4C4C3C"/>
<path d="M48.6824 25.8699C48.8463 25.8699 49.0101 25.8699 49.1789 25.8699C49.2616 31.2615 49.0808 36.635 48.859 42.022C48.0879 48.7535 48.0879 48.7535 49.1789 55.128C46.904 56.3159 44.6962 57.3637 42.2272 58.1035C42.2272 57.7762 42.2272 57.4489 42.2272 57.1116C40.9163 57.1116 39.6054 57.1116 38.2548 57.1116C40.0832 56.0292 42.0277 55.6954 44.0893 55.314C44.4356 55.2475 44.7819 55.181 45.1386 55.1125C45.9884 54.9498 46.8388 54.7906 47.6893 54.6321C47.6835 54.1131 47.6778 53.594 47.6718 53.0592C47.635 48.0414 47.7313 43.0344 47.9065 38.0194C47.926 37.4404 47.9455 36.8614 47.9656 36.2649C48.0947 32.7861 48.3252 29.3328 48.6824 25.8699Z" fill="#666633"/>
<path d="M41.7307 31.8207C43.1936 31.983 44.389 32.1304 45.672 32.8745C46.5455 34.4138 46.1248 35.6209 45.7031 37.2756C43.8608 38.5022 42.9171 38.4583 40.7376 38.2674C39.5272 37.6785 39.5272 37.6785 38.7514 36.7797C38.6272 35.4469 38.6272 35.4469 38.7514 34.3002C39.2429 34.3002 39.7345 34.3002 40.241 34.3002C40.5687 34.9548 40.8965 35.6094 41.2341 36.2838C41.8896 36.2838 42.545 36.2838 43.2203 36.2838C43.0493 35.0576 43.0493 35.0576 42.7238 33.8043C42.396 33.6406 42.0683 33.477 41.7307 33.3084C41.7307 32.8174 41.7307 32.3265 41.7307 31.8207Z" fill="#3B3D26"/>
<path d="M49.6755 17.9354C50.6312 19.5462 50.792 20.7395 50.7892 22.6007C50.7907 23.137 50.7923 23.6733 50.7938 24.2259C50.7903 24.8029 50.7867 25.3799 50.783 25.9745C50.7828 26.57 50.7826 27.1655 50.7823 27.7791C50.7808 29.0388 50.7769 30.2985 50.7708 31.5582C50.7618 33.4834 50.7606 35.4085 50.7607 37.3337C50.7583 38.558 50.7554 39.7822 50.752 41.0065C50.7515 41.5815 50.7509 42.1565 50.7503 42.749C50.7472 43.2884 50.744 43.8278 50.7407 44.3836C50.7388 44.8555 50.7369 45.3275 50.735 45.8137C50.6636 47.2965 50.443 48.7106 50.172 50.169C50.0082 50.169 49.8443 50.169 49.6755 50.169C49.6755 42.1503 49.6755 34.1316 49.6755 25.8698C49.5116 25.8698 49.3478 25.8699 49.1789 25.8699C49.1655 24.9194 49.1559 23.9689 49.1479 23.0184C49.1421 22.4891 49.1364 21.9598 49.1305 21.4145C49.1714 20.1503 49.305 19.1358 49.6755 17.9354Z" fill="#434229"/>
<path d="M43.2203 46.6977C43.3842 46.8614 43.548 47.025 43.7169 47.1936C43.6725 47.95 43.595 48.7045 43.4996 49.4562C43.4491 49.8659 43.3985 50.2757 43.3464 50.6979C43.3048 51.0143 43.2632 51.3307 43.2203 51.6567C41.5445 51.7187 41.5445 51.7187 39.7445 51.6567C38.7514 50.6649 38.7514 50.6649 38.5341 49.2082C38.7514 47.6895 38.7514 47.6895 39.8686 46.7287C41.3139 46.171 41.8215 46.099 43.2203 46.6977Z" fill="#363425"/>
<path d="M1.50998 17.9354C2.65701 18.2627 3.80405 18.59 4.98584 18.9272C4.98584 19.2545 4.98584 19.5818 4.98584 19.919C5.26236 20.0034 5.53887 20.0878 5.82377 20.1747C8.50932 21.0265 10.9348 22.0779 13.4272 23.3903C13.4272 24.0449 13.4272 24.6995 13.4272 25.3739C10.8666 24.6261 8.66467 23.5074 6.35135 22.2126C5.99419 22.0208 5.63702 21.829 5.26903 21.6314C4.92722 21.4409 4.58541 21.2504 4.23325 21.0542C3.92457 20.8839 3.61589 20.7136 3.29785 20.5382C2.33466 19.7878 1.97953 19.0486 1.50998 17.9354Z" fill="#3C3C2E"/>
<path d="M28.3238 25.3739C28.4876 25.3739 28.6515 25.3739 28.8203 25.3739C28.9842 30.2834 29.148 35.1928 29.3169 40.251C26.8341 40.7469 26.8341 40.7469 24.8479 40.7469C24.8479 40.4196 24.8479 40.0923 24.8479 39.7551C25.6672 39.7551 26.4865 39.7551 27.3307 39.7551C27.2769 39.2315 27.2769 39.2316 27.222 38.6974C26.8498 34.7427 26.7812 30.8321 26.8341 26.8617C26.5064 26.698 26.1787 26.5344 25.841 26.3658C26.3326 26.3658 26.8242 26.3658 27.3307 26.3658C27.4945 28.4932 27.6584 30.6206 27.8272 32.8125C27.9911 30.3578 28.1549 27.903 28.3238 25.3739Z" fill="#616231"/>
<path d="M12.9307 23.8862C13.6447 24.0402 14.3584 24.1954 15.072 24.3512C15.4695 24.4374 15.867 24.5237 16.2766 24.6127C17.3996 24.878 17.3996 24.878 18.8893 25.3739C19.8301 25.4079 20.7721 25.416 21.7134 25.4049C22.2069 25.4005 22.7004 25.396 23.2089 25.3914C23.5859 25.3856 23.9629 25.3799 24.3514 25.3739C24.1875 25.7012 24.0236 26.0285 23.8548 26.3657C24.1825 26.693 24.5103 27.0203 24.8479 27.3576C16.894 27.689 16.894 27.689 13.9238 25.8698C13.3089 24.8238 13.3089 24.8238 12.9307 23.8862Z" fill="#2D2D29"/>
<path d="M68.0479 43.2264C68.2118 43.2264 68.3756 43.2264 68.5445 43.2264C68.6412 45.3156 68.7297 47.405 68.8112 49.4948C68.8399 50.2032 68.8707 50.9116 68.9038 51.6198C69.1013 55.8799 69.0742 59.8764 68.0479 64.0543C67.884 64.0543 67.7202 64.0543 67.5514 64.0543C67.4995 57.0931 67.46 50.1674 68.0479 43.2264Z" fill="#48492D"/>
<path d="M2.50308 32.8125C2.66694 32.8125 2.8308 32.8125 2.99963 32.8125C3.16349 39.8493 3.32736 46.8862 3.49618 54.1362C3.0046 53.9726 2.51301 53.8089 2.00653 53.6403C1.91189 46.6884 2.20379 39.757 2.50308 32.8125Z" fill="#D2D25A"/>
<path d="M42.7238 57.1117C42.2272 58.1035 42.2272 58.1035 40.5106 58.7601C39.791 58.9896 39.07 59.2147 38.3479 59.4362C37.9879 59.5541 37.6278 59.6721 37.2569 59.7936C35.3915 60.3748 34.1594 60.6772 32.2962 60.0871C33.1155 59.7598 33.9348 59.4325 34.7789 59.0953C34.7789 58.768 34.7789 58.4407 34.7789 58.1035C35.7291 57.8394 36.6812 57.5825 37.6341 57.3286C38.1641 57.1848 38.6941 57.0409 39.2402 56.8928C40.6598 56.6301 41.391 56.6238 42.7238 57.1117Z" fill="#2C2C26"/>
<path d="M41.2341 31.3248C42.0534 31.3248 42.8727 31.3248 43.7169 31.3248C43.0614 31.4884 42.406 31.6521 41.7307 31.8207C41.7307 32.3116 41.7307 32.8026 41.7307 33.3084C42.3861 33.6357 43.0416 33.963 43.7169 34.3002C43.553 35.1184 43.3891 35.9367 43.2203 36.7797C42.401 36.616 41.5817 36.4524 40.7376 36.2838C40.6761 35.9667 40.6147 35.6497 40.5514 35.323C40.3977 34.8167 40.3977 34.8167 40.241 34.3002C39.9133 34.1365 39.5856 33.9729 39.2479 33.8043C39.5756 33.6406 39.9034 33.477 40.241 33.3084C40.8039 32.3083 40.8039 32.3083 41.2341 31.3248Z" fill="#8DAD4A"/>
<path d="M51.1651 16.4477C51.1651 16.6114 51.1651 16.775 51.1651 16.9436C50.7638 17.0395 50.3625 17.1354 49.949 17.2342C49.4184 17.3633 48.8877 17.4924 48.341 17.6255C47.8168 17.7521 47.2925 17.8786 46.7524 18.009C45.2167 18.3902 45.2167 18.3902 43.8623 19.0086C42.7238 19.4231 42.7238 19.4231 41.2341 18.9272C41.9351 18.4381 42.6391 17.9534 43.3445 17.4705C43.7362 17.2001 44.1279 16.9297 44.5315 16.6511C47.0303 15.1596 48.4184 15.5509 51.1651 16.4477Z" fill="#2B2B26"/>
<path d="M50.6686 55.624C52.071 56.3969 52.071 56.3969 53.4927 57.3286C53.9658 57.6348 54.4388 57.941 54.9261 58.2565C56.1307 59.0953 56.1307 59.0953 57.1238 60.0871C56.6322 60.2507 56.1406 60.4144 55.6341 60.583C55.3064 60.4193 54.9787 60.2557 54.641 60.0871C54.641 59.7598 54.641 59.4325 54.641 59.0953C54.2826 58.9623 53.9241 58.8293 53.5548 58.6923C52.1583 58.1035 52.1582 58.1035 51.041 57.2666C49.0423 56.314 47.3361 56.7271 45.2065 57.1117C45.7031 56.1199 45.7031 56.1199 46.8203 55.531C48.4141 55.0607 49.0815 55.1718 50.6686 55.624Z" fill="#82826A"/>
<path d="M44.2134 17.4395C42.9845 18.1759 42.9845 18.1759 41.7307 18.9272C41.8945 19.2545 42.0584 19.5818 42.2272 19.919C40.9163 20.41 39.6054 20.9009 38.2548 21.4067C38.2548 20.9158 38.2548 20.4249 38.2548 19.919C37.5994 19.7554 36.9439 19.5917 36.2686 19.4231C37.405 18.9949 38.5429 18.5722 39.6824 18.1524C40.0056 18.03 40.3289 17.9075 40.6619 17.7814C43.1078 16.8874 43.1078 16.8874 44.2134 17.4395Z" fill="#51514A"/>
<path d="M49.6755 17.9354C50.9505 19.8405 50.7813 21.8104 50.7307 24.0102C50.7262 24.3797 50.7217 24.7492 50.7171 25.1299C50.7054 26.0378 50.6876 26.9456 50.6686 27.8535C49.1602 26.2043 48.9996 25.1004 49.0548 22.8944C49.0625 22.383 49.0702 21.8716 49.0781 21.3447C49.1637 20.1346 49.3299 19.0932 49.6755 17.9354Z" fill="#4E4F2B"/>
<path d="M50.172 17.4395C51.4829 17.6032 52.7938 17.7668 54.1445 17.9354C54.3083 18.59 54.4722 19.2446 54.641 19.919C51.5861 20.3549 51.5861 20.3549 50.6686 20.4149C50.172 19.919 50.172 19.919 50.141 18.6483C50.1513 18.2494 50.1615 17.8505 50.172 17.4395Z" fill="#E7E861"/>
<path d="M51.1651 16.9436C50.8374 17.2709 50.5097 17.5982 50.172 17.9354C49.9404 19.2866 49.7569 20.6043 49.6134 21.9646C49.5705 22.3386 49.5276 22.7125 49.4835 23.0978C49.3781 24.0214 49.278 24.9456 49.1789 25.8699C49.0151 25.8699 48.8512 25.8699 48.6824 25.8699C48.6824 23.2515 48.6824 20.6331 48.6824 17.9354C47.5354 18.0991 46.3883 18.2627 45.2065 18.4313C47.3001 17.0374 48.697 16.8888 51.1651 16.9436Z" fill="#AAAB4A"/>
<path d="M8.95825 21.4067C11.1704 22.3886 11.1704 22.3886 13.4272 23.3903C13.4272 24.0449 13.4272 24.6995 13.4272 25.3739C11.7374 24.8489 10.4412 24.3777 8.95825 23.3903C8.95825 22.7358 8.95825 22.0812 8.95825 21.4067Z" fill="#484838"/>
<path d="M48.1858 47.1936C49.882 49.4522 49.882 49.4522 49.8617 51.4708C49.8655 51.8556 49.8694 52.2404 49.8733 52.6369C49.8081 52.968 49.7428 53.2992 49.6755 53.6403C48.9381 54.1313 48.9381 54.1313 48.1858 54.6321C48.1858 52.1774 48.1858 49.7227 48.1858 47.1936Z" fill="#313124"/>
<path d="M61.5927 22.8944C64.0751 23.1305 65.5544 23.9019 67.5514 25.3739C67.3875 25.8649 67.2236 26.3558 67.0548 26.8617C66.1431 26.2956 65.2331 25.7269 64.3238 25.157C63.8168 24.8406 63.3099 24.5241 62.7876 24.1981C62.3933 23.9316 61.999 23.665 61.5927 23.3903C61.5927 23.2267 61.5927 23.063 61.5927 22.8944Z" fill="#E0E15C"/>
<path d="M38.2548 19.919C38.2548 20.41 38.2548 20.9009 38.2548 21.4067C36.0427 22.1431 36.0427 22.1431 33.7858 22.8944C34.1893 21.6857 34.1893 21.6857 34.7789 20.4149C36.2686 19.919 36.2686 19.919 38.2548 19.919Z" fill="#2C2C29"/>
<path d="M44.2134 56.1198C44.5411 56.4471 44.8689 56.7744 45.2065 57.1117C44.2234 57.439 43.2402 57.7662 42.2272 58.1035C42.2272 57.7762 42.2272 57.4489 42.2272 57.1116C40.9163 57.1116 39.6054 57.1116 38.2548 57.1116C40.3276 56.0027 41.9146 55.2781 44.2134 56.1198Z" fill="#6C6B44"/>
<path d="M28.3238 37.7715C28.6515 38.2624 28.9792 38.7534 29.3169 39.2592C29.153 39.7501 28.9891 40.2411 28.8203 40.7469C27.5094 40.7469 26.1985 40.7469 24.8479 40.7469C24.8479 40.4196 24.8479 40.0923 24.8479 39.7551C25.6672 39.7551 26.4865 39.7551 27.3307 39.7551C27.3307 39.4278 27.3307 39.1005 27.3307 38.7633C27.6584 38.7633 27.9861 38.7633 28.3238 38.7633C28.3238 38.436 28.3238 38.1087 28.3238 37.7715Z" fill="#888B38"/>
<path d="M27.8272 43.7223C28.2893 45.0145 28.3978 45.5284 27.8583 46.8217C27.5971 47.2513 27.5971 47.2513 27.3307 47.6895C27.0029 47.6895 26.6752 47.6895 26.3376 47.6895C26.1542 45.4313 26.1542 45.4313 27.0824 44.3112C27.3282 44.1169 27.574 43.9225 27.8272 43.7223Z" fill="#252520"/>
<path d="M40.7376 46.6977C41.7307 47.6895 41.7307 47.6895 41.7307 49.6731C41.0752 49.5095 40.4198 49.3458 39.7445 49.1772C39.5806 48.5226 39.4167 47.868 39.2479 47.1936C39.7395 47.03 40.2311 46.8663 40.7376 46.6977Z" fill="#A73E5F"/>
<path d="M32.2962 2.56247C32.7878 2.88977 33.2794 3.21706 33.7858 3.55427C33.9887 4.89918 33.8521 6.15464 33.7858 7.52149C33.6527 7.24533 33.5196 6.96918 33.3824 6.68465C32.7425 5.44013 32.0334 4.25184 31.3031 3.05837C31.6308 2.89473 31.9585 2.73108 32.2962 2.56247Z" fill="#555555"/>
<path d="M1.50998 17.9354C2.65701 18.2627 3.80405 18.59 4.98584 18.9272C4.49425 19.6636 4.49425 19.6636 3.99273 20.4149C3.03066 20.012 3.03067 20.012 2.00653 19.4231C1.84267 18.9322 1.6788 18.4412 1.50998 17.9354Z" fill="#7C7C64"/>
<path d="M27.8893 1.50868C28.3604 1.52914 28.8315 1.54959 29.3169 1.57067C29.3169 1.73432 29.3169 1.89796 29.3169 2.06657C28.4976 2.06657 27.6783 2.06657 26.8341 2.06657C26.6907 2.38364 26.5474 2.7007 26.3996 3.02738C25.841 4.05018 25.841 4.05018 24.8479 4.54608C25.2635 2.471 25.5975 1.60023 27.8893 1.50868Z" fill="#B7B8B9"/>
</svg>
