<svg width="87" height="86" viewBox="0 0 87 86" fill="none" xmlns="http://www.w3.org/2000/svg">
<path d="M45.4777 0.000976146C46.2314 0.000492953 46.2314 0.000492953 47.0003 0C49.6238 0.0172264 52.1577 0.137115 54.7519 0.528528C54.7519 0.821735 54.7519 1.11494 54.7519 1.41704C55.7875 1.71024 56.823 2.00345 57.89 2.30554C57.89 2.59875 57.89 2.89196 57.89 3.19405C58.2032 3.22097 58.5164 3.24788 58.8391 3.27561C59.2471 3.31284 59.6551 3.35006 60.0755 3.38841C60.4811 3.42449 60.8868 3.46057 61.3048 3.49774C62.373 3.6383 62.373 3.6383 63.2696 4.08256C63.2696 4.37577 63.2696 4.66897 63.2696 4.97107C63.6949 5.10851 64.1203 5.24595 64.5585 5.38755C65.9594 5.85957 65.9594 5.85957 66.856 6.30383C66.856 6.59704 66.856 6.89024 66.856 7.19234C67.1848 7.30916 67.5137 7.42599 67.8524 7.54635C70.9418 8.87254 73.5797 11.4061 75.822 13.8561C75.822 14.1494 75.822 14.4426 75.822 14.7447C76.0809 14.8363 76.3398 14.9279 76.6066 15.0223C78.0096 15.872 78.5525 16.9106 79.4085 18.2987C79.672 18.7067 79.672 18.7067 79.9408 19.123C86.4754 29.2614 88.4507 40.6523 85.9605 52.5241C85.6847 53.3947 85.6847 53.3947 84.7881 54.7275C84.5089 55.6014 84.2499 56.4817 84.0035 57.3653C82.5585 62.1334 80.1766 67.8156 76.2703 71.1649C75.9745 71.1649 75.6786 71.1649 75.3737 71.1649C75.2073 71.7009 75.2073 71.7009 75.0375 72.2478C74.8526 72.6234 74.6677 72.9991 74.4771 73.3862C73.5525 73.6638 73.5525 73.6638 72.6839 73.8304C72.536 74.2702 72.3881 74.71 72.2356 75.1632C71.9398 75.1632 71.6439 75.1632 71.339 75.1632C71.339 75.4564 71.339 75.7496 71.339 76.0517C70.5791 76.598 69.8168 77.1417 69.0397 77.6638C68.0915 78.3151 68.0915 78.3151 67.0241 79.4947C65.8782 80.5705 65.2656 80.807 63.7179 80.9385C63.7179 81.2317 63.7179 81.5249 63.7179 81.827C62.8303 81.9736 61.9426 82.1202 61.0281 82.2712C61.0281 82.5644 61.0281 82.8577 61.0281 83.1598C59.6967 83.3064 58.3652 83.453 56.9934 83.604C56.9934 83.8972 56.9934 84.1904 56.9934 84.4925C56.6155 84.5515 56.2375 84.6105 55.8481 84.6713C55.1113 84.7889 55.1113 84.7889 54.3596 84.909C53.8707 84.9863 53.3818 85.0636 52.8781 85.1433C51.6415 85.3168 51.6415 85.3168 50.7172 85.8253C48.3953 85.9739 46.0668 85.9778 43.7405 85.9919C43.4047 85.9943 43.069 85.9968 42.7231 85.9994C37.6067 86.0185 33.061 85.62 28.3021 83.604C28.3021 83.3108 28.3021 83.0176 28.3021 82.7155C28.0317 82.6617 27.7612 82.6078 27.4826 82.5524C26.9451 82.4407 26.9451 82.4407 26.3968 82.3268C26.0432 82.2546 25.6895 82.1825 25.3251 82.1081C23.4627 81.6131 22.6675 81.2258 21.5776 79.6057C20.8425 79.1421 20.0916 78.7031 19.3361 78.273C18.6221 77.8354 17.9125 77.3906 17.2067 76.9402C16.6831 76.6103 16.6831 76.6103 16.149 76.2738C15.3014 75.6074 15.3014 75.6074 14.8531 74.2747C14.5665 74.1372 14.2798 73.9998 13.9845 73.8582C12.8355 73.2716 12.7278 72.728 12.1633 71.6092C11.8894 71.4803 11.6154 71.3515 11.3332 71.2187C6.85655 68.9038 4.37269 61.8412 2.74895 57.393C2.58137 56.9412 2.41378 56.4894 2.24111 56.0238C1.41862 53.7126 0.852314 51.8712 0.95575 49.3965C0.659871 49.3965 0.363993 49.3965 0.0591477 49.3965C-0.0902684 43.5702 -0.0585692 38.1884 1.40405 32.5148C1.65756 31.4137 1.90979 30.3124 2.16056 29.2107C2.35567 28.3867 2.55139 27.5629 2.74895 26.7395C3.04483 26.7395 3.34071 26.7395 3.64556 26.7395C3.73744 26.4291 3.82933 26.1187 3.92399 25.7989C4.04477 25.3946 4.16555 24.9903 4.28999 24.5738C4.46942 23.9707 4.46942 23.9707 4.65248 23.3555C4.99046 22.297 4.99046 22.297 5.43876 21.4085C5.73464 21.4085 6.03052 21.4085 6.33536 21.4085C6.33536 20.9686 6.33536 20.5288 6.33536 20.0757C6.77918 19.7825 7.223 19.4893 7.68027 19.1872C8.27758 18.2644 8.27758 18.2644 8.80102 17.2158C9.48742 15.8925 10.0995 14.8128 11.2667 13.8561C11.5626 13.8561 11.8584 13.8561 12.1633 13.8561C12.3112 13.4163 12.4592 12.9765 12.6116 12.5234C12.9075 12.5234 13.2033 12.5234 13.5082 12.5234C13.6561 12.0836 13.8041 11.6438 13.9565 11.1906C14.2524 11.1906 14.5482 11.1906 14.8531 11.1906C14.8531 10.8974 14.8531 10.6042 14.8531 10.3021C17.2792 8.5251 17.2792 8.5251 18.4395 8.5251C18.4395 8.23189 18.4395 7.93868 18.4395 7.63659C18.7724 7.52664 19.1052 7.41668 19.4482 7.3034C20.7075 6.83802 20.7075 6.83802 21.4375 5.88734C23.0252 4.48404 24.9244 4.14576 26.9572 3.6383C26.9572 3.3451 26.9572 3.05189 26.9572 2.7498C27.3675 2.65874 27.7778 2.56769 28.2006 2.47387C28.9998 2.29434 28.9998 2.29434 29.8151 2.11118C30.3456 1.99264 30.8761 1.8741 31.4227 1.75196C32.738 1.48085 32.738 1.48085 33.6817 0.972782C37.5698 0.00246799 41.4937 0.001252 45.4777 0.000976146Z" fill="#2F3734"/>
<path d="M44.6337 2.01261C44.9867 2.00845 45.3398 2.00429 45.7035 2C47.8985 2.01193 49.714 2.32292 51.7965 3.02282C50.9571 6.10957 50.9571 6.10957 50.4535 6.61468C50.3348 7.61283 50.2468 8.61471 50.1737 9.61725C50.131 10.1653 50.0883 10.7134 50.0443 11.2781C49.9507 13.0887 49.9507 13.0887 50.4535 15.5943C52.2263 15.8907 53.9991 16.187 55.8256 16.4923C55.9733 15.8996 56.121 15.307 56.2733 14.6964C56.541 14.576 56.8088 14.4556 57.0847 14.3316C58.3701 13.6317 58.6821 12.6671 59.3563 11.4114C60.5023 9.67317 62.4904 9.22703 64.4153 8.7754C66.9288 8.56322 68.4288 9.89426 70.3155 11.4149C73.4301 14.1539 76.2763 17.1168 78.657 20.5331C78.657 20.8295 78.657 21.1258 78.657 21.4311C78.9524 21.4311 79.2479 21.4311 79.5523 21.4311C79.7001 22.4683 79.8478 23.5054 80 24.574C78.6704 24.574 77.3408 24.574 75.9709 24.574C75.9709 24.2776 75.9709 23.9813 75.9709 23.676C70.159 22.8798 64.3724 22.5308 58.5116 22.3291C58.5116 22.6254 58.5116 22.9217 58.5116 23.227C57.6252 23.3752 56.7388 23.5234 55.8256 23.676C55.8256 23.9723 55.8256 24.2687 55.8256 24.574C55.1878 24.9852 54.5498 25.396 53.9107 25.8052C51.571 27.5186 49.9398 29.8738 49.1105 32.6557C48.9307 34.0088 48.9221 35.3331 48.9426 36.6965C48.9374 37.0415 48.9322 37.3864 48.9268 37.7418C48.9389 40.1065 49.3396 41.7876 50.4535 43.8802C50.749 44.0284 51.0444 44.1766 51.3488 44.3292C51.5427 44.6718 51.7366 45.0145 51.9364 45.3675C52.7695 46.6982 53.7075 47.4089 54.9302 48.3701C54.9302 48.6664 54.9302 48.9627 54.9302 49.268C55.3734 49.268 55.8166 49.268 56.2733 49.268C56.2733 49.5643 56.2733 49.8607 56.2733 50.166C56.6149 50.2678 56.9565 50.3697 57.3085 50.4747C59.0307 51.3182 59.4754 52.5482 60.3023 54.2068C60.5186 55.5594 60.7035 56.9147 60.8864 58.2722C61.2119 59.6549 61.6446 60.3169 62.5407 61.3905C62.7346 61.9462 62.7346 61.9462 62.9324 62.513C63.707 64.2393 64.9793 65.1216 66.6817 65.8804C66.9402 66.0285 67.1988 66.1767 67.4651 66.3294C67.627 66.9247 67.7773 67.5234 67.9128 68.1253C68.356 68.2734 68.7992 68.4216 69.2558 68.5743C69.2558 68.8706 69.2558 69.1669 69.2558 69.4722C69.5513 69.4722 69.8467 69.4722 70.1512 69.4722C71.0652 70.7767 71.4942 71.4484 71.4942 73.0641C71.1987 73.0641 70.9033 73.0641 70.5988 73.0641C70.4511 73.5086 70.3034 73.9531 70.1512 74.411C69.8557 74.5592 69.5602 74.7074 69.2558 74.86C69.1081 75.3045 68.9604 75.749 68.8081 76.207C67.8166 77.026 67.8166 77.026 66.5977 77.8626C66.1967 78.1421 65.7956 78.4217 65.3824 78.7097C64.3314 79.3498 64.3314 79.3498 63.436 79.3498C63.2883 79.6462 63.1406 79.9425 62.9884 80.2478C60.5818 81.3474 57.9535 81.8429 55.3639 82.2998C54.4858 82.4087 54.4858 82.4087 54.0349 82.9417C44.7166 84.4397 32.0176 85.1463 23.913 79.441C23.0519 78.8096 23.0519 78.8096 21.6344 78.1151C19.7311 77.0468 18.2094 75.545 16.6226 74.0603C15.5561 73.0537 15.5561 73.0537 14.4087 72.2047C13.13 71.1279 12.219 69.9753 11.226 68.6304C10.8878 68.1778 10.5497 67.7252 10.2013 67.2589C7.92442 63.8978 7.92442 63.8978 7.92442 61.8395C7.62895 61.8395 7.33349 61.8395 7.02907 61.8395C7.02907 61.395 7.02907 60.9505 7.02907 60.4926C6.7336 60.4926 6.43814 60.4926 6.13372 60.4926C6.01167 59.9969 6.01167 59.9969 5.88715 59.4911C5.24584 56.8356 5.24584 56.8356 4.06323 54.4033C3.08589 52.6656 3.11034 50.7842 3 48.819C4.96416 48.819 5.48044 49.0399 7.02907 50.166C8.81977 52.1561 8.81977 52.1561 8.81977 53.3089C9.26297 53.457 9.70616 53.6052 10.1628 53.7578C10.1628 54.0542 10.1628 54.3505 10.1628 54.6558C10.4213 54.6928 10.6799 54.7299 10.9462 54.7681C12.2322 55.198 12.8269 55.9194 13.7442 56.9007C14.0397 57.0489 14.3351 57.1971 14.6395 57.3497C14.6395 57.646 14.6395 57.9424 14.6395 58.2477C15.3782 58.3958 16.1169 58.544 16.8779 58.6967C16.8779 58.993 16.8779 59.2893 16.8779 59.5946C17.238 59.6594 17.5981 59.7243 17.9691 59.791C19.1163 60.0436 19.1163 60.0436 19.564 60.4926C24.501 60.8813 24.501 60.8813 28.9651 59.1456C29.7179 58.1254 30.2109 57.1612 30.7558 56.0028C31.0513 56.0028 31.3467 56.0028 31.6512 56.0028C32.4259 50.078 33.1368 43.4998 30.3081 38.0435C30.0588 37.5527 29.8095 37.0619 29.5527 36.5562C27.05 33.6392 24.4279 32.3929 20.6307 32.0348C19.564 31.7577 19.564 31.7577 18.756 30.9509C17.8931 29.3558 18.1053 28.1669 18.2209 26.3699C18.8477 25.1127 19.6829 24.768 20.907 24.125C21.3502 24.125 21.7934 24.125 22.25 24.125C22.25 23.8287 22.25 23.5323 22.25 23.227C24.2993 21.7498 26.867 20.5331 29.4128 20.5331C29.4128 20.2368 29.4128 19.9405 29.4128 19.6352C29.6898 19.3666 29.9668 19.0981 30.2522 18.8214C32.1877 16.8231 32.2853 14.666 32.2492 11.999C32.0384 10.1153 31.4264 8.49566 30.6999 6.75498C30.3081 5.71671 30.3081 5.71671 30.3081 4.36976C34.6428 2.03707 39.8161 2.0479 44.6337 2.01261ZM66.5698 78.9009C66.8652 79.049 67.1607 79.1972 67.4651 79.3498C65.4506 81.1458 65.4506 81.1458 63.436 81.1458C63.436 81.4421 63.436 81.7384 63.436 82.0437C62.6974 82.1919 61.9587 82.3401 61.1977 82.4927C61.3454 82.1964 61.4931 81.9001 61.6453 81.5948C61.9408 81.5948 62.2363 81.5948 62.5407 81.5948C62.6884 81.1503 62.8362 80.7058 62.9884 80.2478C64.3034 79.7427 64.3034 79.7427 65.6744 79.3498C65.9699 79.2017 66.2654 79.0535 66.5698 78.9009Z" fill="#5DAD55"/>
<path d="M60.8803 25.0424C65.1146 24.9571 69.1064 24.8992 73.2368 25.9262C75.112 26.3429 76.9524 26.4955 78.8717 26.6167C79.4457 26.6537 80.0197 26.6908 80.6111 26.7289C81.265 26.7691 81.265 26.7691 81.9322 26.81C82.1587 28.1225 82.1587 28.1225 82.3898 29.4614C82.6919 29.4614 82.9939 29.4614 83.3051 29.4614C84.0293 31.0551 84.4167 32.5199 84.6781 34.2395C84.9333 35.8313 85.2158 37.3795 85.6506 38.9347C85.9934 40.2825 86.14 41.3439 86.051 42.7184C86.3531 42.7184 86.6551 42.7184 86.9663 42.7184C87.0645 46.373 87.0003 49.7722 86.051 53.324C85.9944 53.0415 85.9378 52.7589 85.8794 52.4678C85.7378 52.0167 85.7378 52.0167 85.5934 51.5564C85.2913 51.4106 84.9893 51.2648 84.6781 51.1145C84.6663 51.4295 84.6545 51.7445 84.6423 52.0691C84.4664 54.9381 84.0106 56.6723 82.3898 59.0687C82.0418 60.0718 82.0418 60.0718 81.9322 60.8363C81.6301 60.8363 81.3281 60.8363 81.0169 60.8363C80.9656 61.0847 80.9142 61.333 80.8614 61.5889C80.5178 62.7432 80.0047 63.6621 79.3865 64.7029C79.1783 65.0561 78.97 65.4093 78.7555 65.7732C78.5956 66.0397 78.4357 66.3063 78.271 66.581C77.9689 66.581 77.6669 66.581 77.3557 66.581C77.3274 66.8271 77.2991 67.0732 77.2699 67.3267C76.7329 68.8025 75.8251 69.5484 74.6098 70.5581C73.5515 70.9171 73.5515 70.9171 72.7792 71C72.7792 70.5625 72.7792 70.125 72.7792 69.6743C72.4771 69.6743 72.1751 69.6743 71.8639 69.6743C71.5619 68.6535 71.2598 67.6327 70.9486 66.581C70.6466 66.581 70.3445 66.581 70.0333 66.581C69.2605 65.8544 68.4988 65.1166 67.7451 64.3715C67.3958 64.1345 67.0466 63.8976 66.6867 63.6534C66.4319 63.4529 66.177 63.2524 65.9145 63.0458C65.9145 62.6083 65.9145 62.1708 65.9145 61.7201C65.6283 61.6124 65.3422 61.5048 65.0474 61.3939C63.8501 60.7011 63.7042 60.2591 63.3116 58.9859C63.2007 58.6281 63.0898 58.2704 62.9755 57.9018C62.7109 56.8592 62.7109 56.8592 62.5107 55.3402C62.1657 53.2303 61.5311 51.2055 60.4227 49.3469C59.4929 48.7648 59.4929 48.7648 58.5921 48.4631C58.5921 48.1715 58.5921 47.8798 58.5921 47.5793C58.3237 47.4637 58.0552 47.348 57.7787 47.2289C55.3864 45.9744 53.3673 43.743 52.185 41.3927C52.185 41.1011 52.185 40.8094 52.185 40.5089C51.8829 40.5089 51.5809 40.5089 51.2697 40.5089C50.7611 33.1795 50.7611 33.1795 53.1736 29.9292C54.9746 27.9834 56.7624 26.3831 59.5074 25.9815C60.187 25.9541 60.187 25.9541 60.8803 25.9262C60.8803 25.6346 60.8803 25.3429 60.8803 25.0424Z" fill="#53A6D9"/>
<path d="M29.8818 6C32.4142 13.2829 32.4142 13.2829 31.2466 16.7224C30.9464 16.7224 30.6461 16.7224 30.3367 16.7224C30.1115 17.3859 30.1115 17.3859 29.8818 18.0627C29.5815 18.0627 29.2813 18.0627 28.9719 18.0627C28.9719 18.3576 28.9719 18.6525 28.9719 18.9563C27.7652 19.4967 26.558 20.0361 25.3501 20.5741C24.4844 20.9598 23.6194 21.347 22.7554 21.7364C22.3953 21.897 22.0353 22.0577 21.6643 22.2233C21.1778 22.4418 21.1778 22.4418 20.6815 22.6648C19.8729 22.9772 19.8729 22.9772 18.963 22.9772C18.963 23.2721 18.963 23.5669 18.963 23.8707C18.5178 24.3269 18.0623 24.7735 17.5981 25.211C17.448 25.5059 17.2979 25.8008 17.1432 26.1046C16.8429 26.1046 16.5427 26.1046 16.2333 26.1046C16.2209 26.8119 16.2121 27.5193 16.2049 28.2267C16.1996 28.6206 16.1943 29.0146 16.1889 29.4204C16.2305 30.4998 16.3003 31.35 16.6882 32.3593C18.4638 33.5836 20.0933 34.245 22.1761 34.8165C24.6723 35.5121 26.3941 36.4443 28.1473 38.3628C29.7937 41.5406 30.6675 45.3171 30.3367 48.8897C30.1866 49.0372 30.0365 49.1846 29.8818 49.3365C29.6719 50.8955 29.5009 52.4568 29.3326 54.0206C28.8638 56.0617 28.0602 57.2324 26.2831 58.3923C24.1312 59.1309 22.0997 59.1408 19.8729 58.7186C16.9942 57.2224 14.3115 55.3111 12.1387 52.9106C12.1387 52.6158 12.1387 52.3209 12.1387 52.0171C11.5476 51.8927 11.5476 51.8927 10.9445 51.7658C8.97363 50.9415 7.85785 49.7363 6.67934 47.9962C6.67934 47.7013 6.67934 47.4065 6.67934 47.1027C5.47827 47.1027 4.2772 47.1027 3.03974 47.1027C2.84608 40.1647 3.29896 34.0299 5.76944 27.4449C6.06971 27.4449 6.36997 27.4449 6.67934 27.4449C6.82947 26.7077 6.97961 25.9705 7.13429 25.211C7.43456 25.211 7.73482 25.211 8.04419 25.211C8.10049 24.4923 8.10049 24.4923 8.15793 23.759C8.53996 21.8832 8.92925 21.5409 10.3189 20.2966C10.7816 19.4069 11.2363 18.5131 11.6838 17.616C13.2799 15.3769 15.3714 13.1326 18.0531 12.2548C18.3627 11.8493 18.6724 11.4439 18.9914 11.0261C20.5419 9.10797 22.6406 8.30815 24.8773 7.3403C25.187 7.19633 25.4966 7.05235 25.8157 6.90401C27.3145 6.22519 28.1928 6 29.8818 6Z" fill="#53A6D9"/>
<path d="M38.3838 3.05167C39.5008 5.63741 40.0082 7.7803 39.9999 10.5862C39.9998 10.9364 39.9997 11.2866 39.9996 11.6474C39.9113 14.5977 39.1627 16.9577 37.0229 19.1253C36.3492 19.3463 36.3492 19.3463 35.662 19.5718C34.8962 20.3062 34.1407 21.0512 33.3938 21.8043C32.0618 22.9514 31.0659 23.3503 29.311 23.5902C29.311 23.8849 29.311 24.1796 29.311 24.4832C28.1883 24.7042 28.1883 24.7042 27.0428 24.9297C27.0428 25.2244 27.0428 25.5191 27.0428 25.8227C26.7434 25.8227 26.444 25.8227 26.1356 25.8227C26.49 26.9369 26.49 26.9369 27.0428 28.0551C27.4919 28.2025 27.9411 28.3498 28.4038 28.5016C28.4038 28.7963 28.4038 29.091 28.4038 29.3946C28.795 29.4361 28.795 29.4361 29.1941 29.4783C30.6466 29.9928 31.1742 30.8677 32.0896 32.0736C33.2126 33.6571 33.2126 33.6571 34.7547 34.7525C35.2083 35.6943 35.2083 35.6943 35.662 36.8733C35.8117 37.2578 35.9614 37.6423 36.1156 38.0384C36.2653 38.4275 36.415 38.8165 36.5693 39.2174C36.7342 39.5449 36.8991 39.8724 37.069 40.2098C38.3989 44.2562 38.1309 50.2406 36.2024 54.0301C35.3982 55.242 34.5071 56.1306 33.3938 57.077C32.7972 57.6898 32.2019 58.3038 31.6076 58.9188C30.1882 60.3158 28.9276 61.2464 27.0428 61.9884C26.542 62.2215 26.542 62.2215 26.031 62.4593C24.4837 62.9792 23.1751 62.9998 21.5425 62.993C20.9893 62.9953 20.4361 62.9976 19.8661 63C18.4237 62.8814 18.4237 62.8814 17.0628 61.9884C16.6418 61.8595 16.2207 61.7306 15.7869 61.5977C12.5286 60.4658 9.61143 58.01 7.08275 55.7376C7.08275 55.4429 7.08275 55.1482 7.08275 54.8446C6.03484 54.6972 4.98694 54.5499 3.90728 54.3981C3.60788 52.4826 3.30847 50.5672 3 48.5937C4.99032 48.5937 5.51349 48.8134 7.08275 49.9332C8.8973 51.9122 8.8973 51.9122 8.8973 53.0586C9.3464 53.206 9.79551 53.3533 10.2582 53.5051C10.2582 53.7998 10.2582 54.0945 10.2582 54.3981C10.5202 54.4349 10.7822 54.4718 11.0521 54.5097C12.3552 54.9372 12.9578 55.6546 13.8873 56.6305C14.1867 56.7779 14.4861 56.9252 14.7946 57.077C14.7946 57.3717 14.7946 57.6664 14.7946 57.97C15.5431 58.1174 16.2916 58.2647 17.0628 58.4165C17.0628 58.7112 17.0628 59.0059 17.0628 59.3095C17.4277 59.3739 17.7926 59.4384 18.1685 59.5048C19.331 59.756 19.331 59.756 19.7846 60.2025C24.7874 60.589 24.7874 60.589 29.311 58.863C30.0738 57.8484 30.5735 56.8896 31.1256 55.7376C31.425 55.7376 31.7244 55.7376 32.0329 55.7376C32.8179 49.8457 33.5383 43.304 30.672 37.8779C30.4193 37.3899 30.1667 36.9018 29.9064 36.3989C27.3704 33.4981 24.7134 32.2587 20.8656 31.9026C19.7846 31.6271 19.7846 31.6271 18.966 30.8248C18.0915 29.2385 18.3066 28.0562 18.4237 26.2692C19.0589 25.0189 19.9052 24.6762 21.1455 24.0367C21.5946 24.0367 22.0437 24.0367 22.5065 24.0367C22.5065 23.742 22.5065 23.4474 22.5065 23.1437C24.583 21.6747 27.185 20.4648 29.7647 20.4648C29.7647 20.1701 29.7647 19.8754 29.7647 19.5718C30.0454 19.3048 30.3261 19.0377 30.6152 18.7626C32.5765 16.7754 32.6754 14.6303 32.6389 11.978C32.4252 10.1048 31.8051 8.49414 31.0689 6.76312C30.672 5.73062 30.672 5.73062 30.672 4.39114C33.3143 3.03425 35.427 2.89357 38.3838 3.05167Z" fill="#71C765"/>
<path d="M59.0903 22.1188C60.6506 22.0795 62.2108 22.0561 63.7714 22.0353C64.2082 22.0241 64.645 22.0129 65.095 22.0014C68.0039 21.9724 70.299 22.3892 72.9936 23.4545C75.6487 24.2843 78.3273 24.7732 81.0666 25.2355C81.0666 25.3824 81.0666 25.5293 81.0666 25.6807C73.5503 25.8365 73.5503 25.8365 70.194 25.0181C67.2874 24.4827 64.2814 24.474 61.3327 24.345C61.3327 24.6389 61.3327 24.9327 61.3327 25.2355C61.0622 25.3112 60.7916 25.387 60.5128 25.4651C58.3737 26.109 56.9981 26.6296 55.5023 28.3522C55.2063 28.3522 54.9103 28.3522 54.6053 28.3522C54.4851 28.5909 54.3648 28.8297 54.2409 29.0757C53.8604 29.8312 53.4503 30.5723 53.0216 31.3019C52.2316 33.104 52.1164 34.5925 52.0545 36.5334C52.0392 36.8612 52.0239 37.1889 52.0081 37.5265C51.9714 38.3269 51.9421 39.1277 51.9143 39.9284C52.2104 39.9284 52.5064 39.9284 52.8113 39.9284C53.3614 40.6954 53.3614 40.6954 53.9886 41.7372C55.2261 43.665 56.6023 45.0107 58.4 46.4244C58.6278 46.6316 58.8556 46.8388 59.0903 47.0522C59.0903 47.3461 59.0903 47.64 59.0903 47.9427C59.4927 47.984 59.4927 47.984 59.9032 48.0262C61.3154 48.547 61.5773 49.2894 62.2297 50.6142C63.139 52.7911 63.4177 55.0152 63.7276 57.3362C64.0499 58.7428 64.5298 59.683 65.3692 60.8547C65.8132 61.0751 65.8132 61.0751 66.2662 61.2999C66.4142 61.7407 66.5622 62.1815 66.7147 62.6356C67.5502 63.3455 67.5502 63.3455 68.5367 63.9992C69.5336 64.6827 69.5336 64.6827 70.3027 65.3071C70.3027 65.6009 70.3027 65.8948 70.3027 66.1976C70.5987 66.1976 70.8947 66.1976 71.1997 66.1976C71.8547 67.3763 72.0966 67.9315 72.0966 69.3142C72.3926 69.3142 72.6887 69.3142 72.9936 69.3142C72.9936 69.755 72.9936 70.1958 72.9936 70.65C74.4578 69.8467 75.1865 69.3882 76.1331 67.9785C76.4291 67.9785 76.7251 67.9785 77.0301 67.9785C77.2521 67.0969 77.2521 67.0969 77.4786 66.1976C77.7746 66.1976 78.0706 66.1976 78.3756 66.1976C78.4259 65.9473 78.4762 65.6971 78.528 65.4393C78.8647 64.2763 79.3675 63.3504 79.9733 62.3017C80.1774 61.9459 80.3815 61.59 80.5918 61.2234C80.7484 60.9548 80.9051 60.6862 81.0666 60.4094C81.3626 60.4094 81.6586 60.4094 81.9635 60.4094C82.0098 59.9319 82.056 59.4544 82.1037 58.9624C82.412 57.2928 82.412 57.2928 83.0708 56.4579C83.9174 55.2915 84.0698 54.3649 84.2901 52.9517C84.3612 52.5132 84.4323 52.0747 84.5056 51.6229C84.5547 51.29 84.6039 50.9571 84.6545 50.6142C84.9505 50.6142 85.2465 50.6142 85.5515 50.6142C85.5515 49.7326 85.5515 48.851 85.5515 47.9427C85.6995 47.9427 85.8475 47.9427 86 47.9427C85.8959 51.2403 85.6237 54.0747 84.2446 57.0945C83.7411 58.2199 83.3762 59.3478 83.0007 60.5208C81.7728 63.9338 79.4563 68.3338 76.5816 70.65C76.2856 70.65 75.9896 70.65 75.6846 70.65C75.5736 71.0081 75.4626 71.3662 75.3482 71.7352C75.0707 72.3 75.0707 72.3 74.7876 72.8762C73.8626 73.1544 73.8626 73.1544 72.9936 73.3214C72.7716 73.9826 72.7716 73.9826 72.5451 74.6571C72.2491 74.6571 71.9531 74.6571 71.6481 74.6571C71.6481 74.951 71.6481 75.2448 71.6481 75.5476C69.489 77.3056 67.0742 78.9668 64.4722 80C64.1762 79.8531 63.8802 79.7061 63.5752 79.5548C65.0369 77.9876 66.6636 76.6484 68.5087 75.5476C68.8047 75.5476 69.1007 75.5476 69.4057 75.5476C69.475 75.1481 69.475 75.1481 69.5458 74.7406C69.8982 73.6275 70.2888 73.1543 71.1997 72.4309C71.4957 72.4309 71.7917 72.4309 72.0966 72.4309C71.8746 72.0085 71.6526 71.5861 71.4239 71.1509C70.7512 69.7595 70.7512 69.7595 70.7512 68.869C70.4551 68.869 70.1591 68.869 69.8542 68.869C68.9802 67.8699 68.209 66.9383 67.6117 65.7523C66.8228 65.3027 66.0335 64.8539 65.2396 64.4131C63.1776 63.2261 62.6615 61.6847 61.7812 59.519C61.624 59.2326 61.4667 58.9462 61.3047 58.6511C60.8419 57.6461 60.7521 56.8882 60.688 55.7901C60.5085 53.9538 60.1393 52.6216 59.0903 51.0594C57.9312 50.287 57.9312 50.287 56.8478 49.7237C56.8478 49.4298 56.8478 49.136 56.8478 48.8332C56.4038 48.8332 55.9598 48.8332 55.5023 48.8332C55.5023 48.5393 55.5023 48.2455 55.5023 47.9427C55.2433 47.8325 54.9843 47.7223 54.7174 47.6088C53.5518 46.9659 52.7762 46.2797 51.9143 45.2713C51.9143 44.8305 51.9143 44.3897 51.9143 43.9356C51.4703 43.7886 51.0263 43.6417 50.5689 43.4903C49.2425 41.1078 49.002 39.0851 49.0272 36.3943C49.0137 35.8868 49.0137 35.8868 49 35.369C49.0031 31.7996 50.4282 29.2283 52.8113 26.599C53.1073 26.2644 53.4034 25.9298 53.7083 25.5851C54.6359 24.7631 55.1845 24.5146 56.3993 24.345C56.3993 24.0511 56.3993 23.7573 56.3993 23.4545C57.2873 23.3076 58.1753 23.1607 59.0903 23.0093C59.0903 22.7154 59.0903 22.4216 59.0903 22.1188Z" fill="#26312A"/>
<path d="M22.2007 22.3325C21.6522 23.992 20.8838 24.4141 19.5372 25.4666C18.8431 26.8667 18.9159 28.4126 19.0933 29.9439C19.8124 31.3739 19.8124 31.3739 20.9643 31.4882C21.3632 31.5234 21.762 31.5586 22.173 31.5949C25.5251 32.1287 28.2289 33.9283 30.4011 36.5549C32.3881 39.8163 33.0757 43.389 32.9935 47.1536C32.9879 47.7083 32.9879 47.7083 32.9822 48.2743C32.9308 50.9111 32.6322 53.3544 31.9669 55.9123C31.6739 55.9123 31.381 55.9123 31.0791 55.9123C30.9143 56.411 30.9143 56.411 30.7462 56.9197C29.9817 58.616 29.0985 59.5999 27.4376 60.4316C25.9478 60.9185 24.6812 60.9721 23.1163 60.9773C22.5904 60.9848 22.0645 60.9923 21.5227 61C19.8475 60.8233 18.7657 60.3393 17.3176 59.4942C17.3176 59.1987 17.3176 58.9032 17.3176 58.5987C16.5851 58.4509 15.8527 58.3032 15.098 58.151C15.098 57.8555 15.098 57.56 15.098 57.2555C14.7501 57.1355 14.4021 57.0154 14.0437 56.8917C12.8784 56.36 12.8784 56.36 11.9906 55.0168C11.3313 54.7952 11.3313 54.7952 10.6588 54.5691C9.84899 53.7733 9.84899 53.7733 9.02184 52.8062C8.74545 52.4882 8.46906 52.1702 8.18429 51.8425C7.55136 50.9873 7.55136 50.9873 7.55136 50.0918C7.19428 49.9718 6.8372 49.8517 6.4693 49.728C6.09391 49.5526 5.71852 49.3771 5.33176 49.1963C5.11202 48.5315 5.11202 48.5315 4.88784 47.8531C4.59485 47.7054 4.30187 47.5576 4 47.4054C5.11299 46.9917 5.5984 46.8821 6.71034 47.3564C7.16784 47.6577 7.16784 47.6577 7.63459 47.9651C7.94303 48.1613 8.25147 48.3575 8.56925 48.5597C9.32704 49.1963 9.32704 49.1963 9.77096 50.5395C10.1555 50.6226 10.1555 50.6226 10.5478 50.7074C11.7311 51.0389 12.195 51.6218 13.0154 52.5089C16.3046 55.65 19.4486 57.9319 23.9955 57.8431C25.77 57.654 26.7111 57.1837 27.9717 55.9123C28.9502 53.9384 29.0364 51.8503 29.1942 49.6773C29.3034 48.7486 29.3034 48.7486 29.7473 48.3009C29.8756 45.9782 29.5591 43.9951 28.9705 41.7528C28.8263 41.1837 28.6821 40.6147 28.5335 40.0284C27.7955 37.9561 26.9037 36.6648 25.0584 35.4846C23.7191 34.9443 22.4578 34.5789 21.0632 34.2253C19.1541 33.7224 17.7933 33.2476 16.4298 31.7348C15.5769 29.816 15.7863 27.4134 16.4298 25.4666C16.7227 25.4666 17.0157 25.4666 17.3176 25.4666C17.6106 24.7278 17.9036 23.9891 18.2054 23.2279C18.4984 23.2279 18.7914 23.2279 19.0933 23.2279C19.0933 22.9324 19.0933 22.6369 19.0933 22.3325C20.4296 21.9142 20.8097 21.8648 22.2007 22.3325Z" fill="#28332F"/>
<path d="M25.9245 7C26.0973 8.48193 26.0257 9.08502 25.1515 10.3277C24.6318 10.8733 24.6318 10.8733 24.1016 11.43C23.7633 11.7926 23.4249 12.1552 23.0763 12.5288C22.1855 13.3956 21.3104 14.1598 20.3473 14.937C18.5841 16.4193 17.3222 18.1244 16.0252 20.0113C15.7921 20.3451 15.559 20.679 15.3188 21.0229C13.5837 23.5398 12.0338 26.1087 10.6689 28.8434C10.5006 29.1669 10.3323 29.4904 10.1589 29.8237C8.88068 32.3022 7.65861 34.7328 7.10742 37.4804C6.66586 39.5905 6.0701 41.759 4.83592 43.5542C3.87894 43.8886 3.87894 43.8886 3.04115 44C2.793 38.0741 3.66434 32.6396 5.7333 27.0602C6.02944 27.0602 6.32557 27.0602 6.63068 27.0602C6.77875 26.3247 6.92682 25.5892 7.07938 24.8313C7.37551 24.8313 7.67165 24.8313 7.97676 24.8313C8.03229 24.1142 8.03229 24.1142 8.08893 23.3825C8.46571 21.5109 8.84964 21.1693 10.2202 19.9277C10.6765 19.04 11.125 18.1482 11.5663 17.253C13.1404 15.0189 15.2032 12.7795 17.848 11.9036C18.1534 11.4991 18.4588 11.0945 18.7734 10.6777C20.4367 8.58562 23.2266 7 25.9245 7Z" fill="#66B6DD"/>
<path d="M85.549 48C85.6978 48 85.8467 48 86 48C85.8953 51.2917 85.6216 54.121 84.2348 57.1354C83.7286 58.2588 83.3616 59.3847 82.9841 60.5556C81.7494 63.9626 79.42 68.3547 76.5294 70.6667C76.2318 70.6667 75.9341 70.6667 75.6274 70.6667C75.5158 71.0242 75.4042 71.3817 75.2892 71.75C75.1032 72.1258 74.9172 72.5017 74.7255 72.8889C73.7953 73.1667 73.7953 73.1667 72.9216 73.3333C72.7727 73.7733 72.6239 74.2133 72.4706 74.6667C72.1729 74.6667 71.8753 74.6667 71.5686 74.6667C71.5686 74.96 71.5686 75.2533 71.5686 75.5556C69.3975 77.3104 66.9693 78.9686 64.3529 80C64.0553 79.8533 63.7576 79.7067 63.451 79.5556C64.9207 77.9912 66.5565 76.6544 68.4118 75.5556C68.7094 75.5556 69.0071 75.5556 69.3137 75.5556C69.3602 75.2897 69.4067 75.0239 69.4547 74.75C69.809 73.6389 70.2018 73.1665 71.1176 72.4444C71.4153 72.4444 71.7129 72.4444 72.0196 72.4444C71.7964 72.0228 71.5731 71.6011 71.3431 71.1667C70.6667 69.7778 70.6667 69.7778 70.6667 68.8889C70.369 68.8889 70.0714 68.8889 69.7647 68.8889C68.8859 67.8915 68.1104 66.9616 67.5098 65.7778C66.7191 65.3305 65.9279 64.8841 65.1298 64.4497C64.2684 63.951 63.6126 63.448 63 62.6667C63 62.3733 63 62.08 63 61.7778C63.5953 61.9244 64.1906 62.0711 64.8039 62.2222C64.6551 61.6356 64.5063 61.0489 64.3529 60.4444C65.2267 60.8056 65.2267 60.8056 66.1569 61.3333C66.3057 61.7733 66.4545 62.2133 66.6078 62.6667C67.448 63.3753 67.448 63.3753 68.4399 64.0278C69.4423 64.7101 69.4423 64.7101 70.2157 65.3333C70.2157 65.6267 70.2157 65.92 70.2157 66.2222C70.5133 66.2222 70.811 66.2222 71.1176 66.2222C71.7764 67.3988 72.0196 67.9531 72.0196 69.3333C72.3173 69.3333 72.6149 69.3333 72.9216 69.3333C72.9216 69.7733 72.9216 70.2133 72.9216 70.6667C74.3938 69.8648 75.1265 69.4071 76.0784 68C76.3761 68 76.6737 68 76.9804 68C77.1292 67.4133 77.278 66.8267 77.4314 66.2222C77.729 66.2222 78.0267 66.2222 78.3333 66.2222C78.3839 65.9724 78.4345 65.7226 78.4866 65.4653C78.8252 64.3044 79.3308 63.3801 79.9399 62.3333C80.1452 61.9781 80.3504 61.6229 80.5618 61.2569C80.7194 60.9888 80.8769 60.7207 81.0392 60.4444C81.3369 60.4444 81.6345 60.4444 81.9412 60.4444C81.9877 59.9678 82.0342 59.4911 82.0821 59C82.3922 57.3333 82.3922 57.3333 83.0545 56.5C83.9059 55.3357 84.0591 54.4107 84.2806 53C84.3521 52.5623 84.4237 52.1246 84.4973 51.6736C84.5467 51.3413 84.5961 51.009 84.6471 50.6667C84.9447 50.6667 85.2424 50.6667 85.549 50.6667C85.549 49.7867 85.549 48.9067 85.549 48Z" fill="#3D634A"/>
<path d="M62.1143 80C62.5527 80.2074 62.5527 80.2074 63 80.4191C62.4758 81.9072 62.1119 82.4113 60.7857 83.3524C59.4611 83.616 58.1509 83.7168 56.8 83.7714C56.8 84.048 56.8 84.3246 56.8 84.6095C56.4266 84.6652 56.0533 84.7208 55.6686 84.7781C55.1834 84.8521 54.6982 84.9262 54.1982 85.0024C53.4738 85.1118 53.4738 85.1118 52.7347 85.2234C51.5131 85.3871 51.5131 85.3871 50.6 85.8667C48.5708 85.9661 46.5398 85.9624 44.5082 85.9674C43.5012 85.9714 42.4946 85.9844 41.4877 85.9976C38.0973 86.0204 35.1639 85.9008 32 84.6095C32 84.4713 32 84.333 32 84.1905C33.023 84.1905 34.046 84.1905 35.1 84.1905C34.8077 83.7756 34.5154 83.3608 34.2143 82.9333C34.4876 82.9504 34.7608 82.9675 35.0424 82.9851C40.0608 83.2826 45.0059 83.4721 50.0187 83.0119C50.4019 82.9774 50.7851 82.9429 51.1798 82.9074C53.0586 82.7116 54.6194 82.4138 56.3571 81.6762C57.3594 81.4459 58.3635 81.2597 59.3758 81.0738C60.3689 80.8687 60.3689 80.8687 61.296 80.3667C61.5661 80.2457 61.8361 80.1247 62.1143 80Z" fill="#435740"/>
<path d="M53.3543 4C55.4941 4.43043 57.6339 4.86087 59.8386 5.30435C59.8386 5.5913 59.8386 5.87826 59.8386 6.17391C60.2665 6.17391 60.6945 6.17391 61.1354 6.17391C61.1354 6.46087 61.1354 6.74783 61.1354 7.04348C61.4207 7.18696 61.706 7.33043 62 7.47826C61.703 7.61501 61.406 7.75177 61.1 7.89266C60.5157 8.17177 60.5157 8.17177 59.9196 8.45652C59.5335 8.63811 59.1473 8.8197 58.7494 9.00679C57.6249 9.68359 57.1292 10.3327 56.3803 11.3913C56.095 11.3913 55.8097 11.3913 55.5157 11.3913C55.4176 11.741 55.3196 12.0908 55.2185 12.4511C54.6511 13.5652 54.6511 13.5652 53.5434 13.9457C53.1957 13.9636 52.848 13.9815 52.4897 14C52.0574 13.5652 52.0574 13.5652 52 12.6787C52.0067 10.4628 52.1121 8.35767 52.4897 6.17391C52.775 6.17391 53.0603 6.17391 53.3543 6.17391C53.3543 5.45652 53.3543 4.73913 53.3543 4Z" fill="#51A1D2"/>
<path d="M30.0591 5C32.3631 8.35115 33.4536 12.162 32.8239 16.1702C32.3791 17.4809 31.8731 18.6624 30.9807 19.7447C30.2964 19.9659 30.2964 19.9659 29.5983 20.1915C29.5983 20.4864 29.5983 20.7813 29.5983 21.0851C28.6289 21.4485 27.6592 21.8115 26.6895 22.1742C25.8796 22.4774 25.8796 22.4774 25.0533 22.7868C24.1177 23.1314 23.1751 23.4591 22.2256 23.766C22.2256 24.0609 22.2256 24.3557 22.2256 24.6596C21.1312 25.4136 21.1312 25.4136 19.9216 26C19.6175 25.8526 19.3133 25.7051 19 25.5532C19.6336 24.883 19.6336 24.883 20.3824 24.2128C20.6865 24.2128 20.9906 24.2128 21.304 24.2128C21.304 23.7704 21.304 23.3281 21.304 22.8723C20.6957 22.7249 20.0875 22.5774 19.4608 22.4255C26.7024 18.8511 26.7024 18.8511 28.6767 18.8511C28.6767 18.5562 28.6767 18.2613 28.6767 17.9574C29.3103 17.2314 29.3103 17.2314 30.0591 16.617C30.3632 16.617 30.6673 16.617 30.9807 16.617C31.1591 13.3628 30.8106 10.5991 29.8557 7.47141C29.5983 6.34043 29.5983 6.34043 30.0591 5Z" fill="#30473F"/>
<path d="M85.5 48C85.665 48 85.83 48 86 48C85.8841 51.3263 85.5807 54.1873 84.0527 57.2355C83.4505 58.4497 82.9767 59.6793 82.5 60.9375C81.7289 62.8561 80.96 64.4317 79.5 66C79.005 66 78.51 66 78 66C78 64.4504 78.398 63.8634 79.25 62.5406C79.482 62.1769 79.7141 61.8132 79.9531 61.4385C80.1336 61.1618 80.3141 60.8851 80.5 60.6C80.83 60.6 81.16 60.6 81.5 60.6C81.5773 59.8761 81.5773 59.8761 81.6562 59.1375C82 57.45 82 57.45 82.7344 56.6063C83.6783 55.4274 83.8481 54.4908 84.0938 53.0625C84.2127 52.3977 84.2127 52.3977 84.334 51.7195C84.3888 51.3831 84.4436 51.0466 84.5 50.7C84.83 50.7 85.16 50.7 85.5 50.7C85.5 49.809 85.5 48.918 85.5 48Z" fill="#3C525F"/>
<path d="M84.4892 29C85.4677 29.4667 85.4677 29.4667 85.8843 30.4583C87.0754 34.6816 87.0807 38.6669 86.9354 43C86.6125 43 86.2896 43 85.9569 43C85.6283 41.5519 85.3031 40.1031 84.9785 38.6542C84.8385 38.0374 84.8385 38.0374 84.6956 37.4082C84.6073 37.0127 84.519 36.6171 84.4281 36.2096C84.3051 35.6634 84.3051 35.6634 84.1796 35.1062C84 34.1333 84 34.1333 84 32.7333C84.3229 32.7333 84.6458 32.7333 84.9785 32.7333C84.817 31.5013 84.6556 30.2693 84.4892 29Z" fill="#5C666D"/>
<path d="M74 72C73.7096 72.66 73.4192 73.32 73.12 74C72.8296 74 72.5392 74 72.24 74C72.0948 74.396 71.9496 74.792 71.8 75.2C71.5096 75.2 71.2192 75.2 70.92 75.2C70.92 75.464 70.92 75.728 70.92 76C68.8018 77.5793 66.4327 79.0717 63.88 80C63.5896 79.868 63.2992 79.736 63 79.6C64.434 78.1921 66.0299 76.989 67.84 76C68.1304 76 68.4208 76 68.72 76C68.72 75.736 68.72 75.472 68.72 75.2C69.0013 75.0845 69.2827 74.969 69.5725 74.85C70.5469 74.4687 70.5469 74.4687 70.92 73.6C71.3556 73.6 71.7912 73.6 72.24 73.6C72.24 73.204 72.24 72.808 72.24 72.4C73.12 72 73.12 72 74 72Z" fill="#333933"/>
<path d="M64.2353 61C65.0331 61.3346 65.0331 61.3346 65.8824 61.8235C66.0182 62.2312 66.1541 62.6388 66.2941 63.0588C67.0505 63.6568 67.0505 63.6568 67.9412 64.2169C69.536 65.3533 69.536 65.3533 70 66.9191C70 67.2758 70 67.6325 70 68C69.5839 67.6943 69.1677 67.3885 68.739 67.0735C67.7123 66.3363 66.6808 65.6753 65.5735 65.0662C63.7287 64.0019 63.7287 64.0019 63 63.0588C63 62.7871 63 62.5153 63 62.2353C63.5435 62.3712 64.0871 62.5071 64.6471 62.6471C64.5112 62.1035 64.3753 61.56 64.2353 61Z" fill="#335554"/>
<path d="M27.1304 19C27.1304 19.33 27.1304 19.66 27.1304 20C26.657 20.2475 26.657 20.2475 26.1739 20.5C26.4501 20.4278 26.7263 20.3556 27.0109 20.2812C28.0072 20.0208 29.0036 19.7604 30 19.5C30 19.83 30 20.16 30 20.5C28.9938 20.9067 27.9874 21.3128 26.981 21.7188C26.1404 22.0581 26.1404 22.0581 25.2828 22.4043C24.3116 22.7899 23.3333 23.1566 22.3478 23.5C22.3478 23.83 22.3478 24.16 22.3478 24.5C21.212 25.3438 21.212 25.3438 19.9565 26C19.6409 25.835 19.3252 25.67 19 25.5C19.6576 24.75 19.6576 24.75 20.4348 24C20.7504 24 21.0661 24 21.3913 24C21.3913 23.505 21.3913 23.01 21.3913 22.5C20.76 22.335 20.1287 22.17 19.4783 22C20.2343 21.5912 20.9918 21.1856 21.75 20.7812C22.1717 20.555 22.5934 20.3288 23.0279 20.0957C24.4223 19.422 25.5934 19 27.1304 19Z" fill="#344E42"/>
<path d="M1.51743 32C1.97873 33.3858 1.98775 34.4215 1.78888 35.8537C1.1564 41.5501 1.44656 47.3083 2 53C0.894857 51.4651 0.948763 50.7725 1.03487 48.9787C0.716373 48.9787 0.397879 48.9787 0.0697337 48.9787C-0.0902895 43.1486 -0.106639 37.6658 1.51743 32Z" fill="#737373"/>
<path d="M61 25.037C65.2239 24.9626 69.2059 24.9121 73.3261 25.8075C75.1967 26.1708 77.0325 26.3038 78.947 26.4095C79.5196 26.4418 80.0922 26.4741 80.6822 26.5074C81.3345 26.5424 81.3345 26.5424 82 26.5781C82 26.7052 82 26.8324 82 26.9634C74.5545 27.0379 74.5545 27.0379 71.0435 26.5781C70.8928 26.451 70.7422 26.3238 70.587 26.1928C69.875 26.1324 69.1601 26.0962 68.4452 26.0709C68.0142 26.0548 67.5831 26.0386 67.139 26.022C66.6855 26.0069 66.2321 25.9917 65.7649 25.9761C65.3098 25.9595 64.8546 25.9428 64.3856 25.9257C63.2571 25.8847 62.1286 25.8454 61 25.8075C61 25.5533 61 25.299 61 25.037Z" fill="#3D708D"/>
<path d="M62.1304 80C62.4174 80.1375 62.7043 80.275 63 80.4167C62.4853 81.8964 62.1281 82.3975 60.8261 83.3333C59.5256 83.5955 58.2393 83.6957 56.913 83.75C56.913 84.025 56.913 84.3 56.913 84.5833C54.9761 84.7896 54.9761 84.7896 53 85C53.4348 84.1667 53.4348 84.1667 54.7935 83.724C56.3696 83.3585 57.9133 83.1054 59.5217 82.9167C59.5217 82.6417 59.5217 82.3667 59.5217 82.0833C57.8 82.3583 56.0783 82.6333 54.3043 82.9167C54.4478 82.6417 54.5913 82.3667 54.7391 82.0833C55.6449 81.8412 56.5625 81.639 57.4837 81.4583C59.4967 81.0746 59.4967 81.0746 61.3882 80.3516C61.6332 80.2355 61.8781 80.1195 62.1304 80Z" fill="#4E5E4C"/>
<path d="M49 3C50.1116 3 51.2232 3 52.3684 3C52.5074 3.28696 52.6463 3.57391 52.7895 3.86957C53.6716 4.0395 53.6716 4.0395 54.6842 4.08696C55.7237 4.15489 55.7237 4.15489 56.5789 4.30435C56.7179 4.5913 56.8568 4.87826 57 5.17391C55.7495 4.88696 54.4989 4.6 53.2105 4.30435C53.2105 5.02174 53.2105 5.73913 53.2105 6.47826C52.9326 6.47826 52.6547 6.47826 52.3684 6.47826C52.2295 8.63043 52.0905 10.7826 51.9474 13C51.8084 13 51.6695 13 51.5263 13C51.5312 12.5707 51.5361 12.1414 51.5411 11.699C51.5449 11.1419 51.5487 10.5848 51.5526 10.0109C51.5575 9.45601 51.5624 8.90116 51.5674 8.32948C51.6239 6.96233 51.6239 6.96233 51.1053 6.04348C51.5 4.90217 51.5 4.90217 51.9474 3.86957C50.9747 3.72609 50.0021 3.58261 49 3.43478C49 3.2913 49 3.14783 49 3Z" fill="#375D61"/>
<path d="M60 82C60 82.2817 60 82.5633 60 82.8535C56.6385 84.0717 53.6651 85.1279 50 84.9874C52.3611 82.468 56.6007 82 60 82Z" fill="#2A3828"/>
<path d="M17.55 8C17.6985 8.297 17.847 8.594 18 8.9C17.6856 9.21324 17.3712 9.52648 17.0473 9.84922C16.1574 10.7385 15.275 11.6346 14.3965 12.5352C13.9289 13.011 13.4613 13.4867 12.9937 13.9625C12.7577 14.2061 12.5216 14.4498 12.2783 14.7008C11.1959 15.7969 10.4826 16.5058 9 17C9.52765 15.4982 9.98491 14.4015 11.25 13.4C11.547 13.4 11.844 13.4 12.15 13.4C12.2985 12.9545 12.447 12.509 12.6 12.05C12.897 12.05 13.194 12.05 13.5 12.05C13.6485 11.6045 13.797 11.159 13.95 10.7C14.247 10.7 14.544 10.7 14.85 10.7C14.85 10.403 14.85 10.106 14.85 9.8C15.7327 9.17478 16.6327 8.57328 17.55 8Z" fill="#535353"/>
<path d="M55 48C56.6074 48.3828 57.7191 48.6861 58.9439 49.95C60.6908 53.2512 61.1302 56.1923 60.9691 60C60.107 58.5441 60.0135 58.1414 59.9299 56.49C59.7601 54.4975 59.4148 53.0553 58.4109 51.36C57.309 50.5272 57.309 50.5272 56.2791 49.92C56.2791 49.6032 56.2791 49.2864 56.2791 48.96C55.857 48.96 55.4349 48.96 55 48.96C55 48.6432 55 48.3264 55 48Z" fill="#3F7139"/>
<path d="M78.5833 65C78.8958 65.8125 78.8958 65.8125 79 67C78.0244 69.1613 76.9032 70.5672 75.25 72C74.8375 71.67 74.425 71.34 74 71C74.5336 70.1463 75.0907 69.3131 75.6667 68.5C75.9417 68.5 76.2167 68.5 76.5 68.5C76.5344 68.2009 76.5687 67.9019 76.6042 67.5938C77.0019 66.2017 77.5714 65.7834 78.5833 65Z" fill="#35444C"/>
<path d="M48.4419 34C48.6261 34 48.8103 34 49 34C49 35.9067 49 37.8133 49 39.7778C48.6317 39.4844 48.2633 39.1911 47.8839 38.8889C46.7699 39.7761 47.0971 41.4742 47.0119 42.6944C46.9878 43.0104 46.9637 43.3264 46.9388 43.6519C46.8795 44.4345 46.8233 45.2172 46.7677 46C46.5836 46 46.3994 46 46.2096 46C45.7822 37.8487 45.7822 37.8487 48.4419 34Z" fill="#519848"/>
<path d="M29 40C29.2965 40 29.5929 40 29.8984 40C31.3696 43.7952 31.3648 48.1911 29.8984 52C29.7501 52 29.6019 52 29.4492 52C29.4053 49.2656 29.4053 49.2656 29.4492 48.4444C29.5974 48.2978 29.7456 48.1511 29.8984 48C30.0794 45.2541 29.5496 42.6848 29 40Z" fill="#396782"/>
<path d="M85.0102 33C85.4953 33.2357 85.4953 33.2357 85.9901 33.4762C86.9214 36.6054 87.0791 39.7652 86.9699 43C86.6466 43 86.3232 43 85.9901 43C85.8243 41.8693 85.6614 40.7384 85.5002 39.6071C85.4534 39.2904 85.4067 38.9737 85.3585 38.6473C85.0905 36.7494 84.9611 34.915 85.0102 33Z" fill="#33393D"/>
<path d="M51 84.0026C50.3698 84.5013 50.3698 84.5013 49.625 85C49.3225 85 49.02 85 48.7083 85C48.7083 84.8354 48.7083 84.6709 48.7083 84.5013C45.8346 84.5013 42.9608 84.5013 40 84.5013C40 84.419 40 84.3367 40 84.2519C41.1457 84.2096 42.2916 84.1682 43.4375 84.1273C43.7565 84.1154 44.0756 84.1035 44.4043 84.0912C46.6078 84.0135 48.7919 83.9918 51 84.0026Z" fill="#2F452C"/>
<path d="M64.125 61C64.8516 61.2812 64.8516 61.2812 65.625 61.75C65.9297 62.5 65.9297 62.5 66 63.25C65.8762 63.4975 65.7525 63.745 65.625 64C64.7344 63.9062 64.7344 63.9062 63.75 63.625C63.2578 62.8516 63.2578 62.8516 63 62.125C63.495 62.2488 63.99 62.3725 64.5 62.5C64.3762 62.005 64.2525 61.51 64.125 61Z" fill="#324F3F"/>
<path d="M27.2308 19C27.2308 19.3771 27.2308 19.7543 27.2308 20.1429C26.7738 20.4257 26.7738 20.4257 26.3077 20.7143C26.5742 20.6318 26.8408 20.5493 27.1154 20.4643C28.0769 20.1667 29.0385 19.869 30 19.5714C30 19.9486 30 20.3257 30 20.7143C28.3246 21.4686 26.6492 22.2229 24.9231 23C24.7708 22.6229 24.6185 22.2457 24.4615 21.8571C24.7662 21.8571 25.0708 21.8571 25.3846 21.8571C25.3846 21.48 25.3846 21.1029 25.3846 20.7143C24.9277 20.5257 24.4708 20.3371 24 20.1429C26.1923 19 26.1923 19 27.2308 19Z" fill="#3C5F4A"/>
<path d="M61 50C62.5702 50.5917 62.7453 51.0224 63.3882 52.25C63.9691 54.5268 64.0389 56.6932 63.9852 59C63.7882 59 63.5912 59 63.3882 59C63.3158 58.6415 63.2435 58.283 63.169 57.9137C62.6609 55.4924 62.1285 53.2087 61 50.9C61 50.603 61 50.306 61 50Z" fill="#3A6885"/>
<path d="M83 27C83.264 27 83.528 27 83.8 27C83.8 27.4569 83.8 27.9138 83.8 28.3846C84.064 28.3846 84.328 28.3846 84.6 28.3846C84.732 29.9077 84.864 31.4308 85 33C84.736 33 84.472 33 84.2 33C84.068 31.6292 83.936 30.2585 83.8 28.8462C83.536 28.8462 83.272 28.8462 83 28.8462C83 28.2369 83 27.6277 83 27Z" fill="#222425"/>
<path d="M28.9091 18C29.2691 18 29.6291 18 30 18C29.4741 19.6341 28.7993 20.283 27.4545 21C26.6136 20.8661 26.6136 20.8661 26 20.5714C26.36 20.43 26.72 20.2886 27.0909 20.1429C27.0909 19.86 27.0909 19.5771 27.0909 19.2857C27.6909 19.1443 28.2909 19.0029 28.9091 18.8571C28.9091 18.5743 28.9091 18.2914 28.9091 18Z" fill="#242A25"/>
<path d="M56 83C56 83.3266 56 83.6531 56 83.9896C53.9214 84.8591 52.2263 85.0746 50 84.9791C50.8664 83.7923 51.3437 83.505 52.7404 83.1546C54.1538 83 54.1538 83 56 83Z" fill="#242624"/>
<path d="M67 77C67.33 77.1238 67.66 77.2475 68 77.375C67.4465 78.5789 66.992 78.8786 65.5 79.5547C65.005 79.7016 64.51 79.8486 64 80C63.67 79.8762 63.34 79.7525 63 79.625C64.2581 78.6477 65.5257 77.7898 67 77Z" fill="#2A312A"/>
<path d="M25 79C26.5 79.132 28 79.264 29.5455 79.4C29.6955 79.928 29.8455 80.456 30 81C27.9105 80.5403 26.7601 80.1616 25 79Z" fill="#498641"/>
<path d="M16 76C17.6674 76.562 18.6879 77.0173 19.8571 78.5C20.5626 79.0168 21.2756 79.5203 22 80C20.5343 80 19.8223 79.5958 18.5179 78.8438C18.1367 78.6291 17.7555 78.4145 17.3627 78.1934C16.4286 77.5 16.4286 77.5 16 76Z" fill="#999999"/>
<path d="M67 65C68.4235 65.2034 69.052 65.8255 70 66.875C69.8762 67.2463 69.7525 67.6175 69.625 68C69.1853 67.6433 68.7483 67.2833 68.3125 66.9219C68.0689 66.7217 67.8252 66.5216 67.5742 66.3154C67.3847 66.1288 67.1952 65.9422 67 65.75C67 65.5025 67 65.255 67 65Z" fill="#26322B"/>
<path d="M85.5 48C85.665 48 85.83 48 86 48C85.835 50.145 85.67 52.29 85.5 54.5C85.005 54.665 84.51 54.83 84 55C84.165 53.68 84.33 52.36 84.5 51C84.83 51 85.16 51 85.5 51C85.5 50.01 85.5 49.02 85.5 48Z" fill="#465D6A"/>
<path d="M31 83C33.1757 83.1198 34.9996 83.2421 37 83.75C37 83.8325 37 83.915 37 84C36.1729 83.9648 35.346 83.928 34.5192 83.8906C34.0587 83.8703 33.5982 83.85 33.1238 83.8291C31.9231 83.75 31.9231 83.75 31 83.5C31 83.335 31 83.17 31 83Z" fill="#212221"/>
<path d="M56 1C59.0769 1.19692 59.0769 1.19692 60.375 2.225C60.5812 2.48075 60.7875 2.7365 61 3C60.0375 2.868 59.075 2.736 58.0833 2.6C58.0833 2.336 58.0833 2.072 58.0833 1.8C57.3958 1.668 56.7083 1.536 56 1.4C56 1.268 56 1.136 56 1Z" fill="#A8A8A8"/>
<path d="M3.5 48C3.995 48.165 4.49 48.33 5 48.5C4.505 48.7475 4.505 48.7475 4 49C4.165 50.98 4.33 52.96 4.5 55C3.45721 53.4358 3.31803 52.7569 3.15625 50.9375C3.11307 50.4928 3.06988 50.048 3.02539 49.5898C3.01701 49.2302 3.00863 48.8705 3 48.5C3.165 48.335 3.33 48.17 3.5 48Z" fill="#4E8248"/>
<path d="M55 48C58 48.975 58 48.975 59 51C57.68 50.703 57.68 50.703 56.3333 50.4C56.3333 50.004 56.3333 49.608 56.3333 49.2C55.8933 49.2 55.4533 49.2 55 49.2C55 48.804 55 48.408 55 48Z" fill="#3A6334"/>
<path d="M55.4286 28C55.6171 28.495 55.8057 28.99 56 29.5C55.6464 29.7062 55.2929 29.9125 54.9286 30.125C53.6756 31.0279 53.1841 31.7045 52.5714 33C52.3829 32.67 52.1943 32.34 52 32C53.9496 28.6471 53.9496 28.6471 55.4286 28Z" fill="#40799B"/>
<path d="M30.1996 5C30.7244 6.34123 30.9076 7.06173 31 8.63636C30.7359 9.31136 30.7359 9.31136 30.4664 10C29.8994 6.53409 29.8994 6.53409 30.1996 5Z" fill="#385B4D"/>
</svg>
