<svg width="125" height="69" viewBox="0 0 125 69" fill="none" xmlns="http://www.w3.org/2000/svg">
<path d="M29.2188 2.43637C30.2111 2.79193 30.2111 2.79193 31.2235 3.15467C33.3196 3.90883 35.4096 4.67838 37.5 5.44808C38.902 5.95361 40.3043 6.45818 41.707 6.96176C52.0228 10.6884 52.0228 10.6884 56.7664 12.7728C61.8934 14.9335 66.5378 15.0006 72 14.1356C75.6619 12.5549 78.7701 10.4583 82 8.13558C83.3875 7.20638 84.7829 6.28874 86.1875 5.38558C86.7586 4.99887 87.3296 4.61215 87.918 4.21371C93.9502 1.09008 99.9346 0.797052 106.562 0.823084C107.387 0.806971 108.211 0.790858 109.061 0.774256C114.124 0.770208 117.612 1.33388 122 4.13558C124.405 7.30643 124.523 10.2516 124 14.1356C116.801 34.8839 73.5095 52.1373 55.1157 61.0721C54.2938 61.4643 53.4718 61.8565 52.625 62.2606C51.4752 62.8102 51.4752 62.8102 50.3022 63.3709C42.991 66.7678 35.1478 69.9861 27.0664 67.5536C21.7823 65.2251 17.8541 61.5084 13.6758 57.5965C9.29153 53.5643 4.641 49.8678 0 46.1356C0.771852 42.34 2.07092 40.7096 5 38.1356C8.62152 36.3248 12.1341 36.2994 16 37.1356C18.793 38.9559 18.793 38.9559 21.625 41.1981C25.7019 44.4783 25.7019 44.4783 30.75 45.5106C34.364 43.9816 36.7262 42.1296 39.5195 39.4129C41 38.1356 41 38.1356 43 38.1356C43 37.4756 43 36.8156 43 36.1356C42.224 35.9345 41.448 35.7334 40.6484 35.5262C35.5731 33.5917 31.21 30.7722 26.625 27.8856C25.7175 27.3248 24.81 26.7641 23.875 26.1864C8.83285 16.8013 8.83285 16.8013 7 13.1356C6.58093 9.36398 6.68799 7.62588 8.75 4.38558C14.903 -1.76737 21.4696 -0.375228 29.2188 2.43637Z" fill="#C6E3F5"/>
<path d="M29.2188 2.43637C30.2111 2.79193 30.2111 2.79193 31.2235 3.15467C33.3196 3.90883 35.4096 4.67838 37.5 5.44808C38.902 5.95361 40.3043 6.45818 41.707 6.96176C52.0228 10.6884 52.0228 10.6884 56.7664 12.7728C61.8934 14.9335 66.5378 15.0006 72 14.1356C75.6619 12.5549 78.7701 10.4583 82 8.13558C83.3875 7.20638 84.7829 6.28874 86.1875 5.38558C86.7586 4.99887 87.3296 4.61215 87.918 4.21371C93.9502 1.09008 99.9346 0.797052 106.562 0.823084C107.387 0.806971 108.211 0.790858 109.061 0.774256C114.124 0.770208 117.612 1.33388 122 4.13558C124.405 7.30643 124.523 10.2516 124 14.1356C116.801 34.8839 73.5095 52.1373 55.1157 61.0721C54.2938 61.4643 53.4718 61.8565 52.625 62.2606C51.4752 62.8102 51.4752 62.8102 50.3022 63.3709C42.991 66.7678 35.1478 69.9861 27.0664 67.5536C21.7823 65.2251 17.8541 61.5084 13.6758 57.5965C9.29153 53.5643 4.641 49.8678 0 46.1356C0.771852 42.34 2.07092 40.7096 5 38.1356C8.62152 36.3248 12.1341 36.2994 16 37.1356C18.793 38.9559 18.793 38.9559 21.625 41.1981C25.7019 44.4783 25.7019 44.4783 30.75 45.5106C34.364 43.9816 36.7262 42.1296 39.5195 39.4129C41 38.1356 41 38.1356 43 38.1356C43 37.4756 43 36.8156 43 36.1356C42.2279 35.9358 41.4557 35.736 40.6602 35.5301C35.5242 33.5733 31.0864 30.7299 26.4375 27.8231C25.5049 27.254 24.5722 26.6848 23.6113 26.0985C18.8617 23.1498 14.7182 20.3255 11 16.1356C15.5701 17.729 19.3417 20.1499 23.375 22.7606C31.0405 27.6472 38.9196 31.9793 47 36.1356C35.8009 47.5315 35.8009 47.5315 29.8125 48.8231C26.2155 47.9438 23.9798 46.3249 21 44.1356C16.7033 41.2517 13.3118 39.4112 8 40.1356C7.01 40.7956 6.02 41.4556 5 42.1356C5.5708 45.5256 6.54359 46.9999 9.13281 49.2293C9.77477 49.7849 10.4167 50.3405 11.0781 50.9129C11.7536 51.4814 12.4291 52.0499 13.125 52.6356C13.7773 53.2041 14.4295 53.7725 15.1016 54.3582C21.2701 59.6333 26.7453 63.9911 35.1912 63.4911C43.6177 62.4246 51.5339 58.0939 58.9375 54.1356C60.2805 53.4243 60.2805 53.4243 61.6506 52.6986C71.3099 47.5249 80.6922 41.9131 90 36.1356C90.6718 35.7203 91.3435 35.3051 92.0356 34.8773C107.132 26.2876 107.132 26.2876 119 14.1356C119.5 11.051 119.5 11.051 119 8.13558C112.829 4.0214 102.169 5.54989 94.9414 6.56527C88.3601 8.27115 83.3934 12.1401 78 16.1356C72.5003 19.763 67.41 19.8057 61 19.1356C56.602 17.9106 52.4559 16.2135 48.25 14.4481C45.9592 13.5279 43.6675 12.61 41.375 11.6942C40.2806 11.2519 39.1862 10.8096 38.0586 10.3538C34.156 8.79941 30.2291 7.35578 26.25 6.01058C25.162 5.63676 24.0741 5.26293 22.9531 4.87777C19.8158 4.08928 17.2214 3.87513 14 4.13558C11.1651 6.20431 10.1753 7.49282 9.25 10.8856C9.1675 11.6281 9.085 12.3706 9 13.1356C8.34 13.1356 7.68 13.1356 7 13.1356C6.65283 9.40348 6.70772 7.59488 8.75 4.38558C14.903 -1.76737 21.4696 -0.375228 29.2188 2.43637Z" fill="#303132"/>
<path d="M24 4.13559C29.1473 5.71551 34.16 7.58868 39.1875 9.51059C40.5276 10.0116 41.8681 10.5117 43.209 11.0106C48.0996 12.8407 52.9775 14.6758 57.762 16.7706C63.5544 19.2124 69.0444 19.3274 74.9062 16.9637C80.2513 14.115 85.1149 10.6976 90 7.13559C92.8821 6.17488 94.6985 6.02977 97.6875 6.07309C98.8999 6.08662 98.8999 6.08662 100.137 6.10043C101.059 6.11783 101.059 6.11783 102 6.13559C100.353 9.43032 96.7721 10.3549 93.5625 11.8856C87.9183 14.6293 82.4897 17.4978 77.2109 20.909C68.8444 25.5505 58.7021 25.4063 49.5469 23.3661C41.2413 20.5811 33.4846 16.5186 25.751 12.4388C24.9334 12.0126 24.1158 11.5864 23.2734 11.1473C22.1817 10.5666 22.1817 10.5666 21.0679 9.97421C18.7541 8.88504 18.7541 8.88504 15 9.13559C14.67 11.7756 14.34 14.4156 14 17.1356C12.02 16.4756 10.04 15.8156 8 15.1356C8.22958 13.6947 8.48456 12.2578 8.75 10.8231C8.88922 10.0226 9.02844 9.22207 9.17188 8.39731C11.7277 1.41692 18.0755 2.8419 24 4.13559Z" fill="#DCEFF9"/>
<path d="M7 40.1356C7.46148 40.4875 7.92297 40.8394 8.39844 41.202C10.5891 42.8601 12.7935 44.4986 15 46.1356C15.7941 46.735 16.5881 47.3344 17.4062 47.952C27.9288 55.6608 36.9265 58.4583 50 57.1356C51.3434 56.4895 52.6799 55.8282 54 55.1356C54.99 55.4656 55.98 55.7956 57 56.1356C54.5854 57.2858 52.1685 58.4309 49.75 59.5731C48.7271 60.0613 48.7271 60.0613 47.6836 60.5594C47.0197 60.872 46.3559 61.1846 45.6719 61.5067C45.0644 61.7947 44.4569 62.0827 43.8311 62.3795C37.6132 64.947 30.8055 65.2578 24.5625 62.7606C20.1883 59.8686 16.425 56.1189 12.6016 52.5536C9.81508 49.9637 6.95355 47.5304 4 45.1356C4.375 43.1981 4.375 43.1981 5 41.1356C5.66 40.8056 6.32 40.4756 7 40.1356Z" fill="#A0CBE0"/>
<path d="M11 16.1356C15.5701 17.729 19.3417 20.1499 23.375 22.7606C31.0405 27.6472 38.9196 31.9793 47 36.1356C35.8009 47.5315 35.8009 47.5315 29.8125 48.8231C26.2155 47.9438 23.9798 46.3249 21 44.1356C18.6912 42.755 16.3475 41.4502 14 40.1356C14 39.1456 14 38.1556 14 37.1356C17.619 38.2665 20.013 39.9232 22.875 42.3231C25.8255 44.5761 26.7243 45.1162 30.5625 45.3856C34.402 43.9894 36.6235 42.2295 39.5195 39.4129C41 38.1356 41 38.1356 43 38.1356C43 37.4756 43 36.8156 43 36.1356C42.2279 35.9358 41.4557 35.736 40.6602 35.5301C35.5242 33.5733 31.0864 30.7299 26.4375 27.8231C25.0385 26.9694 25.0385 26.9694 23.6113 26.0985C18.8617 23.1498 14.7182 20.3255 11 16.1356Z" fill="#3E4142"/>
<path d="M22 0.135586C22.66 0.795586 23.32 1.45559 24 2.13559C23.67 2.79559 23.34 3.45559 23 4.13559C22.3967 4.08918 21.7934 4.04277 21.1719 3.99496C16.038 3.70101 16.038 3.70101 11.5 5.82309C9.88244 8.31682 9.32643 10.1977 9 13.1356C8.34 13.1356 7.68 13.1356 7 13.1356C6.65283 9.40348 6.70772 7.59488 8.75 4.38558C12.9811 0.154457 15.9938 -0.309322 22 0.135586Z" fill="#3F4142"/>
<path d="M105 5.13559C106.749 5.05416 108.5 4.9962 110.25 4.94809C111.225 4.91328 112.199 4.87848 113.203 4.84262C116.375 5.17483 117.67 6.02231 120 8.13559C119.67 9.45559 119.34 10.7756 119 12.1356C118.072 11.455 118.072 11.455 117.125 10.7606C112.907 8.5672 108.66 7.90475 104 7.13559C104.33 6.47559 104.66 5.81559 105 5.13559Z" fill="#D9ECF6"/>
<path d="M28 27.1356C32.8275 28.5485 36.7162 30.5653 41 33.1356C40.34 33.7956 39.68 34.4556 39 35.1356C37.164 33.994 35.3313 32.8472 33.5 31.6981C32.4791 31.06 31.4581 30.4219 30.4062 29.7645C29.6122 29.227 28.8181 28.6894 28 28.1356C28 27.8056 28 27.4756 28 27.1356Z" fill="#3B3D3E"/>
<path d="M15 0.135586C18.375 0.0105859 18.375 0.0105855 22 0.135586C22.66 0.795586 23.32 1.45559 24 2.13559C23.67 2.79559 23.34 3.45559 23 4.13559C20.69 3.80559 18.38 3.47559 16 3.13559C15.67 2.14559 15.34 1.15559 15 0.135586Z" fill="#4C4D4E"/>
</svg>
